<svg xmlns="http://www.w3.org/2000/svg" xmlns:xlink="http://www.w3.org/1999/xlink" version="1.1" id="Ebene_1" x="0px" y="0px" viewBox="-0.8000316619873047 -0.23749732971191406 351.70001220703125 229.31764221191406" enable-background="new 0 0 352 230" xml:space="preserve" width="351.70001220703125" height="229.31764221191406">
  <g>
    <g>
      <g>
        <path fill="#F8D669" d="M161.3,215.4c-0.1,6.2,15.5,11.4,34.7,11.6c19.2,0.2,34.8-4.7,34.9-10.9c0.1-6.2-15.5-11.4-34.7-11.6&#13;&#10;&#9;&#9;&#9;C177,204.2,161.3,209.1,161.3,215.4z" stroke-width="1"/>
      </g>
      <g>
        <path fill="#5970A1" d="M161.3,215.4c-0.1,6.2,15.5,11.4,34.7,11.6c19.2,0.2,34.8-4.7,34.9-10.9c0.1-6.2-15.5-11.4-34.7-11.6&#13;&#10;&#9;&#9;&#9;C177,204.2,161.3,209.1,161.3,215.4z" stroke-width="1"/>
      </g>
      <g>
        <path fill="none" stroke="#0C0D11" stroke-width="3" stroke-miterlimit="10" d="M320.6,45.3c0,0,8.5,1.3,17.3,5.6&#13;&#10;&#9;&#9;&#9;c8.7,4.3,11.5,8.9,11.5,8.9"/>
        <path fill="none" stroke="#0C0D11" stroke-width="3" stroke-miterlimit="10" d="M316.3,49.7c0,0,7.4,4.6,12,9&#13;&#10;&#9;&#9;&#9;c4.6,4.4,7.6,8.2,7.6,8.2"/>
        <path fill="none" stroke="#0C0D11" stroke-width="3" stroke-miterlimit="10" d="M308.7,54.8c0,0,6,8.1,7.9,13.8&#13;&#10;&#9;&#9;&#9;c1.9,5.8,3,12.5,3,12.5"/>
        <path fill="#595961" d="M275.5,104.1c0,0,11,16.7,24,22.2c13,5.5,20.4-1.3,23.2,7.4c2.7,8.7-1.1,17.4-25,9.7&#13;&#10;&#9;&#9;&#9;c-24-7.7-27.2-34.3-27.2-34.3L275.5,104.1z" stroke-width="1"/>
        <path fill="#6E6E78" d="M69.6,153.6c0,0,43.9,64.7,114.1,72.1c70.2,7.5,94.7-7.5,113.1-43.9c18.5-36.4-4.3-123.3,4.4-122.6&#13;&#10;&#9;&#9;&#9;c24.9,2,21.6-8.6,23.3-13.7c1.7-5.1-15.3-3.7-17.6-12.4c-2.3-8.7-37.1-54.9-74.4-17.3c-37.3,37.6-7.5,121-46.1,160.7&#13;&#10;&#9;&#9;&#9;c-28.8,29.7-102.6-27.4-102.6-27.4s17-14,15.4-34.7c-1.6-20.7-12.9-34.6-16.1-34.5c-3.1,0.1-16.8,17.8-19.8,33.6&#13;&#10;&#9;&#9;&#9;c-3,15.9,1.2,25.7,1.2,25.7s-13.9-15.9-35.9-15.1c-22,0.8-27.9,8.6-27.9,8.6s12.8,18.9,35.8,26C59.5,166,69.6,153.6,69.6,153.6z" stroke-width="1"/>
        <path fill="#FFFFFF" d="M272.8,34.2c0.1,3,2.7,5.3,5.7,5.2c3-0.1,5.3-2.7,5.2-5.7c-0.1-3-2.7-5.3-5.7-5.2&#13;&#10;&#9;&#9;&#9;C275,28.7,272.7,31.2,272.8,34.2z" stroke-width="1"/>
        <path fill="none" stroke="#0C0D11" stroke-width="3" stroke-miterlimit="10" d="M303.2,46.5c0,0-7.8,3.6-15,10.2&#13;&#10;&#9;&#9;&#9;c-7.2,6.5-8.5,11.8-8.5,11.8"/>
        <path fill="none" stroke="#0C0D11" stroke-width="3" stroke-miterlimit="10" d="M308.5,49.4c0,0-5.8,6.5-9,12&#13;&#10;&#9;&#9;&#9;c-3.2,5.5-4.9,10-4.9,10"/>
        <path fill="none" stroke="#0C0D11" stroke-width="3" stroke-miterlimit="10" d="M317.2,52.2c0,0-3.5,9.4-3.7,15.5&#13;&#10;&#9;&#9;&#9;c-0.3,6.1,0.6,12.8,0.6,12.8"/>
        <ellipse transform="matrix(-0.9989,0.04629498,-0.04629498,-0.9989,647.598,73.264)" fill="#0C0D11" cx="323" cy="44.1" rx="3.1" ry="2.5" stroke-width="1"/>
        <ellipse transform="matrix(-0.9989,0.04623615,-0.04623615,-0.9989,557.3356,56.3363)" fill="#0C0D11" cx="278" cy="34.6" rx="3.8" ry="3.9" stroke-width="1"/>
        <path fill="#595961" d="M266.4,129c0,0,11,16.7,24,22.2c13,5.5,20.4-1.3,23.2,7.4c2.7,8.7-1.1,17.4-25.1,9.7&#13;&#10;&#9;&#9;&#9;c-24-7.7-27.2-34.3-27.2-34.3L266.4,129z" stroke-width="1"/>
        <path fill="#FFFFFF" d="M273.9,33c0.1,1.1,1,2,2.1,1.9c1.1-0.1,2-1,1.9-2.1c-0.1-1.1-1-2-2.1-1.9C274.7,30.9,273.9,31.9,273.9,33z&#13;&#10;&#9;&#9;&#9;" stroke-width="1"/>
      </g>
    </g>
    <path fill="#FFFFFF" d="M275.9,21.9c7.1,0,12.9,5.4,12.9,12.1s-5.8,12.1-12.9,12.1S263,40.7,263,34S268.8,21.9,275.9,21.9" stroke-width="1"/>
    <ellipse fill="#251E22" cx="277.9" cy="31" rx="5.7" ry="5.6" stroke-width="1"/>
    <ellipse fill="#251E22" cx="323.5" cy="45.5" rx="5.7" ry="5.6" stroke-width="1"/>
  </g>
</svg>