<svg xmlns="http://www.w3.org/2000/svg" xmlns:xlink="http://www.w3.org/1999/xlink" version="1.1" id="Ebene_1" x="0px" y="0px" viewBox="1.1803030967712402 -0.3999999761581421 284.08087158203125 499.8999938964844" enable-background="new 0 0 286 500" xml:space="preserve" width="284.08087158203125" height="499.8999938964844">
  <g>
    <path fill="#F1BC98" d="M30.8,196.6c-3.6-6-11.3-7.9-17.3-4.3l-4.2,2.5c-6,3.6-7.9,11.3-4.3,17.3l0.4,0.6c3.6,6,11.3,7.9,17.3,4.3&#13;&#10;&#9;l4.2-2.5c6-3.6,7.9-11.3,4.3-17.3L30.8,196.6z" stroke-width="1"/>
    <path fill="#F1BC98" d="M256,198.2c3.9-5.8,11.7-7.4,17.5-3.6l4.1,2.7c5.8,3.8,7.4,11.7,3.6,17.5l-0.4,0.6&#13;&#10;&#9;c-3.8,5.8-11.7,7.4-17.5,3.6l-4.1-2.7c-5.8-3.9-7.4-11.7-3.6-17.5L256,198.2z" stroke-width="1"/>
    <path fill="#C1292E" d="M192.5,251.1c0,0-20.6,5.6-28.9-2.5c-4.6-4.4-7.4,4-7.4,4l-16.3,8.9l1.4,11.6l25.5,31.9l21-11.3L192.5,251.1&#13;&#10;&#9;z" stroke-width="1"/>
    <path fill="#C1292E" d="M91.7,252.7c0,0,21.8,5.6,30.5-2.5c4.8-4.4,7.8,4,7.8,4l17.2,8.9l-1.5,11.6l-26.9,31.9l-22.2-11.3&#13;&#10;&#9;L91.7,252.7z" stroke-width="1"/>
    <path fill="#484240" d="M192.9,364.9c-2.4-3.2-6.3-5.3-10.6-5.3H101c-4.3,0-8.2,2.1-10.6,5.3h-2.6v31.4h0l3.8,96.4h25.7l6.7-86.3&#13;&#10;&#9;h35.4l6.6,85.2h25.7l3.7-95.3h0.1v-31.4H192.9z" stroke-width="1"/>
    <rect x="87.8" y="342.9" fill="#251E22" width="107.7" height="31.3" stroke-width="1"/>
    <g>
      <path fill="#C1292E" d="M253.6,206.4c-26.1,40.6-78.7,49.7-79.3,49.8l4,35.5c2.6-0.4,64.8-21.2,97-71.3L253.6,206.4z" stroke-width="1"/>
    </g>
    <g>
      <path fill="#C1292E" d="M32.9,205l-22.3,13c30,51.5,91.3,73.2,93.9,73.7l5.4-33.5l-2.7,12.6l2.7-12.6&#13;&#10;&#9;&#9;C109.3,258.1,57,246.4,32.9,205z" stroke-width="1"/>
    </g>
    <circle fill="#F0BB96" cx="141.7" cy="242.4" r="21.8" stroke-width="1"/>
    <ellipse fill="#F0BB96" cx="138.4" cy="161.7" rx="78.5" ry="82.8" stroke-width="1"/>
    <path fill="none" d="M119.8,232.2c6.8,2.6,14.1,4,21.8,4c7.7,0,15.1-1.4,21.8-4c-6.6-3.4-14-5.3-21.8-5.3&#13;&#10;&#9;C133.8,226.9,126.4,228.9,119.8,232.2z" stroke-width="1"/>
    <path fill="#C1292E" d="M115.5,264.2c0,0,6.5,129,95.6,129l-22.8-107L115.5,264.2z" stroke-width="1"/>
    <path fill="#C1292E" d="M169.2,264.2c0,0-6.5,129-95.9,129l22.9-107L169.2,264.2z" stroke-width="1"/>
    <g>
      <circle fill="#F9B03D" cx="121.8" cy="307.1" r="6.2" stroke-width="1"/>
      <circle fill="#F9B03D" cx="161.9" cy="307.1" r="6.2" stroke-width="1"/>
    </g>
    <circle fill="#F9B03D" cx="116.6" cy="334.9" r="6.2" stroke-width="1"/>
    <circle fill="#F9B03D" cx="168.4" cy="334.9" r="6.2" stroke-width="1"/>
    <g>
      <circle fill="#F9B03D" cx="125.1" cy="278.8" r="6.2" stroke-width="1"/>
      <circle fill="#F9B03D" cx="158.6" cy="278.8" r="6.2" stroke-width="1"/>
    </g>
    <path fill="#010202" stroke="#F9B03D" stroke-width="4" stroke-miterlimit="10" d="M125.1,278.8c0,0,15,0,33.5,0"/>
    <path fill="#010202" stroke="#F9B03D" stroke-width="4" stroke-miterlimit="10" d="M125.1,307.1c0,0,16.5,0,36.9,0"/>
    <path fill="#010202" stroke="#F9B03D" stroke-width="4" stroke-miterlimit="10" d="M119.3,334.9c0,0,19.3,0,43.1,0"/>
    <path fill="#FECA11" d="M120.8,251.1c0.2,1.5-1.3,3.1-3.4,3.4l-25.7,4c-2.1,0.3-4-0.7-4.2-2.2l-0.1-0.6c-0.2-1.5,1.3-3.1,3.4-3.4&#13;&#10;&#9;l25.7-4c2.1-0.3,4,0.7,4.2,2.2L120.8,251.1z" stroke-width="1"/>
    <path fill="#FECA11" d="M162.5,251.1c-0.2,1.5,1.3,3.1,3.4,3.4l25.7,4c2.1,0.3,4-0.7,4.2-2.2l0.1-0.6c0.2-1.5-1.3-3.1-3.4-3.4&#13;&#10;&#9;l-25.7-4c-2.1-0.3-4,0.7-4.2,2.2L162.5,251.1z" stroke-width="1"/>
    <g>
      <path fill="#FFFFFF" d="M110.5,150.3c8.1,0,14.8,6.2,14.8,13.8c0,7.6-6.6,13.8-14.8,13.8s-14.8-6.2-14.8-13.8&#13;&#10;&#9;&#9;C95.7,156.5,102.3,150.3,110.5,150.3" stroke-width="1"/>
      <ellipse fill="#251E22" cx="112.7" cy="160.7" rx="6.5" ry="6.4" stroke-width="1"/>
    </g>
    <g>
      <path fill="#FFFFFF" d="M166.3,150.3c8.1,0,14.8,6.2,14.8,13.8c0,7.6-6.6,13.8-14.8,13.8s-14.8-6.2-14.8-13.8&#13;&#10;&#9;&#9;C151.6,156.5,158.2,150.3,166.3,150.3" stroke-width="1"/>
      <ellipse fill="#251E22" cx="168.5" cy="160.7" rx="6.5" ry="6.4" stroke-width="1"/>
    </g>
    <g>
      <path fill="#251E22" d="M107.1,209.9c2.4,24.8,22.6,26.4,32.4,26.4c9.8,0,30-1.6,32.4-26.4H107.1z" stroke-width="1"/>
      <path fill="#C1292E" d="M153.6,228.4c-11.1-2.7-22.7,0-33.2,4c6.6,3.5,14.1,3.9,19,3.9c5.4,0,14-0.5,20.9-5&#13;&#10;&#9;&#9;C158.3,229.9,156.1,229,153.6,228.4z" stroke-width="1"/>
    </g>
    <path fill="#502711" d="M104.4,192.6c-0.4-0.1-0.8,0.1-0.8,0.4c-0.7,2.7-0.5,4.9,0.4,6.6c2.2,4,9.3,5.3,19.2,4.7&#13;&#10;&#9;c6.7-0.4,13-2.5,16.4-3.8c0.8,0.3,10.7,3.4,15.7,3.8c7.5,0.4,13.9-0.1,17.1-2.1c2.4-1.4,4.6-5.2,2.9-9.4c-0.1-0.3-0.5-0.5-0.9-0.3&#13;&#10;&#9;c-0.4,0.1-0.6,0.5-0.6,0.8c0.2,1.1-0.1,2.1-0.9,2.9c-1.2,1.2-3.4,1.9-6.2,1.9c0,0,0,0,0,0c-0.5,0-1,0-1.5,0c-2.6-0.2-4.6-1-6.7-1.7&#13;&#10;&#9;c-1.1-0.4-2.3-0.8-3.5-1.1c-3.1-0.7-6.5-1.1-9.3-1c-2.5,0-4.6,0.4-6.2,1.1c-1.8-0.7-3.9-1-6.4-1.1c-4.2-0.1-8.2,0.8-10.3,1.4&#13;&#10;&#9;c-0.8,0.2-1.6,0.5-2.4,0.8c-1.5,0.5-3.1,1.1-4.7,1.4c-1,0.2-2.2,0.3-3.3,0.3c-2.6,0-4.9-0.7-6.2-1.9c-0.8-0.8-1.2-1.8-1.1-2.9&#13;&#10;&#9;C105.1,193,104.8,192.7,104.4,192.6z" stroke-width="1"/>
    <path fill="#502711" d="M198.6,99c0,0-27.2-25-83.9-15.6c-56.6,9.4-60.9,34-59.2,57.9c1.7,23.9,6.2,37.9,11.6,36.2&#13;&#10;&#9;c5.4-1.7,2.6-17.5,3.1-21.2c0.6-3.6,5.7-20.1,40.1-17.7c34.4,2.5,63.5-6.6,63.5-6.6s11.7,10.7,19.4,12.7&#13;&#10;&#9;c15.4,4.1,10.3,31.3,16.3,31.3C215.6,176.1,245.1,113.3,198.6,99z" stroke-width="1"/>
    <g>
      <rect x="39.5" y="97.8" fill="#251E22" width="206" height="29.7" stroke-width="1"/>
      <rect x="72.7" y="1.6" fill="#251E22" width="139.2" height="103.5" stroke-width="1"/>
      <rect x="72.7" y="77.7" fill="#C1292E" width="139.2" height="20.5" stroke-width="1"/>
    </g>
    <path fill="#231F20" d="M120.2,490c0-2.7-2.1-5-5.2-6.3v0l0,0c-1.3-0.6-2.9-0.9-4.5-1.1l-17.2-4.2c-3.2-2.4-7.8-3.9-12.9-3.9&#13;&#10;&#9;c-9.5,0-17.3,5.2-17.3,11.5c0,4.9,4.6,9.1,11.2,10.8c1.9,0.5,4,0.7,6.1,0.7h37.7l-0.1-1.4C120.9,494.7,120.2,492.5,120.2,490z" stroke-width="1"/>
    <path fill="#231F20" d="M164,490c0-2.7,2.1-5,5.2-6.3v0l0,0c1.3-0.6,2.9-0.9,4.5-1.1l17.2-4.2c3.2-2.4,7.8-3.9,12.9-3.9&#13;&#10;&#9;c9.5,0,17.3,5.2,17.3,11.5c0,4.9-4.6,9.1-11.2,10.8c-1.9,0.5-4,0.7-6.1,0.7h-37.7l0.1-1.4C163.3,494.7,164,492.5,164,490z" stroke-width="1"/>
  </g>
</svg>