<svg xmlns="http://www.w3.org/2000/svg" xmlns:xlink="http://www.w3.org/1999/xlink" version="1.1" id="Ebene_1" x="0px" y="0px" viewBox="-147.01937866210938 117.80001068115234 449.9205322265625 360.39996337890625" enable-background="new 0 0 368 520" xml:space="preserve" width="449.9205322265625" height="360.39996337890625">
  <g>
    <path fill="#23B4D7" d="M-146.5,453.4c-0.1,0.6,0.2,1.2,0.6,1.7c0.4,0.4,1.1,0.6,1.7,0.6" stroke-width="1"/>
    <g>
      <g>
        <path fill="#E2371F" d="M268.7,200.7c0-6.5-3-12.2-7.4-15.6c1.9-2.1,3.2-5,3.2-8.3c0-6.1-4.3-11.1-9.6-11.4&#13;&#10;&#9;&#9;&#9;c0.3-1.3,0.4-2.7,0.4-4.2c0-10.3-7.4-18.7-16.5-18.7c-2,0-3.8,0.4-5.5,1.1c-0.4-9.8-7.6-17.7-16.5-17.7c-3.7,0-7.1,1.4-9.9,3.7&#13;&#10;&#9;&#9;&#9;c-1.5-4.2-5.1-7.2-9.4-7.2c-2.7,0-5.1,1.2-6.9,3.1c-3-4.4-7.7-7.2-13-7.2c-6.4,0-12,4.1-14.7,10.2c-1.9-2.4-4.6-4-7.6-4&#13;&#10;&#9;&#9;&#9;c-5.1,0-9.3,4.3-10,9.8c-1.4-0.5-2.9-0.8-4.4-0.8c-7.4,0-13.5,6.8-13.5,15.2c0,0,0,0.1,0,0.1c-0.6-0.1-1.2-0.1-1.8-0.1&#13;&#10;&#9;&#9;&#9;c-9.1,0-16.5,8.3-16.5,18.7c0,2.4,0.4,4.7,1.2,6.8c-5.6,1.8-9.7,7.7-9.7,14.6c0,5.6,2.7,10.4,6.6,13.1c-1.8,2.1-2.9,4.9-2.9,8&#13;&#10;&#9;&#9;&#9;c0,6.3,4.5,11.4,10.1,11.4c0.7,0,1.3-0.1,1.9-0.2c-0.7,2-1,4.2-1,6.4c0,10.3,7.4,18.7,16.5,18.7c6.6,0,12.2-4.3,14.9-10.6&#13;&#10;&#9;&#9;&#9;c10.8,4.9,24.1,7.9,38.3,7.9c18.1,0,34.5-4.7,46.5-12.2c2.7,6,8.3,10.2,14.7,10.2c9.1,0,16.5-8.3,16.5-18.7c0-2.4-0.4-4.6-1.1-6.7&#13;&#10;&#9;&#9;&#9;C265.8,212.8,268.7,207.2,268.7,200.7z" stroke-width="1"/>
        <g>
          <g>
            <g>
              <g>
                <path fill="#EAA575" d="M190.7,281.2c2.2-3.6,6.9-4.8,10.5-2.7c0.2,0.1,23.4,13.6,46.4,6.8c11.8-3.5,21.8-11.9,29.8-25&#13;&#10;&#9;&#9;&#9;&#9;&#9;&#9;&#9;c4.2,3,8.4,5.9,12.7,8.7c-9.9,16.1-22.8,26.6-38.3,31.2c-6.2,1.8-12.3,2.5-18.1,2.5c-21.9,0-39.5-10.3-40.4-10.9&#13;&#10;&#9;&#9;&#9;&#9;&#9;&#9;&#9;C189.7,289.5,188.6,284.8,190.7,281.2z" stroke-width="1"/>
              </g>
            </g>
          </g>
          <g>
            <g>
              <g>
                <path fill="#EAA575" d="M176.6,281.2c-2.2-3.6-6.9-4.8-10.5-2.7c-0.2,0.1-23.4,13.6-46.4,6.8c-11.8-3.5-21.8-11.9-29.8-25&#13;&#10;&#9;&#9;&#9;&#9;&#9;&#9;&#9;c-4.2,3-8.4,5.9-12.7,8.7c9.9,16.1,22.8,26.6,38.3,31.2c6.2,1.8,12.3,2.5,18.1,2.5c21.9,0,39.5-10.3,40.4-10.9&#13;&#10;&#9;&#9;&#9;&#9;&#9;&#9;&#9;C177.6,289.5,178.7,284.8,176.6,281.2z" stroke-width="1"/>
              </g>
            </g>
            <path fill="#EAA575" d="M86.4,255.1c7.5,0,13.6,6.1,13.6,13.6c0,1.4-0.2,2.9-0.7,4.3c0.8,0.8,1.7,1.7,2.7,2.7&#13;&#10;&#9;&#9;&#9;&#9;&#9;c0.2,0.2,0.2,0.5,0,0.7c-2.9,3.2-5.8,6.7-8.8,10.7c-0.1,0.1-0.2,0.2-0.3,0.2c0,0,0,0,0,0c-0.1,0-0.2,0-0.3-0.1&#13;&#10;&#9;&#9;&#9;&#9;&#9;c-1.7-1.5-3.3-3.1-4.8-4.8c-0.5,0-0.9,0.1-1.3,0.1c-7.5,0-13.6-6.1-13.6-13.6C72.8,261.2,78.9,255.1,86.4,255.1z" stroke-width="1"/>
          </g>
          <path fill="#EAA575" d="M222.7,352.1c0.2-4.2-3.1-7.8-7.3-8c-4.2-0.2-16.4-0.9-16.6,3.3" stroke-width="1"/>
          <path fill="#EAA575" d="M228.6,370.3l-7.7-73.8c0-12.7-9.6-23.1-22.3-23.1h-13.8h-11.6c-12.7,0-23.1,10.3-23.1,23.1l-7.7,73.8&#13;&#10;&#9;&#9;&#9;&#9;c0,12.7,14.8,9.7,27.5,9.7h16.2" stroke-width="1"/>
          <path fill="#289338" d="M220.9,296.4c0-12.3-9-22.4-21.2-23c-0.7,2.9-2.1,5.7-4.3,7.8c-2.8,2.8-6.7,4.5-10.7,4.6&#13;&#10;&#9;&#9;&#9;&#9;c-0.3,0,0.3,0,0,0c-4.3,0-9.1-1.7-12.1-4.7c-2.1-2-3.5-4.6-4.2-7.4c-10.5,2.2-18.4,11.4-18.4,22.5l-7.7,73.6&#13;&#10;&#9;&#9;&#9;&#9;c13.2,14.9,11.4,3.1,24.2,3.1l19.6,6.9l20.9-3.5c10.8-5.8,11.4,4.7,21.5-6.6L220.9,296.4z" stroke-width="1"/>
          <g>
            <path fill="#FEE5C0" d="M220,169.2h-36.2v106.6c0.4,0,1.5,0,1.9,0c35.7,0,64.6-25.8,64.6-57.7&#13;&#10;&#9;&#9;&#9;&#9;&#9;C250.3,197.5,238.2,179.4,220,169.2z" stroke-width="1"/>
            <path fill="#FEE5C0" d="M184.8,275.8V169.2h-34.3c-18.4,10.2-30.7,28.3-30.7,48.9C119.7,250,149.1,275.9,184.8,275.8&#13;&#10;&#9;&#9;&#9;&#9;&#9;C185.2,275.9,184.4,275.8,184.8,275.8z" stroke-width="1"/>
          </g>
          <g>
            <circle fill="#E2371F" cx="184.4" cy="230.8" r="11.8" stroke-width="1"/>
            <path fill="#E2371F" d="M184.4,219L184.4,219c-6.5,0-11.8,5.3-11.8,11.8c0,6.5,5.3,11.8,11.8,11.8l0,0V219z" stroke-width="1"/>
          </g>
        </g>
        <path fill="#E2371F" d="M255.6,193c0.6-0.8,1-1.9,1-3.3c0-2.2,0.2-4.3-0.5-6.4c-0.8-2.4-2.6-4-3.7-6.2c-1.9-4-2.7-7.3-5.5-10.9&#13;&#10;&#9;&#9;&#9;c-4.1-5.3-11.4-7.8-17.3-10.9c-3-1.6-6.3-2.2-9.6-3.1c-4-1.1-7.8-3-11.8-4c-5.9-1.5-12.5-0.6-18.5-0.6c-6.7,0-13.4,0.2-20.1,1.4&#13;&#10;&#9;&#9;&#9;c-7.8,1.3-15.5,2-23,4.7c-7.3,2.6-13.6,5.9-19.9,10.4c-8,5.8-9.9,12.9-7.5,22.3c0.1,0.4,0.2,0.8,0.4,1.2c-3.6,2.6-6,6.8-6,11.6&#13;&#10;&#9;&#9;&#9;c0,7.8,6.3,14.2,14.2,14.2c7.8,0,14.2-6.3,14.2-14.2c0-1.1-0.1-2.2-0.4-3.3c0.7,0.1,1.4,0.2,2.1,0.2c5.4,0,9.9-3.5,11.5-8.4&#13;&#10;&#9;&#9;&#9;c2.4,1.8,5.3,2.9,8.5,2.9c6.2,0,11.4-3.9,13.3-9.4c2,1.6,4.6,2.5,7.4,2.5c3.7,0,7.1-1.7,9.3-4.4c1.8,5.7,7.2,9.9,13.5,9.9&#13;&#10;&#9;&#9;&#9;c3,0,5.7-0.9,8-2.5c0.3,7.5,6.5,13.5,14.1,13.5c1.9,0,3.7-0.4,5.4-1.1c-0.1,0.7-0.2,1.4-0.2,2.1c0,6.7,5.4,12.1,12.1,12.1&#13;&#10;&#9;&#9;&#9;c6.7,0,12.1-5.4,12.1-12.1C258.7,198,257.5,195.2,255.6,193z" stroke-width="1"/>
        <g>
          <g>
            <path fill="#E2371F" d="M190.4,332.4c6.7-8.8-3.2-18.7-12-12l0,0C171.7,329.2,181.6,339.1,190.4,332.4z" stroke-width="1"/>
          </g>
          <g>
            <path fill="#E2371F" d="M190.4,306.6c6.7-8.8-3.2-18.7-12-12l0,0C171.7,303.4,181.6,313.3,190.4,306.6z" stroke-width="1"/>
            <line fill="#E2371F" x1="184.5" y1="290.5" x2="184.5" y2="290.5" stroke-width="1"/>
            <line fill="#E2371F" x1="184.5" y1="306.9" x2="184.5" y2="306.9" stroke-width="1"/>
          </g>
        </g>
      </g>
      <g>
        <path fill="#FFFFFF" d="M165.4,202.9c4.3,0,7.8,3.6,7.8,8c0,4.4-3.5,8-7.8,8c-4.3,0-7.8-3.6-7.8-8&#13;&#10;&#9;&#9;&#9;C157.6,206.5,161.1,202.9,165.4,202.9" stroke-width="1"/>
        <ellipse fill="#251E22" cx="166.5" cy="209" rx="3.4" ry="3.7" stroke-width="1"/>
      </g>
      <g>
        <path fill="#FFFFFF" d="M199.3,202.9c4.3,0,7.8,3.6,7.8,8c0,4.4-3.5,8-7.8,8s-7.8-3.6-7.8-8C191.5,206.5,195,202.9,199.3,202.9" stroke-width="1"/>
        <ellipse fill="#251E22" cx="200.5" cy="209" rx="3.4" ry="3.7" stroke-width="1"/>
      </g>
      <g>
        <g>
          <g>
            <path fill="#FFFFFF" d="M155,258.6c0,0-5-8.5,0-13.4c5-5,20.8,1,35.7,0c14.9-1,18.1-7,23.8-2c6.9,6,7.2,12-2.9,18.6&#13;&#10;&#9;&#9;&#9;&#9;&#9;c-9.8,6.4-16.3,7.2-26,7.2C175.9,269,162.2,265.4,155,258.6z" stroke-width="1"/>
          </g>
        </g>
      </g>
      <path fill="#EAA575" d="M288.9,246.3c-7.5,0-13.6,6.1-13.6,13.6c0,1.4,0.2,2.9,0.7,4.3c-0.8,0.8-1.7,1.7-2.7,2.7&#13;&#10;&#9;&#9;c-0.2,0.2-0.2,0.5,0,0.7c2.9,3.2,5.8,6.7,8.8,10.7c0.1,0.1,0.2,0.2,0.3,0.2c0,0,0,0,0,0c0.1,0,0.2,0,0.3-0.1&#13;&#10;&#9;&#9;c1.7-1.5,3.3-3.1,4.8-4.8c0.5,0,0.9,0.1,1.3,0.1c7.5,0,13.6-6.1,13.6-13.6C302.5,252.4,296.4,246.3,288.9,246.3z" stroke-width="1"/>
      <path fill="#0D71B9" d="M119.3,452.5c0,0,21-5.8,31.9,0c0,0,2.3-37.8-5.5-48.8c0,0,6-2.6,20.8-16.1c2.1,0.2,8,4.5,20,3.7&#13;&#10;&#9;&#9;c1.3-0.1,2.5-0.1,3.8-0.1c2.2,13.9,7.5,30.5,7.5,30.5c-8.3,19.9-1.3,50-1.3,50l21.2-9.6c0,0,8-28.3,11-36.4&#13;&#10;&#9;&#9;c2.6-6.8-1.1-40.5-2.3-51c7.5-8,12-18.2,12-29.5c0,0-7,1.6-52.6,1.6s-51.1-1.6-51.1-1.6c0,5.6,1.1,10.9,3.2,15.9l0,0&#13;&#10;&#9;&#9;c0,0-21.7,16.7-25.3,36.3" stroke-width="1"/>
      <path fill="#0D71B9" d="M68.4,381.5" stroke-width="1"/>
      <path fill="#0D71B9" d="M62.4,334.9" stroke-width="1"/>
      <g>
        <path fill="#2EABE2" d="M155.4,349.5c-2,0-3.6-1.5-3.7-3.4c-1.7-54.7,11-70.5,11.5-71.2c1.3-1.5,3.6-1.8,5.2-0.6&#13;&#10;&#9;&#9;&#9;c1.6,1.2,1.9,3.3,0.7,4.8c-0.2,0.3-11.5,15.5-10,66.7c0.1,1.9-1.5,3.5-3.6,3.6C155.5,349.5,155.4,349.5,155.4,349.5z" stroke-width="1"/>
      </g>
      <g>
        <path fill="#2EABE2" d="M213.3,349.5c2,0,3.6-1.5,3.7-3.4c1.7-54.7-11-70.5-11.5-71.2c-1.3-1.5-3.6-1.8-5.2-0.6&#13;&#10;&#9;&#9;&#9;c-1.6,1.2-1.9,3.3-0.7,4.8c0.2,0.3,11.5,15.5,10,66.7c-0.1,1.9,1.5,3.5,3.6,3.6C213.2,349.5,213.2,349.5,213.3,349.5z" stroke-width="1"/>
      </g>
      <g>
        <ellipse fill="#F39323" cx="154.3" cy="346.6" rx="5.6" ry="5.3" stroke-width="1"/>
        <ellipse fill="#F9B03D" cx="154.3" cy="346.6" rx="4.5" ry="4.2" stroke-width="1"/>
        <g>
          <ellipse fill="#F39323" cx="152.6" cy="345.2" rx="0.8" ry="0.8" stroke-width="1"/>
          <ellipse fill="#F39323" cx="156" cy="345.2" rx="0.8" ry="0.8" stroke-width="1"/>
          <ellipse fill="#F39323" cx="152.6" cy="348" rx="0.8" ry="0.8" stroke-width="1"/>
          <ellipse fill="#F39323" cx="156" cy="348" rx="0.8" ry="0.8" stroke-width="1"/>
        </g>
      </g>
      <g>
        <ellipse fill="#F39323" cx="213.6" cy="346.6" rx="5.6" ry="5.3" stroke-width="1"/>
        <ellipse fill="#F9B03D" cx="213.6" cy="346.6" rx="4.5" ry="4.2" stroke-width="1"/>
        <g>
          <ellipse fill="#F39323" cx="211.8" cy="345.2" rx="0.8" ry="0.8" stroke-width="1"/>
          <ellipse fill="#F39323" cx="215.3" cy="345.2" rx="0.8" ry="0.8" stroke-width="1"/>
          <ellipse fill="#F39323" cx="211.8" cy="348" rx="0.8" ry="0.8" stroke-width="1"/>
          <ellipse fill="#F39323" cx="215.3" cy="348" rx="0.8" ry="0.8" stroke-width="1"/>
        </g>
      </g>
      <path fill="#231F20" d="M153.4,453.6c0-3.6-2.8-6.7-7-8.5v0l-0.1,0c-1.8-0.8-3.8-1.3-6-1.5l-23-5.6c-4.2-3.2-10.4-5.2-17.3-5.2&#13;&#10;&#9;&#9;c-12.8,0-23.1,6.9-23.1,15.4c0,6.6,6.2,12.2,15,14.4c2.5,0.6,5.3,1,8.2,1h50.5l-0.1-1.9C154.4,459.9,153.4,457,153.4,453.6z" stroke-width="1"/>
      <path fill="#231F20" d="M190.4,467.7c0-3.6,2.8-6.7,7-8.5v0l0.1,0c1.8-0.8,3.8-1.3,6-1.5l23-5.6c4.2-3.2,10.4-5.2,17.3-5.2&#13;&#10;&#9;&#9;c12.8,0,23.1,6.9,23.1,15.4c0,6.6-6.2,12.2-15,14.4c-2.5,0.6-5.3,1-8.2,1h-50.5l0.1-1.9C189.5,474,190.4,471.1,190.4,467.7z" stroke-width="1"/>
      <path fill="#E9B006" d="M160.3,354c6.7-8.8-3.2-18.7-12-12l0,0C141.6,350.7,151.5,360.6,160.3,354z" stroke-width="1"/>
      <path fill="#E9B006" d="M219.6,354.8c6.7-8.8-3.2-18.7-12-12l0,0C200.9,351.5,210.8,361.4,219.6,354.8z" stroke-width="1"/>
      <g>
        <path fill="#251E22" d="M174.9,250.3c0.7,14.4,6.6,15.3,9.5,15.3c2.9,0,8.8-0.9,9.5-15.3H174.9z" stroke-width="1"/>
        <path fill="#C1292E" d="M188.5,261.1c-3.2-1.6-6.6,0-9.7,2.3c1.9,2,4.1,2.3,5.6,2.3c1.6,0,4.1-0.3,6.1-2.9&#13;&#10;&#9;&#9;&#9;C189.9,262,189.2,261.4,188.5,261.1z" stroke-width="1"/>
      </g>
    </g>
  </g>
</svg>