<svg xmlns="http://www.w3.org/2000/svg" xmlns:xlink="http://www.w3.org/1999/xlink" version="1.1" width="491.68417167663574" height="366.43234062194824" viewBox="-7.428676605224609 -1.441176414489746 491.68417167663574 366.43234062194824">
  <!-- Exported by Scratch - http://scratch.mit.edu/ -->
  <g id="ID0.09381386637687683">
    <path id="ID0.3961414685472846" fill="#99FFFF" stroke="#CCFFFF" stroke-width="2.0040581700727906" d="M -0.95 0 L 479.9919 0 L 479.9919 290 L 0.0039 275 L -0.95 0 Z "/>
    <path id="ID0.42040406772866845" fill="#00CC44" stroke="#00CC44" stroke-width="2.882352828979492" d="M 443.9912 247.4265 C 456.0437 246.8918 469.6095 251.6722 476.9941 260.9735 C 484.8572 270.8326 482.7026 285.5369 482.0382 298.0117 C 482.3625 310.8483 483.6913 325.5512 475.9853 335.9867 C 468.8659 345.6527 455.8982 352.7073 443.9912 352.6323 C 426.2777 352.5214 406.0954 346.7379 393.0514 337.2161 C 380.0073 327.6928 371.9324 314.542 371.9324 300.0294 C 371.9324 285.5167 380.0073 272.366 393.0514 262.8427 C 406.0954 253.3209 426.2906 248.1975 443.9912 247.4265 Z "/>
    <path id="ID0.42040406772866845" fill="#00CC44" stroke="#00CC44" stroke-width="2.06637252650449" d="M 79.0176 237.5765 C 94.4356 237.5765 108.4062 241.4259 118.522 247.6442 C 128.6378 253.8635 134.9 262.4517 134.9 271.9294 C 134.9 281.407 128.6378 289.9953 118.522 296.2146 C 108.4062 302.4329 94.4356 306.2823 79.0176 306.2823 C 63.5997 306.2823 49.6291 302.4329 39.5133 296.2146 C 29.3975 289.9953 23.1353 281.407 23.1353 271.9294 C 23.1353 262.4517 29.3975 253.8635 39.5133 247.6442 C 49.6291 241.4259 63.5997 237.5765 79.0176 237.5765 Z "/>
    <path id="ID0.42040406772866845" fill="#00CC44" stroke="#00CC44" stroke-width="2.882352828979492" d="M 192.4912 229.8765 C 212.3722 229.8765 230.3869 235.7709 243.431 245.2927 C 256.4751 254.816 264.55 267.9667 264.55 282.4794 C 264.55 296.992 256.4751 310.1428 243.431 319.6661 C 230.3869 329.1879 212.3722 335.0823 192.4912 335.0823 C 172.6101 335.0823 154.5954 329.1879 141.5514 319.6661 C 128.5073 310.1428 120.4324 296.992 120.4324 282.4794 C 120.4324 267.9667 128.5073 254.816 141.5514 245.2927 C 154.5954 235.7709 172.6101 229.8765 192.4912 229.8765 Z "/>
    <path id="ID0.42040406772866845" fill="#00CC44" stroke="#00CC44" stroke-width="2.882352828979492" d="M 320.4912 237.8765 C 340.3722 237.8765 358.3869 243.7709 371.431 253.2927 C 384.4751 262.816 392.55 275.9667 392.55 290.4794 C 392.55 304.992 384.4751 318.1428 371.431 327.6661 C 358.3869 337.1879 340.3722 343.0823 320.4912 343.0823 C 300.6101 343.0823 282.5954 337.1879 269.5514 327.6661 C 256.5073 318.1428 248.4324 304.992 248.4324 290.4794 C 248.4324 275.9667 256.5073 262.816 269.5514 253.2927 C 282.5954 243.7709 300.6101 237.8765 320.4912 237.8765 Z "/>
    <path id="ID0.42040406772866845" fill="#00CC44" stroke="#00CC44" stroke-width="1.6592334108786988" d="M -3.0019 244.997 C 2.9433 241.7839 13.1967 255.318 19.5868 264.1942 C 24.4021 270.8681 29.8521 279.1796 29.8521 288.4794 C 29.8521 297.7792 25.8199 308.726 19.5868 312.7646 L -1.0054 308.997 L -1.9861 274.0323 C -2.3077 262.389 -7.8431 246.7034 -3.0019 244.997 Z "/>
    <path id="ID0.03885363461449742" fill="#00CC44" stroke="#00CC44" stroke-width="2" d="M 1 279 L 471 276 L 479 336 L -1 341 L 1 279 Z "/>
    <path id="ID0.33250138349831104" fill="#663B00" stroke="#663B00" stroke-width="2.628119653603706" d="M -5.9875 338.6167 L 478.9875 338.6167 L 478.9875 363.55 L -5.9875 363.55 L -5.9875 338.6167 Z "/>
  </g>
</svg>