<svg xmlns="http://www.w3.org/2000/svg" xmlns:xlink="http://www.w3.org/1999/xlink" version="1.1" id="Ebene_1" x="0px" y="0px" viewBox="2.0739870071411133 1.4171570539474487 305.0435485839844 289.476806640625" enable-background="new 0 0 310 294" xml:space="preserve" width="305.0435485839844" height="289.476806640625">
  <g>
    <g>
      <path fill="#683D14" d="M130.5,27.3c-6.7,24.3-12.3,49.8-8.7,75c1.7,12.4,5.4,24.4,9.6,36.1c4,11.1,8.4,22,13.9,32.4&#13;&#10;&#9;&#9;c5.4,10.2,11.8,20,19.9,28.3c-7.5-4.5-15.7-8.3-23.8-11.7c-9.7-4-19.7-7.3-29.9-9.4c-17.4-3.7-35.7-4.1-53.1,0.2&#13;&#10;&#9;&#9;c-9.6,2.3-18.7,6.1-27,11.4c-0.6,0.4-0.1,1.3,0.5,1c32.3-17.9,70.8-15.7,104.4-2.7c11,4.3,21.3,9.9,31.8,15.3&#13;&#10;&#9;&#9;c0.7,0.4,1.4-0.2,1.4-0.8c0.3-0.3,0.5-0.7,0.1-1.2c-16-17-26.4-37.2-34.5-58.9c-4.3-11.4-8-23.1-10.3-35.1c-2.3-12.2-2.4-24.6-1-37&#13;&#10;&#9;&#9;c1.7-14.3,5.2-28.3,8.3-42.3C132.6,26.7,130.9,26.1,130.5,27.3z" stroke-width="1"/>
      <path fill="#683D14" d="M130.5,27.3c-6.7,24.3-12.3,49.8-8.7,75c1.7,12.4,5.4,24.4,9.6,36.1c4,11.1,8.4,22,13.9,32.4&#13;&#10;&#9;&#9;c5.4,10.2,11.8,20,19.9,28.3c-7.5-4.5-15.7-8.3-23.8-11.7c-9.7-4-19.7-7.3-29.9-9.4c-17.4-3.7-35.7-4.1-53.1,0.2&#13;&#10;&#9;&#9;c-9.6,2.3-18.7,6.1-27,11.4c-0.6,0.4-0.1,1.3,0.5,1c32.3-17.9,70.8-15.7,104.4-2.7c11,4.3,21.3,9.9,31.8,15.3&#13;&#10;&#9;&#9;c0.7,0.4,1.4-0.2,1.4-0.8c0.3-0.3,0.5-0.7,0.1-1.2c-16-17-26.4-37.2-34.5-58.9c-4.3-11.4-8-23.1-10.3-35.1c-2.3-12.2-2.4-24.6-1-37&#13;&#10;&#9;&#9;c1.7-14.3,5.2-28.3,8.3-42.3C132.6,26.7,130.9,26.1,130.5,27.3z" stroke-width="1"/>
      <path fill="#683D14" d="M130.5,27.3c-6.7,24.3-12.3,49.8-8.7,75c1.7,12.4,5.4,24.4,9.6,36.1c4,11.1,8.4,22,13.9,32.4&#13;&#10;&#9;&#9;c5.4,10.2,11.8,20,19.9,28.3c-7.5-4.5-15.7-8.3-23.8-11.7c-9.7-4-19.7-7.3-29.9-9.4c-17.4-3.7-35.7-4.1-53.1,0.2&#13;&#10;&#9;&#9;c-9.6,2.3-18.7,6.1-27,11.4c-0.6,0.4-0.1,1.3,0.5,1c32.3-17.9,70.8-15.7,104.4-2.7c11,4.3,21.3,9.9,31.8,15.3&#13;&#10;&#9;&#9;c0.7,0.4,1.4-0.2,1.4-0.8c0.3-0.3,0.5-0.7,0.1-1.2c-16-17-26.4-37.2-34.5-58.9c-4.3-11.4-8-23.1-10.3-35.1c-2.3-12.2-2.4-24.6-1-37&#13;&#10;&#9;&#9;c1.7-14.3,5.2-28.3,8.3-42.3C132.6,26.7,130.9,26.1,130.5,27.3z" stroke-width="1"/>
    </g>
    <g>
      <path fill="#3DAA35" d="M103.7,107c-3.4-0.2-6.8,0.1-10.2,0.9c-0.4,0.1-0.5,0.4-0.4,0.7c-0.2,0-0.5,0.2-0.3,0.5&#13;&#10;&#9;&#9;c2.7,5.5,6.3,10.9,11.3,14.5c2.3,1.7,4.9,3,7.7,3.6c2.7,0.6,5.3,0.5,7.9,0.1c3-0.5,6.2-1.4,9.1-0.2c0.5,0.2,1.3-0.5,0.7-0.9&#13;&#10;&#9;&#9;c-2.3-1.8-3-4.7-4-7.2c-1.1-2.7-2.8-4.9-5.1-6.6C115.8,108.8,109.5,107.3,103.7,107z" stroke-width="1"/>
    </g>
    <g>
      <path fill="#3DAA35" d="M148.6,88.6c0.8-3.3,1.1-6.7,1-10.2c0-0.4-0.3-0.5-0.6-0.5c0.1-0.2-0.1-0.5-0.4-0.4&#13;&#10;&#9;&#9;c-5.9,1.6-11.8,4.1-16.4,8.4c-2.1,1.9-3.8,4.3-5,6.9c-1.1,2.5-1.5,5.1-1.5,7.8c0,3,0.3,6.4-1.5,9c-0.3,0.5,0.2,1.3,0.8,0.9&#13;&#10;&#9;&#9;c2.2-1.9,5.1-2.1,7.8-2.6c2.8-0.6,5.3-1.8,7.4-3.7C144.6,100.1,147.2,94.2,148.6,88.6z" stroke-width="1"/>
    </g>
    <g>
      <path fill="#F9B03D" d="M162.4,142.3c-1.7-12.6-16.9-21.9-29.4-19.8c1.7-3.8,2.5-7.9,1.8-12.1c-1.2-7.6-7.2-13.4-14.7-14.6&#13;&#10;&#9;&#9;c-8-1.3-14.1,3.4-17,10.6c-1.7,4.2-2.9,9-2.9,13.7c-2.3-2.3-4.9-4.2-8.1-5.3c-6.4-2.2-13.9-0.8-17.7,5.2&#13;&#10;&#9;&#9;c-3.5,5.4-3.2,12.8,0.3,18.1c2.4,3.6,5.7,6.1,9.5,7.7c-5.1,2-9.8,4.9-12.8,9.6c-3.7,5.7-4.7,13.9-0.4,19.6&#13;&#10;&#9;&#9;c4.2,5.5,11.8,6.6,18.1,4.4c5.5-1.9,9.5-6.1,12.6-10.9c0.8,5.7,2.3,11.3,5.8,16c4.1,5.4,11.4,9,18.2,7.7&#13;&#10;&#9;&#9;c7.1-1.3,10.9-7.8,11.6-14.6c0.5-5.6-0.6-11-2.8-16c5.5,1.9,11.4,2.2,17-0.2C159,158,163.6,150.5,162.4,142.3z" stroke-width="1"/>
      <path fill="#F9B03D" d="M132.2,137.7c-4.2-0.6-8.3-0.4-12.3,0.4c1.6-2.7,2.7-5.6,3.4-8.7c0.9-4.3,1.9-13.1-2.9-15.6&#13;&#10;&#9;&#9;c-5.1-2.7-9.9,5.4-11.5,9c-1.8,4.1-2.5,8.5-2.1,12.9c-6.4-7-19.6-17.5-23.8-7.6c-3.7,8.5,6,13.4,15,15.9c-2.1,1-4.1,2.3-5.9,3.8&#13;&#10;&#9;&#9;c-4,3.4-9.4,9.6-8.1,15.3c1.2,5.8,7.2,4.8,10.7,1.7c3.9-3.4,7.3-7.5,10.4-11.8c0.6,9.6,3.9,21.5,13.6,20.4&#13;&#10;&#9;&#9;c5.5-0.6,7.2-5.8,5.4-10.6c-1.7-4.6-4.6-9-7.5-13.3c10.2,3.9,24.9,7.6,26.5-3C143.8,140.4,137,138.4,132.2,137.7z" stroke-width="1"/>
      <path fill="#AB1917" d="M117.6,138.9c-1.7-2.4-4.5-4.3-7.6-4.4c-0.9,0-1.8,0.2-2.6,0.6c-5.8,0.6-9.4,7.1-8,12.6&#13;&#10;&#9;&#9;c1.6,6.1,8.8,8.6,14.4,6.4C119.9,151.5,121.3,144.1,117.6,138.9z" stroke-width="1"/>
    </g>
    <g>
      <g>
        <path fill="#7E4F25" d="M261.4,156.8c-2.3-2.4-6-3.6-8.7-5.6c-2.9-2.2-5.7-4.7-8.1-7.5c-2.2-2.5-4.1-5.2-5.7-8.1&#13;&#10;&#9;&#9;&#9;c-1-1.8-1.9-3.6-2.7-5.5c-0.5-1.2-1-4.6-2.6-4.5c0,0,0,0,0,0c0,0,0,0,0.1,0c0.1,0,0.1,0,0.2,0c0.2,0,0.3-0.1,0.4-0.3&#13;&#10;&#9;&#9;&#9;c4.4,1.6,9,2.6,13.7,3.1c4.8,0.6,9.6,0.9,14.4,1.2c5.6,0.4,11.2,1.2,16.8,1c2.1-0.1,2.1-3.2,0.1-3.6c-9.8-1.7-21-1-31.4-2.3&#13;&#10;&#9;&#9;&#9;c2.5-2.5,5.1-4.8,8.2-6.7c3.5-2.1,7.3-2.9,10.8-4.7c1.6-0.8,1.2-3.3-0.7-3.2c-4,0.2-8.3,2.6-11.6,4.8c-3.7,2.4-7.1,5.5-9.5,9.2&#13;&#10;&#9;&#9;&#9;c-0.1,0.1-0.1,0.2-0.1,0.2c-7.4-1.2-14.4-3.6-20.2-8.8c-0.9-0.8-1.8-1.7-2.6-2.5c8.3-9.5,16.9-18.8,25.8-27.8&#13;&#10;&#9;&#9;&#9;c1.3,1.1,2.9,2.1,4.8,2.7c6.5,2.3,14,2.3,20.8,2.5c6.9,0.3,13.8-0.2,20.5-2c1.9-0.5,1.6-3.8-0.4-3.9c-0.8,0-1.6,0-2.4,0&#13;&#10;&#9;&#9;&#9;c-0.6,0-1,0.3-1.2,0.7c-5.2,1.1-10.5,1.3-15.8,1.2c-6.1-0.2-12.8-0.2-18.8-1.7c-1.9-0.5-3.5-1.3-4.7-2.3&#13;&#10;&#9;&#9;&#9;c4.5-4.5,9.2-8.9,13.9-13.3c0.1,0.1,0.3,0.2,0.4,0.3c3.3,2,7.8,0.6,11.2-0.1c3.9-0.9,9.3-1.7,12.4-4.4c1.1-0.9,0.6-2.7-1-2.6&#13;&#10;&#9;&#9;&#9;c-3,0.2-5.9,1.8-8.8,2.6c-2.9,0.8-7.7,2.5-10.7,1.8c-0.3-0.1-0.5-0.1-0.7-0.2c5.4-5,10.9-10.1,16.3-15.2c1.1-1-0.6-2.8-1.8-1.9&#13;&#10;&#9;&#9;&#9;c-5.9,4.5-11.5,9.4-17,14.4c-1-2.2-1.2-5-1.4-6.9c-0.4-3.4-0.4-6.8-0.4-10.2c0-1.5-2.3-1.5-2.6-0.1c-0.9,4.2-0.9,8.7-0.3,12.9&#13;&#10;&#9;&#9;&#9;c0.3,2.2,0.8,4.8,1.9,6.8c-3.7,3.5-7.4,7.1-11.1,10.6c-1,0.9-1.9,1.9-2.9,2.8c-2.3-3.2-3.4-7.4-4.8-11.5&#13;&#10;&#9;&#9;&#9;c-2.3-6.6-4.2-13.2-6.4-19.8c-0.4-1.3-2.6-0.9-2.4,0.5c1.5,7.8,3.8,15.5,6.2,23c1.2,3.8,2.5,7.5,4.7,10.5&#13;&#10;&#9;&#9;&#9;c-8.2,8.3-16.2,16.8-23.9,25.6c-0.6,0.7-1.2,1.4-1.8,2.1c-3-3.9-5.3-8.4-7.4-12.9c3-2.3,4.9-6.3,6.1-9.8c1.1-3.4,2.4-8.3,0.8-11.8&#13;&#10;&#9;&#9;&#9;c-0.6-1.2-2.1-1-2.5,0.2c-1,3.6-0.4,7.5-1.6,11.2c-0.9,2.8-2.5,5.2-3.8,7.8c-0.6-1.4-1.3-2.9-1.9-4.3c-3.9-9-7.2-18.2-10.3-27.5&#13;&#10;&#9;&#9;&#9;c-0.5-1.4-2.4-0.6-2.1,0.8c1.6,6.7,3.6,13.3,5.9,19.8c-8.6,0-16.1-3.3-20.4-10.7c0.3-0.6,0.2-1.4-0.3-1.9&#13;&#10;&#9;&#9;&#9;c-0.5-0.5-0.9-0.9-1.5-1.2c-1.5-1.1-3.5,0.3-2.9,2.1c3.3,9.9,15.7,17.4,26,14c1,2.8,2.2,5.5,3.3,8.2c2.8,6.5,5.8,13.1,10.1,18.7&#13;&#10;&#9;&#9;&#9;c-10.8,12.5-21.1,25.5-30.8,38.9c-5.9-6.3-9.9-13.8-13.4-21.9c-3.8-9-7.7-18-8.9-27.8c-0.2-1.4-2.1-1.1-2.1,0.2&#13;&#10;&#9;&#9;&#9;c0,10.9,4.5,21.2,8.7,31.1c1.5,3.6,3.3,7.1,5.2,10.4c-9.6-2.9-19.5-5.1-26.6-12.6c0.2-0.5,0.1-1.1-0.5-1.5c-0.7-0.5-1.3-0.8-2-1.2&#13;&#10;&#9;&#9;&#9;c-1.7-0.9-3.3,1.3-2.3,2.8c7.3,10.3,21.1,14.3,33.2,15.2c1.9,3,4.1,5.7,6.6,8.3c-4.8,6.7-9.5,13.5-14,20.4&#13;&#10;&#9;&#9;&#9;c-4.2,6.4-8.3,12.9-12.2,19.4c-4.1,6.8-9,13.9-11.9,21.3c-0.6,1.5,1.5,3,2.5,1.6c3.9-5.4,6.9-11.7,10.3-17.4&#13;&#10;&#9;&#9;&#9;c3.7-6.3,7.6-12.5,11.5-18.7c5.2-8.2,10.7-16.2,16.3-24.1c1,0.9,2,1.8,3.1,2.6c3.2,2.4,6.6,4.5,10.2,6.2c0,0,0,0.1,0,0.1&#13;&#10;&#9;&#9;&#9;c-0.3,5.8,1.1,11.5,3.7,16.7c2.1,4.2,6,11.1,10.7,12.7c1.5,0.5,2.7-0.9,1.9-2.3c-1.2-2.1-3.4-3.6-5-5.4c-1.6-1.9-3-4-4.2-6.2&#13;&#10;&#9;&#9;&#9;c-2.4-4.5-3.7-9.4-4.4-14.4c5,2,10.3,3.3,15.7,3.8c4.7,0.4,9.4,0.3,14-0.5c4.6-0.7,9.8-1.8,13.7-4.4c1.7-1.1,0.2-3.4-1.6-3&#13;&#10;&#9;&#9;&#9;c-4.6,1.1-8.8,3-13.6,3.7c-4.3,0.6-8.7,0.8-13,0.3c-10-1-19.4-5-27.2-11.3c-0.7-0.5-1.3-1.1-1.9-1.6c1.7-2.4,3.4-4.7,5.2-7.1&#13;&#10;&#9;&#9;&#9;c8.1-10.8,16.5-21.3,25.3-31.6c1,1.1,2,2.1,3.1,3c2.6,2.3,5.5,4,8.5,5.4c-1,2.7,1.4,6.9,2.4,9.2c1.8,4,4,7.8,6.7,11.2&#13;&#10;&#9;&#9;&#9;c2.6,3.3,5.6,6.3,8.9,8.9c2.9,2.3,7,5.7,10.8,6.1C261.8,159.7,262.5,157.9,261.4,156.8z" stroke-width="1"/>
        <path fill="#ED6C72" d="M291.9,51.7c2.4-4.7-0.5-9.9-5.3-11.4c-5-1.6-10.4,1.5-11,6.9c-0.2,1.7,0.3,3.4,1.2,4.8&#13;&#10;&#9;&#9;&#9;c0.7,1.6,1.8,3,3.4,3.9C284.5,58.3,289.8,55.9,291.9,51.7z" stroke-width="1"/>
        <path fill="#ED6C72" d="M270.2,41.6c-0.8-2.3-2.6-3.8-4.6-4.5c-0.1-0.1-0.2-0.2-0.3-0.3c-4.1-2.5-8.8,1.7-9.7,5.6&#13;&#10;&#9;&#9;&#9;c-1.1,4.9,2.3,10.1,7.6,10.1C268.8,52.5,272,46.5,270.2,41.6z" stroke-width="1"/>
        <path fill="#ED6C72" d="M244.2,44.9c-0.8-1.2-1.9-2-3-2.6c0.1-0.3-0.1-0.6-0.5-0.7c-5.6-1.8-11.5,1.5-11.5,7.8&#13;&#10;&#9;&#9;&#9;c0,5.9,5.5,9.9,11.1,7.9C245.5,55.3,247.4,49.4,244.2,44.9z" stroke-width="1"/>
        <path fill="#ED6C72" d="M226.7,79.3c1.9-4.2-0.7-9.4-5.1-10.5c-0.4-0.1-0.8-0.2-1.2-0.2c-3-2.2-7.4-0.6-8.9,2.8&#13;&#10;&#9;&#9;&#9;c-1.7,4,0.5,8.9,4.1,11C219.6,84.8,224.7,83.6,226.7,79.3z" stroke-width="1"/>
        <path fill="#ED6C72" d="M206,59.4c-1.1-1.2-2.4-2-3.9-2.4c-1.1-1-2.7-0.6-4.1,0.1c-1.5,0.5-2.9,1.5-3.8,3c0,0,0,0,0,0&#13;&#10;&#9;&#9;&#9;c-2.2,2.7-2.7,6.4-0.4,9.5c2.7,3.6,7.7,4.3,11.1,1.3C208.4,67.9,209,62.8,206,59.4z" stroke-width="1"/>
        <path fill="#ED6C72" d="M188.1,72.5c0.2-4.2-3.2-8-7.2-8.7c-4.2-0.8-8.4,2-9.8,6c-1.4,4.1,0.6,8.7,4.6,10.5&#13;&#10;&#9;&#9;&#9;c1.7,0.8,3.6,0.8,5.2,0.3C184.8,80.1,187.9,76.4,188.1,72.5z" stroke-width="1"/>
        <path fill="#ED6C72" d="M306.6,84.8c0.3-4-3.3-6.7-7-7.6c-4.3-2.6-9.5,0.9-10.4,5.5c-0.9,4.4,1.6,12.3,7.2,11.9&#13;&#10;&#9;&#9;&#9;C300.6,94.3,306.3,89.1,306.6,84.8z" stroke-width="1"/>
        <path fill="#ED6C72" d="M296.2,61.6c-0.6-1.4-1.6-2.3-2.6-2.8c0-0.4-0.2-0.7-0.6-1c-6.9-3.5-13.6,4.7-8.8,10.9&#13;&#10;&#9;&#9;&#9;C289.1,75,299.7,69,296.2,61.6z" stroke-width="1"/>
        <path fill="#ED6C72" d="M288.8,131.3c0.8-3.2-0.8-6.1-3.3-7.7c-2.5-1.8-5.7-2.2-8.5-0.4c-3.1,1.9-4.2,5.5-3,8.9&#13;&#10;&#9;&#9;&#9;C276.5,139.4,286.8,138.8,288.8,131.3z" stroke-width="1"/>
        <path fill="#ED6C72" d="M275.9,111.7c0.7-4.8-2.9-9.2-7.8-9.1c-4,0.1-7.3,3.2-7.6,7c-0.6,3.7,1.6,7.2,5.4,8.3&#13;&#10;&#9;&#9;&#9;C270.4,119.3,275.2,116.5,275.9,111.7z" stroke-width="1"/>
        <path fill="#ED6C72" d="M266.4,152.3c-1.1-1.4-2.6-2.3-4.3-2.6c-1.7-0.7-3.8-0.6-5.4,0.3c-3.7,2.1-5.5,7.2-3.4,11&#13;&#10;&#9;&#9;&#9;c2.1,3.8,7.6,5.2,11.3,3C268.7,161.6,269.2,155.8,266.4,152.3z" stroke-width="1"/>
        <path fill="#ED6C72" d="M250.2,162.3c-0.6-1.3-1.7-2.4-3-3.1c-1.3-1.7-3.5-2.8-5.8-2.8c-4.9,0.1-8,5-7.4,9.6&#13;&#10;&#9;&#9;&#9;c0.6,5,5.8,8.5,10.7,7.4C249.3,172.3,252.3,166.7,250.2,162.3z" stroke-width="1"/>
        <path fill="#ED6C72" d="M223.7,197.6c1-3.5-0.6-6.4-3.1-8.1c-1.1-2-3.7-2.9-6.2-2.2c-4,1.1-7.6,5.1-7,9.4c0.5,3.6,3.7,6.7,7.4,7.1&#13;&#10;&#9;&#9;&#9;C218.8,204.2,222.6,201.4,223.7,197.6z" stroke-width="1"/>
        <path fill="#ED6C72" d="M173,106.5c1.7-4.2-0.3-8.8-4.2-10.6c0-0.1-0.1-0.1-0.1-0.2c-3.8-4.3-9.9-1.6-12.1,3&#13;&#10;&#9;&#9;&#9;c-2.3,4.7-0.4,10.4,4.4,12.6C165.6,113.5,171.1,111.3,173,106.5z" stroke-width="1"/>
        <path fill="#ED6C72" d="M155.7,123.3c-1.9-3.1-5.5-4.7-9-3.6c-2.8,0.3-5.3,2-6.6,4.6c-1.8,3.7-0.4,8.2,2.8,10.7&#13;&#10;&#9;&#9;&#9;C150.5,140.7,160.7,131.2,155.7,123.3z" stroke-width="1"/>
      </g>
      <g>
        <path fill="#95C122" d="M39.7,259.6c-3.5,8.7-5.2,18-5,27.3c0,0.4,0.1,0.7,0.3,1c-0.1,0-0.3,0-0.4,0c-1.4,0-1.5,2.1-0.1,2.2&#13;&#10;&#9;&#9;&#9;c18.3,2.1,35.7-7.4,50.3-17.4c16.2-11.2,30.4-26.1,37.3-44.8c3.4-9.3,4.9-19.2,3.9-29.2c-0.1-1-1.3-1.6-2.2-1.4&#13;&#10;&#9;&#9;&#9;C89.1,206.1,53.7,224.4,39.7,259.6z" stroke-width="1"/>
      </g>
      <g>
        <path fill="#683D14" d="M125.8,206.5c8.3,3.2,16.9,5.8,25.5,7.7c-0.1,0.2-0.1,0.4,0,0.6c9.8,11.7,22.4,21.3,35.5,29&#13;&#10;&#9;&#9;&#9;c13.2,7.7,27.6,13.8,42.7,17c1.2,0.3,1.7-1.6,0.5-1.9c-14.6-4.1-28.8-9.6-42-17.2c-13.2-7.6-24.7-17-35.8-27.3&#13;&#10;&#9;&#9;&#9;c0.6,0.1,1.1,0.3,1.7,0.4c18.9,3.9,38.3,4.8,57.5,2.6c10.8-1.2,21.5-3.4,31.8-7c0.5-0.2,0.3-1-0.2-0.9&#13;&#10;&#9;&#9;&#9;c-18.6,4.7-37.4,7.3-56.6,6.7c-19-0.6-38-4.2-55.9-10.6c-5-1.8-10-3.8-14.9-6.1c-5-2.3-9.7-5.1-14.7-7.4c-1.2-0.5-2,1-1,1.7&#13;&#10;&#9;&#9;&#9;C107.5,199.4,117,203.2,125.8,206.5z" stroke-width="1"/>
        <g>
          <path fill="#95C122" d="M269.4,203c2-2.2,3.5-4.7,4.4-7.5c0-0.1,0-0.2,0-0.3c0,0,0.1,0,0.1,0c0.4,0.2,0.7-0.4,0.3-0.6&#13;&#10;&#9;&#9;&#9;&#9;c-5.1-2.6-11.3-1.8-16.6-0.4c-6,1.5-11.7,4.3-15.8,9c-2,2.4-3.5,5.1-4.3,8.1c-0.1,0.3,0.2,0.6,0.5,0.7&#13;&#10;&#9;&#9;&#9;&#9;C249.1,213.2,261.4,211.7,269.4,203z" stroke-width="1"/>
        </g>
        <g>
          <path fill="#95C122" d="M255.3,268.5c2.8-0.7,5.5-2,7.8-3.8c0.1-0.1,0.2-0.2,0.2-0.3c0,0,0.1,0.1,0.1,0.1c0.3,0.4,0.8,0,0.6-0.4&#13;&#10;&#9;&#9;&#9;&#9;c-2.9-5-8.5-7.6-13.7-9.4c-5.8-2-12.2-2.8-18.2-1c-3,0.9-5.7,2.4-8,4.4c-0.2,0.2-0.2,0.6,0,0.8&#13;&#10;&#9;&#9;&#9;&#9;C232.7,266,243.9,271.5,255.3,268.5z" stroke-width="1"/>
        </g>
        <g>
          <path fill="#95C122" d="M247,234.3c2.9,0.3,5.8-0.1,8.6-1c0.1,0,0.2-0.1,0.3-0.2c0,0,0,0.1,0,0.1c0.1,0.4,0.8,0.3,0.7-0.2&#13;&#10;&#9;&#9;&#9;&#9;c-1-5.7-5.4-10-9.7-13.5c-4.8-3.9-10.5-6.8-16.7-7.2c-3.1-0.2-6.2,0.3-9.1,1.4c-0.3,0.1-0.4,0.5-0.2,0.8&#13;&#10;&#9;&#9;&#9;&#9;C226.6,224.4,235.3,233.3,247,234.3z" stroke-width="1"/>
        </g>
        <g>
          <path fill="#95C122" d="M218.9,239.6c2.9,0.3,5.8-0.1,8.6-1c0.1,0,0.2-0.1,0.3-0.2c0,0,0,0.1,0,0.1c0.1,0.4,0.8,0.3,0.7-0.2&#13;&#10;&#9;&#9;&#9;&#9;c-1-5.7-5.4-10-9.7-13.5c-4.8-3.9-10.5-6.8-16.7-7.2c-3.1-0.2-6.2,0.3-9.1,1.4c-0.3,0.1-0.4,0.5-0.2,0.8&#13;&#10;&#9;&#9;&#9;&#9;C198.5,229.6,207.2,238.6,218.9,239.6z" stroke-width="1"/>
        </g>
        <g>
          <path fill="#95C122" d="M239.9,247.6c2.2-1.9,4-4.3,5.2-6.9c0.1-0.1,0.1-0.2,0.1-0.3c0,0,0.1,0,0.1,0.1c0.4,0.2,0.7-0.4,0.3-0.6&#13;&#10;&#9;&#9;&#9;&#9;c-4.8-3.2-11-3-16.5-2.2c-6.1,0.8-12.1,3-16.7,7.2c-2.3,2.1-4.1,4.7-5.2,7.6c-0.1,0.3,0.1,0.6,0.4,0.7&#13;&#10;&#9;&#9;&#9;&#9;C218.6,255.5,231,255.4,239.9,247.6z" stroke-width="1"/>
        </g>
        <g>
          <path fill="#95C122" d="M202.9,226.6c2.2-1.9,4-4.3,5.2-6.9c0.1-0.1,0.1-0.2,0.1-0.3c0,0,0.1,0,0.1,0.1c0.4,0.2,0.7-0.4,0.3-0.6&#13;&#10;&#9;&#9;&#9;&#9;c-4.8-3.2-11-3-16.5-2.2c-6.1,0.8-12.1,3-16.7,7.2c-2.3,2.1-4.1,4.7-5.2,7.6c-0.1,0.3,0.1,0.6,0.4,0.7&#13;&#10;&#9;&#9;&#9;&#9;C181.6,234.6,194,234.4,202.9,226.6z" stroke-width="1"/>
        </g>
        <g>
          <path fill="#95C122" d="M231.8,193.7c0.8-2.8,1-5.8,0.6-8.7c0-0.1-0.1-0.2-0.1-0.3c0,0,0.1,0,0.1,0c0.4,0,0.4-0.7,0-0.7&#13;&#10;&#9;&#9;&#9;&#9;c-5.8,0-10.8,3.6-15,7.2c-4.6,4-8.5,9.2-10,15.2c-0.7,3-0.8,6.1-0.2,9.2c0.1,0.3,0.5,0.5,0.7,0.4&#13;&#10;&#9;&#9;&#9;&#9;C218.3,212,228.7,205.1,231.8,193.7z" stroke-width="1"/>
        </g>
        <g>
          <path fill="#95C122" d="M200.7,193.8c0.8-2.8,1-5.8,0.6-8.7c0-0.1-0.1-0.2-0.1-0.3c0,0,0.1,0,0.1,0c0.4,0,0.4-0.7,0-0.7&#13;&#10;&#9;&#9;&#9;&#9;c-5.8,0-10.8,3.6-15,7.2c-4.6,4-8.5,9.2-10,15.2c-0.7,3-0.8,6.1-0.2,9.2c0.1,0.3,0.5,0.5,0.7,0.4&#13;&#10;&#9;&#9;&#9;&#9;C187.3,212.2,197.6,205.3,200.7,193.8z" stroke-width="1"/>
          <path fill="#70912C" d="M193.6,203.8c0.2-0.3-0.1-0.9-0.5-0.6c-2.2,1.7-4.4,0.1-5.7-1.9c-0.1-0.2-0.3-0.4-0.4-0.6&#13;&#10;&#9;&#9;&#9;&#9;c0.2-0.2,0.4-0.5,0.7-0.7c0.9-0.9,1.8-1.8,2.7-2.7c0.3,0.3,0.6,0.6,1,0.8c1.5,0.8,4.1,0.7,4.7-1.2c0.1-0.3-0.3-0.4-0.5-0.3&#13;&#10;&#9;&#9;&#9;&#9;c-1.2,1.2-2.8,1.7-4.3,0.6c-0.2-0.1-0.3-0.3-0.5-0.4c1.5-1.5,3.1-2.9,4.5-4.5c0.1,0.2,0.3,0.4,0.4,0.6c1,1.1,3.1,1.5,4,0&#13;&#10;&#9;&#9;&#9;&#9;c0.1-0.2-0.2-0.5-0.4-0.4c-1.3,1-2.8,0.6-3.5-0.7c1.7-1.8,3.3-3.7,4.5-5.9c0.2-0.3-0.3-0.6-0.5-0.3c-1.3,2-2.7,3.7-4.3,5.4&#13;&#10;&#9;&#9;&#9;&#9;c-0.3-1.1-0.1-2.3,0.1-3.4c0.1-0.3-0.4-0.4-0.5-0.1c-0.3,1.3-0.6,2.8-0.1,4.1c-1.5,1.6-3.1,3.1-4.6,4.6c-0.6-1.1-0.7-2.4-0.6-3.6&#13;&#10;&#9;&#9;&#9;&#9;c0-0.3-0.4-0.4-0.4-0.1c-0.3,1.4-0.2,3,0.6,4.2c-1.1,1.1-2.2,2.2-3.3,3.4c-0.2-0.5-0.4-1-0.6-1.5c-0.2-0.6-0.3-1.2-0.4-1.8&#13;&#10;&#9;&#9;&#9;&#9;c0-0.1,0-0.6-0.1-0.9c0,0,0,0,0,0c0,0,0,0,0,0c0,0,0.1-0.1,0.1-0.2c0-0.1,0-0.2-0.2-0.3c-0.1,0-0.1,0-0.2,0c-0.7,0.5-0.1,2.3,0,3&#13;&#10;&#9;&#9;&#9;&#9;c0.2,0.7,0.4,1.5,0.8,2.1c-1.1,1.2-2.2,2.5-3.2,3.9c-0.8-1.2-1.1-2.5-1.1-3.9c0.1,0,0.1,0,0.2,0.1c0.2,0.1,0.3-0.1,0.2-0.3&#13;&#10;&#9;&#9;&#9;&#9;c-0.1-0.1-0.3-0.3-0.4-0.4c-0.1-0.1-0.4-0.1-0.4,0.1c-0.2,1.7,0.2,3.5,1.2,5c-1,1.3-1.9,2.7-2.8,4.1c-0.7-0.9-0.9-2.1-0.7-3.2&#13;&#10;&#9;&#9;&#9;&#9;c0-0.3-0.3-0.3-0.4-0.1c-0.4,1.3-0.1,2.8,0.7,3.8c-0.5,0.8-0.9,1.6-1.3,2.4c-0.8-0.4-1.3-1.2-1.4-2.3c0-0.2-0.4-0.2-0.4,0&#13;&#10;&#9;&#9;&#9;&#9;c0,1.2,0.6,2.2,1.5,2.8c-0.5,1-1.1,2.1-1.5,3.2c-0.1,0.2,0.2,0.4,0.4,0.2c0.6-1,1.2-2.1,1.8-3.1c0.7,0.2,1.5,0.3,2.2-0.1&#13;&#10;&#9;&#9;&#9;&#9;c0.3-0.1,0.2-0.6-0.2-0.5c-0.6,0.2-1.2,0.2-1.8,0c0.4-0.7,0.8-1.4,1.2-2c0.9,0.7,2.2,1.2,3.3,0.9c0.2-0.1,0.2-0.5,0-0.5&#13;&#10;&#9;&#9;&#9;&#9;c-1.1-0.2-2.1-0.2-2.9-0.9c0.9-1.4,1.8-2.7,2.7-4c0.1,0.1,0.2,0.2,0.3,0.4c1.3,1.3,3.6,2.1,5,0.5c0.2-0.3-0.1-0.7-0.4-0.5&#13;&#10;&#9;&#9;&#9;&#9;c-1.6,1.2-3.3,0.4-4.5-1c1-1.3,2-2.6,3.1-3.8c0.2,0.4,0.4,0.7,0.7,1.1C188.4,204.1,191.8,206.3,193.6,203.8z" stroke-width="1"/>
        </g>
        <g>
          <path fill="#95C122" d="M170.7,192.2c1.2-2.7,1.9-5.5,2-8.5c0-0.1,0-0.2-0.1-0.3c0,0,0.1,0,0.1,0c0.4,0,0.5-0.6,0.1-0.7&#13;&#10;&#9;&#9;&#9;&#9;c-5.7-0.9-11.3,1.8-16,4.7c-5.2,3.2-9.9,7.7-12.3,13.4c-1.2,2.9-1.8,5.9-1.7,9c0,0.3,0.4,0.5,0.6,0.5&#13;&#10;&#9;&#9;&#9;&#9;C154.5,208.2,165.8,203,170.7,192.2z" stroke-width="1"/>
          <path fill="#70912C" d="M162,200.9c0.3-0.3,0-0.9-0.4-0.7c-2.5,1.3-4.4-0.7-5.3-2.8c-0.1-0.2-0.2-0.4-0.3-0.7&#13;&#10;&#9;&#9;&#9;&#9;c0.3-0.2,0.5-0.4,0.8-0.6c1-0.8,2-1.5,3.1-2.2c0.2,0.4,0.5,0.7,0.9,1c1.3,1.1,4,1.3,4.8-0.4c0.1-0.3-0.2-0.5-0.5-0.3&#13;&#10;&#9;&#9;&#9;&#9;c-1.3,1-3,1.2-4.3-0.1c-0.1-0.2-0.3-0.3-0.4-0.5c1.7-1.2,3.5-2.4,5.2-3.7c0.1,0.2,0.2,0.4,0.3,0.6c0.8,1.3,2.9,2,4,0.7&#13;&#10;&#9;&#9;&#9;&#9;c0.2-0.2-0.1-0.6-0.4-0.4c-1.4,0.7-2.8,0.2-3.4-1.3c2-1.5,3.8-3.2,5.4-5.1c0.2-0.3-0.2-0.6-0.5-0.3c-1.6,1.7-3.3,3.2-5.1,4.6&#13;&#10;&#9;&#9;&#9;&#9;c-0.1-1.2,0.3-2.3,0.6-3.4c0.1-0.3-0.3-0.5-0.5-0.2c-0.5,1.2-1,2.7-0.8,4c-1.7,1.3-3.5,2.5-5.3,3.8c-0.4-1.2-0.3-2.5,0-3.7&#13;&#10;&#9;&#9;&#9;&#9;c0.1-0.3-0.3-0.4-0.4-0.2c-0.5,1.3-0.6,2.9-0.1,4.3c-1.3,0.9-2.5,1.8-3.8,2.8c-0.1-0.5-0.3-1-0.3-1.5c-0.1-0.6-0.1-1.2-0.1-1.8&#13;&#10;&#9;&#9;&#9;&#9;c0-0.1,0-0.6,0-0.9c0,0,0,0,0,0c0,0,0,0,0.1,0c0.1,0,0.1-0.1,0.1-0.1c0-0.1,0-0.2-0.1-0.3c-0.1,0-0.1,0-0.2,0&#13;&#10;&#9;&#9;&#9;&#9;c-0.7,0.4-0.5,2.2-0.5,2.9c0.1,0.8,0.2,1.5,0.4,2.2c-1.3,1-2.6,2.1-3.8,3.3c-0.5-1.3-0.6-2.7-0.5-4.1c0.1,0,0.1,0.1,0.2,0.1&#13;&#10;&#9;&#9;&#9;&#9;c0.1,0.1,0.3-0.1,0.2-0.2c-0.1-0.2-0.2-0.3-0.4-0.5c-0.1-0.1-0.4-0.1-0.4,0.1c-0.5,1.7-0.3,3.5,0.4,5.1c-1.2,1.1-2.3,2.3-3.4,3.6&#13;&#10;&#9;&#9;&#9;&#9;c-0.6-1-0.5-2.2-0.2-3.3c0.1-0.2-0.3-0.4-0.4-0.1c-0.6,1.2-0.5,2.7,0.1,3.9c-0.6,0.7-1.2,1.4-1.7,2.1c-0.7-0.6-1.1-1.4-1-2.5&#13;&#10;&#9;&#9;&#9;&#9;c0-0.2-0.3-0.3-0.4,0c-0.2,1.2,0.2,2.3,1,3c-0.7,0.9-1.4,1.9-2,2.9c-0.1,0.2,0.2,0.5,0.3,0.2c0.7-0.9,1.5-1.8,2.2-2.7&#13;&#10;&#9;&#9;&#9;&#9;c0.6,0.4,1.4,0.5,2.2,0.3c0.3-0.1,0.2-0.5-0.1-0.5c-0.6,0.1-1.2,0-1.7-0.3c0.5-0.6,1-1.2,1.6-1.8c0.8,0.9,1.9,1.6,3.1,1.4&#13;&#10;&#9;&#9;&#9;&#9;c0.2,0,0.3-0.4,0.1-0.5c-1.1-0.3-2-0.6-2.7-1.4c1.1-1.2,2.2-2.4,3.3-3.5c0.1,0.1,0.2,0.3,0.3,0.4c1.1,1.5,3.2,2.6,4.9,1.3&#13;&#10;&#9;&#9;&#9;&#9;c0.3-0.2,0-0.7-0.3-0.6c-1.8,1-3.4-0.1-4.3-1.7c1.2-1.1,2.4-2.2,3.7-3.3c0.1,0.4,0.3,0.8,0.5,1.2&#13;&#10;&#9;&#9;&#9;&#9;C156.9,200.3,159.8,203,162,200.9z" stroke-width="1"/>
        </g>
        <g>
          <path fill="#95C122" d="M203.8,282.2c1.8,2.3,4,4.3,6.6,5.7c0.1,0.1,0.2,0.1,0.3,0.1c0,0,0,0.1-0.1,0.1c-0.2,0.4,0.3,0.7,0.6,0.4&#13;&#10;&#9;&#9;&#9;&#9;c3.5-4.6,3.7-10.8,3.3-16.3c-0.4-6.1-2.2-12.3-6.1-17.2c-2-2.4-4.4-4.4-7.2-5.7c-0.3-0.1-0.6,0.1-0.7,0.4&#13;&#10;&#9;&#9;&#9;&#9;C197.3,260.4,196.6,272.8,203.8,282.2z" stroke-width="1"/>
        </g>
        <g>
          <path fill="#95C122" d="M176.3,267.8c1.8,2.3,4,4.3,6.6,5.7c0.1,0.1,0.2,0.1,0.3,0.1c0,0,0,0.1-0.1,0.1c-0.2,0.4,0.3,0.7,0.6,0.4&#13;&#10;&#9;&#9;&#9;&#9;c3.5-4.6,3.7-10.8,3.3-16.3c-0.4-6.1-2.2-12.3-6.1-17.2c-2-2.4-4.4-4.4-7.2-5.7c-0.3-0.1-0.6,0.1-0.7,0.4&#13;&#10;&#9;&#9;&#9;&#9;C169.8,246,169.1,258.5,176.3,267.8z" stroke-width="1"/>
        </g>
        <g>
          <path fill="#95C122" d="M137.3,241.3c1.8,2.3,4,4.3,6.6,5.7c0.1,0.1,0.2,0.1,0.3,0.1c0,0,0,0.1-0.1,0.1c-0.2,0.4,0.3,0.7,0.6,0.4&#13;&#10;&#9;&#9;&#9;&#9;c3.5-4.6,3.7-10.8,3.3-16.3c-0.4-6.1-2.2-12.3-6.1-17.2c-2-2.4-4.4-4.4-7.2-5.7c-0.3-0.1-0.6,0.1-0.7,0.4&#13;&#10;&#9;&#9;&#9;&#9;C130.8,219.5,130,231.9,137.3,241.3z" stroke-width="1"/>
          <path fill="#70912C" d="M133.7,229.5c0.1,0.4,0.8,0.4,0.8,0c0-2.8,2.6-3.5,5-3.4c0.2,0,0.5,0,0.7,0.1c0.1,0.3,0.1,0.6,0.2,1&#13;&#10;&#9;&#9;&#9;&#9;c0.2,1.2,0.4,2.5,0.5,3.8c-0.4,0-0.9,0.1-1.3,0.3c-1.6,0.7-3,2.9-1.9,4.5c0.2,0.3,0.5,0,0.5-0.3c-0.2-1.6,0.3-3.3,2.1-3.7&#13;&#10;&#9;&#9;&#9;&#9;c0.2-0.1,0.4-0.1,0.6-0.1c0.3,2.1,0.5,4.2,0.8,6.3c-0.2,0-0.5,0-0.7,0c-1.5,0.1-3.1,1.6-2.4,3.2c0.1,0.3,0.5,0.2,0.6-0.1&#13;&#10;&#9;&#9;&#9;&#9;c0-1.6,1.2-2.6,2.7-2.4c0.4,2.4,1,4.9,2,7.2c0.1,0.4,0.7,0.1,0.5-0.3c-0.8-2.2-1.3-4.4-1.7-6.7c1.1,0.4,1.9,1.3,2.7,2.1&#13;&#10;&#9;&#9;&#9;&#9;c0.2,0.2,0.6-0.1,0.4-0.3c-0.8-1.1-1.9-2.1-3.2-2.6c-0.3-2.1-0.6-4.3-0.9-6.5c1.2,0.1,2.4,0.9,3.3,1.7c0.2,0.2,0.5-0.1,0.3-0.3&#13;&#10;&#9;&#9;&#9;&#9;c-0.9-1.1-2.3-1.9-3.7-2.1c-0.2-1.5-0.4-3.1-0.7-4.6c0.5,0.1,1,0.3,1.5,0.4c0.6,0.2,1.1,0.5,1.6,0.8c0,0,0.5,0.3,0.8,0.4&#13;&#10;&#9;&#9;&#9;&#9;c0,0,0,0,0,0c0,0,0,0,0,0.1c0,0.1,0,0.1,0.1,0.2c0.1,0.1,0.2,0.1,0.3,0c0.1,0,0.1-0.1,0.1-0.2c0-0.8-1.7-1.5-2.4-1.8&#13;&#10;&#9;&#9;&#9;&#9;c-0.7-0.3-1.4-0.5-2.2-0.7c-0.3-1.6-0.7-3.3-1.1-4.9c1.4,0.1,2.7,0.7,3.8,1.5c-0.1,0-0.1,0.1-0.2,0.1c-0.1,0.1-0.1,0.3,0.1,0.3&#13;&#10;&#9;&#9;&#9;&#9;c0.2,0,0.4-0.1,0.6-0.1c0.2,0,0.3-0.3,0.1-0.4c-1.2-1.2-3-1.9-4.7-2.1c-0.5-1.6-1-3.2-1.6-4.7c1.2,0,2.2,0.6,3,1.4&#13;&#10;&#9;&#9;&#9;&#9;c0.2,0.2,0.4-0.1,0.3-0.3c-0.8-1.1-2.1-1.8-3.5-1.7c-0.3-0.8-0.7-1.7-1.1-2.5c0.8-0.3,1.8-0.3,2.7,0.3c0.2,0.1,0.4-0.2,0.2-0.3&#13;&#10;&#9;&#9;&#9;&#9;c-0.9-0.7-2.1-0.9-3.1-0.5c-0.5-1.1-1.1-2.1-1.6-3.1c-0.1-0.2-0.5-0.1-0.4,0.2c0.5,1.1,0.9,2.2,1.4,3.3c-0.6,0.4-1.1,1-1.3,1.8&#13;&#10;&#9;&#9;&#9;&#9;c-0.1,0.3,0.4,0.5,0.5,0.2c0.2-0.6,0.6-1.1,1-1.4c0.3,0.7,0.6,1.5,0.9,2.2c-1.1,0.3-2.3,1-2.7,2.1c-0.1,0.2,0.2,0.5,0.4,0.3&#13;&#10;&#9;&#9;&#9;&#9;c0.8-0.8,1.4-1.5,2.5-1.8c0.6,1.5,1.1,3.1,1.6,4.6c-0.2,0-0.3,0-0.5,0c-1.8,0.2-3.8,1.6-3.4,3.7c0.1,0.4,0.7,0.3,0.7,0&#13;&#10;&#9;&#9;&#9;&#9;c0-2,1.7-2.9,3.5-3c0.5,1.6,0.9,3.2,1.2,4.8c-0.4-0.1-0.8-0.1-1.3-0.1C136.5,225.3,132.8,226.6,133.7,229.5z" stroke-width="1"/>
        </g>
      </g>
      <g>
        <g>
          <path fill="#3DAA35" d="M104.3,36.3c-3.2-1.1-6.6-1.8-10-2c-0.4,0-0.6,0.3-0.6,0.6c-0.2-0.1-0.5,0.1-0.4,0.4c1,6,3,12.2,6.8,17.1&#13;&#10;&#9;&#9;&#9;&#9;c1.7,2.2,3.9,4.2,6.4,5.6c2.4,1.3,4.9,2,7.6,2.2c3,0.3,6.4,0.3,8.9,2.3c0.5,0.4,1.3-0.1,0.9-0.7c-1.7-2.4-1.6-5.3-1.9-8&#13;&#10;&#9;&#9;&#9;&#9;c-0.3-2.9-1.3-5.4-3-7.7C115.4,41.4,109.8,38.2,104.3,36.3z" stroke-width="1"/>
        </g>
        <g>
          <path fill="#3DAA35" d="M100.9,70.8c-3.3-0.9-6.7-1.3-10.1-1.2c-0.4,0-0.5,0.3-0.5,0.6c-0.2-0.1-0.5,0.1-0.4,0.4&#13;&#10;&#9;&#9;&#9;&#9;c1.5,6,3.9,11.9,8.1,16.5c1.9,2.1,4.2,3.9,6.8,5.1c2.5,1.2,5.1,1.6,7.8,1.7c3,0.1,6.4-0.2,9,1.6c0.5,0.3,1.3-0.2,0.9-0.8&#13;&#10;&#9;&#9;&#9;&#9;c-1.9-2.2-2-5.2-2.5-7.9c-0.5-2.8-1.7-5.3-3.6-7.5C112.3,75,106.5,72.3,100.9,70.8z" stroke-width="1"/>
        </g>
        <g>
          <path fill="#3DAA35" d="M147.8,53.7c0.8-3.3,1.1-6.7,1-10.2c0-0.4-0.3-0.5-0.6-0.5c0.1-0.2-0.1-0.5-0.4-0.4&#13;&#10;&#9;&#9;&#9;&#9;c-5.9,1.6-11.8,4.1-16.4,8.4c-2.1,1.9-3.8,4.3-5,6.9c-1.1,2.5-1.5,5.1-1.5,7.8c0,3,0.3,6.4-1.5,9c-0.3,0.5,0.2,1.3,0.8,0.9&#13;&#10;&#9;&#9;&#9;&#9;c2.2-1.9,5.1-2.1,7.8-2.6c2.8-0.6,5.3-1.8,7.4-3.7C143.8,65.3,146.4,59.4,147.8,53.7z" stroke-width="1"/>
        </g>
        <g>
          <path fill="#3DAA35" d="M7.5,196.7c-2,2.7-3.7,5.8-4.9,9c-0.1,0.4,0.1,0.6,0.4,0.7c-0.1,0.2-0.1,0.5,0.2,0.5&#13;&#10;&#9;&#9;&#9;&#9;c6.1,0.8,12.5,0.8,18.3-1.3c2.7-1,5.2-2.4,7.3-4.4c2-1.9,3.4-4.1,4.5-6.6c1.2-2.8,2.2-6,4.9-7.7c0.5-0.3,0.3-1.3-0.4-1.1&#13;&#10;&#9;&#9;&#9;&#9;c-2.8,0.9-5.5-0.1-8.2-0.7c-2.8-0.6-5.6-0.4-8.3,0.5C15.7,187.7,10.9,192,7.5,196.7z" stroke-width="1"/>
        </g>
        <g>
          <path fill="#3DAA35" d="M140.8,12c-0.7-3.4-1.8-6.6-3.3-9.6c-0.2-0.3-0.5-0.4-0.8-0.2c0-0.2-0.3-0.4-0.6-0.2&#13;&#10;&#9;&#9;&#9;&#9;c-4.7,3.9-9,8.7-11.4,14.5c-1.1,2.6-1.7,5.5-1.7,8.3c0,2.7,0.8,5.2,1.9,7.7c1.2,2.8,2.9,5.7,2.4,8.8c-0.1,0.6,0.8,1.1,1.1,0.5&#13;&#10;&#9;&#9;&#9;&#9;c1.2-2.6,3.8-4,6-5.7c2.3-1.7,4-3.9,5.2-6.5C142,24.2,141.9,17.7,140.8,12z" stroke-width="1"/>
        </g>
        <g>
          <path fill="#3DAA35" d="M31.8,154.4c-3.2-1.1-6.6-1.8-10-2c-0.4,0-0.6,0.3-0.6,0.6c-0.2-0.1-0.5,0.1-0.4,0.4c1,6,3,12.2,6.8,17.1&#13;&#10;&#9;&#9;&#9;&#9;c1.7,2.2,3.9,4.2,6.4,5.6c2.4,1.3,4.9,2,7.6,2.2c3,0.3,6.4,0.3,8.9,2.3c0.5,0.4,1.3-0.1,0.9-0.7c-1.7-2.4-1.6-5.3-1.9-8&#13;&#10;&#9;&#9;&#9;&#9;c-0.3-2.9-1.3-5.4-3-7.7C42.9,159.4,37.3,156.2,31.8,154.4z" stroke-width="1"/>
        </g>
        <g>
          <path fill="#3DAA35" d="M59.1,150.2c-3.2-1.1-6.6-1.8-10-2c-0.4,0-0.6,0.3-0.6,0.6c-0.2-0.1-0.5,0.1-0.4,0.4c1,6,3,12.2,6.8,17.1&#13;&#10;&#9;&#9;&#9;&#9;c1.7,2.2,3.9,4.2,6.4,5.6c2.4,1.3,4.9,2,7.6,2.2c3,0.3,6.4,0.3,8.9,2.3c0.5,0.4,1.3-0.1,0.9-0.7c-1.7-2.4-1.6-5.3-1.9-8&#13;&#10;&#9;&#9;&#9;&#9;c-0.3-2.9-1.3-5.4-3-7.7C70.2,155.3,64.6,152.1,59.1,150.2z" stroke-width="1"/>
        </g>
        <g>
          <path fill="#3DAA35" d="M41.2,199.2c-1,3.3-1.6,6.7-1.7,10.1c0,0.4,0.3,0.6,0.6,0.5c-0.1,0.2,0.1,0.5,0.4,0.4&#13;&#10;&#9;&#9;&#9;&#9;c6-1.2,12.1-3.4,16.9-7.3c2.2-1.8,4.1-4,5.4-6.5c1.3-2.4,1.8-5,2-7.7c0.2-3,0.1-6.4,2-8.9c0.3-0.5-0.1-1.3-0.7-0.9&#13;&#10;&#9;&#9;&#9;&#9;c-2.3,1.7-5.2,1.7-8,2.1c-2.9,0.4-5.4,1.5-7.7,3.3C45.9,187.9,42.9,193.6,41.2,199.2z" stroke-width="1"/>
        </g>
        <g>
          <path fill="#3DAA35" d="M72.3,197.6c-1,3.3-1.6,6.7-1.7,10.1c0,0.4,0.3,0.6,0.6,0.5c-0.1,0.2,0.1,0.5,0.4,0.4&#13;&#10;&#9;&#9;&#9;&#9;c6-1.2,12.1-3.4,16.9-7.3c2.2-1.8,4.1-4,5.4-6.5c1.3-2.4,1.8-5,2-7.7c0.2-3,0.1-6.4,2-8.9c0.3-0.5-0.1-1.3-0.7-0.9&#13;&#10;&#9;&#9;&#9;&#9;c-2.3,1.7-5.2,1.7-8,2.1c-2.9,0.4-5.4,1.5-7.7,3.3C77,186.3,74,192,72.3,197.6z" stroke-width="1"/>
          <path fill="#65B65E" d="M80.4,186.8c0.1,0.1,0.2,0.2,0.3,0.2c0.1,0,0.3,0,0.3-0.2l0-0.1c0.3,0.1,0.6,0.1,0.7,0.1&#13;&#10;&#9;&#9;&#9;&#9;c0.4,0,0.8,0,1.2,0c0.8,0,1.6,0,2.4,0.1c1.4,0,2.8,0.1,4.2,0.1c-0.9,1.1-1.9,2.3-2.8,3.4c-0.1-0.1-0.2-0.2-0.3-0.2&#13;&#10;&#9;&#9;&#9;&#9;c-3.8,0.3-7.6,0.8-11.3,1.6c-0.5,0.1-0.3,0.8,0.2,0.7c3.6-0.6,7.2-1.2,10.8-1.6c0,0,0,0.1,0,0.1c-0.4,0.5-0.8,1-1.3,1.5l-1.3,1.5&#13;&#10;&#9;&#9;&#9;&#9;c-0.1-0.1-0.3-0.2-0.4-0.2c-3.1,0.7-6.3,1.4-9.3,2.3c-0.5,0.1-0.3,0.8,0.2,0.7c3-0.6,5.9-1.4,8.8-2.1c0,0,0,0.1,0,0.1&#13;&#10;&#9;&#9;&#9;&#9;c-1.5,1.8-3,3.6-4.5,5.4c-0.1,0.1-0.1,0.1-0.2,0.2c-0.1,0-0.1,0-0.2,0c-1.1,0.4-2.1,0.7-3.2,0.9c-1,0.2-2.3,0.3-3.3,0.7&#13;&#10;&#9;&#9;&#9;&#9;c-0.2,0.1-0.3,0.5,0,0.5c1,0.2,2.1-0.2,3.1-0.4c0.9-0.2,1.8-0.4,2.6-0.7c-1.8,2.1-3.5,4.1-5.6,5.9c-0.2,0.2,0.1,0.6,0.4,0.4&#13;&#10;&#9;&#9;&#9;&#9;c2.2-1.6,4-3.8,5.7-5.9c0,1.1,0,2.2,0.2,3.3c0,0.1,0.2,0.1,0.2,0c0.3-1.3,0.3-2.8,0.3-4.2c0.1-0.1,0.1-0.2,0.2-0.2l4.2-5.1&#13;&#10;&#9;&#9;&#9;&#9;c0.1,0.8,0.1,1.6,0.2,2.4c0.1,1.2,0.1,2.4,0.4,3.6c0,0.2,0.4,0.2,0.4,0c0.1-1.2,0-2.4-0.1-3.6c0-1.1-0.1-2.2-0.2-3.2l1.6-2&#13;&#10;&#9;&#9;&#9;&#9;c0.3-0.4,0.6-0.7,0.9-1.1c0.4,2.6,0.9,5.2,1.6,7.7c0.1,0.2,0.4,0.1,0.4-0.1c-0.5-2.8-1-5.5-1.3-8.4c1-1.2,2.1-2.5,3.1-3.7&#13;&#10;&#9;&#9;&#9;&#9;c0.4,2.3,0.8,4.7,1.3,7c0.1,0.3,0.5,0.2,0.5-0.1c-0.4-2.5-0.8-5.1-1.1-7.6c0.4-0.5,0.8-0.9,1.2-1.4c0.6-0.7,1.1-1.4,1.7-2&#13;&#10;&#9;&#9;&#9;&#9;c0.2,1.8,0.4,3.5,0.4,5.3c0,0.3,0.4,0.3,0.4,0c0.1-2,0-4-0.2-6c0.4-0.4,0.7-0.9,1.1-1.3c1-1.3,2.1-2.5,3-3.9&#13;&#10;&#9;&#9;&#9;&#9;c0.1-0.2-0.1-0.3-0.3-0.2c-1.3,1.2-2.3,2.6-3.4,3.9c-0.2,0.2-0.4,0.4-0.6,0.7c-0.1,0-0.1-0.1-0.2-0.1c-2.1,0.2-4.2,0.3-6.3,0.3&#13;&#10;&#9;&#9;&#9;&#9;c-0.5,0-0.5,0.7,0,0.8c2,0.1,4,0,5.9-0.3c-0.7,0.8-1.3,1.6-2,2.4c-0.4,0.5-0.8,0.9-1.1,1.4c-1.9-0.1-3.7-0.1-5.6-0.2&#13;&#10;&#9;&#9;&#9;&#9;c-0.9,0-1.9-0.1-2.8-0.1c-0.4,0-1-0.2-1.3,0.2C80.4,186.5,80.4,186.7,80.4,186.8z" stroke-width="1"/>
        </g>
        <g>
          <path fill="#3DAA35" d="M109.2,206.6c-1,3.3-1.6,6.7-1.7,10.1c0,0.4,0.3,0.6,0.6,0.5c-0.1,0.2,0.1,0.5,0.4,0.4&#13;&#10;&#9;&#9;&#9;&#9;c6-1.2,12.1-3.4,16.9-7.3c2.2-1.8,4.1-4,5.4-6.5c1.3-2.4,1.8-5,2-7.7c0.2-3,0.1-6.4,2-8.9c0.3-0.5-0.1-1.3-0.7-0.9&#13;&#10;&#9;&#9;&#9;&#9;c-2.3,1.7-5.2,1.7-8,2.1c-2.9,0.4-5.4,1.5-7.7,3.3C113.9,195.4,110.9,201.1,109.2,206.6z" stroke-width="1"/>
          <path fill="#65B65E" d="M117.3,195.9c0.1,0.1,0.2,0.2,0.3,0.2c0.1,0,0.3,0,0.3-0.2l0-0.1c0.3,0.1,0.6,0.1,0.7,0.1&#13;&#10;&#9;&#9;&#9;&#9;c0.4,0,0.8,0,1.2,0c0.8,0,1.6,0,2.4,0.1c1.4,0,2.8,0.1,4.2,0.1c-0.9,1.1-1.9,2.3-2.8,3.4c-0.1-0.1-0.2-0.2-0.3-0.2&#13;&#10;&#9;&#9;&#9;&#9;c-3.8,0.3-7.6,0.8-11.3,1.6c-0.5,0.1-0.3,0.8,0.2,0.7c3.6-0.6,7.2-1.2,10.8-1.6c0,0,0,0.1,0,0.1c-0.4,0.5-0.8,1-1.3,1.5l-1.3,1.5&#13;&#10;&#9;&#9;&#9;&#9;c-0.1-0.1-0.3-0.2-0.4-0.2c-3.1,0.7-6.3,1.4-9.3,2.3c-0.5,0.1-0.3,0.8,0.2,0.7c3-0.6,5.9-1.4,8.8-2.1c0,0,0,0.1,0,0.1&#13;&#10;&#9;&#9;&#9;&#9;c-1.5,1.8-3,3.6-4.5,5.4c-0.1,0.1-0.1,0.1-0.2,0.2c-0.1,0-0.1,0-0.2,0c-1.1,0.4-2.1,0.7-3.2,0.9c-1,0.2-2.3,0.3-3.3,0.7&#13;&#10;&#9;&#9;&#9;&#9;c-0.2,0.1-0.3,0.5,0,0.5c1,0.2,2.1-0.2,3.1-0.4c0.9-0.2,1.8-0.4,2.6-0.7c-1.8,2.1-3.5,4.1-5.6,5.9c-0.2,0.2,0.1,0.6,0.4,0.4&#13;&#10;&#9;&#9;&#9;&#9;c2.2-1.6,4-3.8,5.7-5.9c0,1.1,0,2.2,0.2,3.3c0,0.1,0.2,0.1,0.2,0c0.3-1.3,0.3-2.8,0.3-4.2c0.1-0.1,0.1-0.2,0.2-0.2l4.2-5.1&#13;&#10;&#9;&#9;&#9;&#9;c0.1,0.8,0.1,1.6,0.2,2.4c0.1,1.2,0.1,2.4,0.4,3.6c0,0.2,0.4,0.2,0.4,0c0.1-1.2,0-2.4-0.1-3.6c0-1.1-0.1-2.2-0.2-3.2l1.6-2&#13;&#10;&#9;&#9;&#9;&#9;c0.3-0.4,0.6-0.7,0.9-1.1c0.4,2.6,0.9,5.2,1.6,7.7c0.1,0.2,0.4,0.1,0.4-0.1c-0.5-2.8-1-5.5-1.3-8.4c1-1.2,2.1-2.5,3.1-3.7&#13;&#10;&#9;&#9;&#9;&#9;c0.4,2.3,0.8,4.7,1.3,7c0.1,0.3,0.5,0.2,0.5-0.1c-0.4-2.5-0.8-5.1-1.1-7.6c0.4-0.5,0.8-0.9,1.2-1.4c0.6-0.7,1.1-1.4,1.7-2&#13;&#10;&#9;&#9;&#9;&#9;c0.2,1.8,0.4,3.5,0.4,5.3c0,0.3,0.4,0.3,0.4,0c0.1-2,0-4-0.2-6c0.4-0.4,0.7-0.9,1.1-1.3c1-1.3,2.1-2.5,3-3.9&#13;&#10;&#9;&#9;&#9;&#9;c0.1-0.2-0.1-0.3-0.3-0.2c-1.3,1.2-2.3,2.6-3.4,3.9c-0.2,0.2-0.4,0.4-0.6,0.7c-0.1,0-0.1-0.1-0.2-0.1c-2.1,0.2-4.2,0.3-6.3,0.3&#13;&#10;&#9;&#9;&#9;&#9;c-0.5,0-0.5,0.7,0,0.8c2,0.1,4,0,5.9-0.3c-0.7,0.8-1.3,1.6-2,2.4c-0.4,0.5-0.8,0.9-1.1,1.4c-1.9-0.1-3.7-0.1-5.6-0.2&#13;&#10;&#9;&#9;&#9;&#9;c-0.9,0-1.9-0.1-2.8-0.1c-0.4,0-1-0.2-1.3,0.2C117.3,195.6,117.2,195.7,117.3,195.9z" stroke-width="1"/>
        </g>
        <g>
          <path fill="#65B65E" d="M156.5,144.9c-0.1-0.1-0.2-0.2-0.4-0.2c-0.1,0-0.3,0-0.3,0.2l0,0.1c-0.3,0-0.6,0-0.7,0&#13;&#10;&#9;&#9;&#9;&#9;c-0.4,0-0.8,0-1.2,0c-0.8,0-1.6,0.1-2.4,0.1c-1.4,0.1-2.8,0.1-4.2,0.2c0.9-1.2,1.7-2.4,2.6-3.6c0.1,0.1,0.2,0.2,0.3,0.2&#13;&#10;&#9;&#9;&#9;&#9;c3.8-0.6,7.5-1.3,11.2-2.4c0.5-0.1,0.2-0.8-0.3-0.7c-3.6,0.8-7.1,1.6-10.7,2.3c0,0,0-0.1,0-0.1c0.4-0.5,0.8-1.1,1.2-1.6l1.2-1.6&#13;&#10;&#9;&#9;&#9;&#9;c0.1,0.1,0.3,0.2,0.4,0.1c3-0.9,6.2-1.8,9.1-2.9c0.5-0.2,0.2-0.8-0.2-0.7c-2.9,0.8-5.8,1.7-8.7,2.7c0,0,0-0.1,0-0.1&#13;&#10;&#9;&#9;&#9;&#9;c1.4-1.9,2.7-3.8,4.1-5.7c0.1-0.1,0.1-0.1,0.2-0.2c0.1,0,0.1,0,0.2,0c1-0.4,2.1-0.8,3.1-1.1c1-0.3,2.2-0.4,3.2-0.9&#13;&#10;&#9;&#9;&#9;&#9;c0.2-0.1,0.3-0.5,0-0.5c-1-0.1-2.1,0.3-3.1,0.6c-0.9,0.2-1.7,0.5-2.6,0.9c1.6-2.2,3.3-4.4,5.2-6.3c0.2-0.2-0.1-0.6-0.4-0.4&#13;&#10;&#9;&#9;&#9;&#9;c-2.1,1.7-3.8,4-5.3,6.3c-0.1-1.1-0.1-2.2-0.4-3.3c0-0.1-0.2-0.1-0.2,0c-0.2,1.4-0.1,2.8,0,4.2c-0.1,0.1-0.1,0.2-0.2,0.2&#13;&#10;&#9;&#9;&#9;&#9;l-3.9,5.3c-0.1-0.8-0.2-1.6-0.3-2.4c-0.2-1.2-0.2-2.4-0.6-3.5c-0.1-0.2-0.4-0.2-0.4,0c-0.1,1.2,0.2,2.4,0.3,3.6&#13;&#10;&#9;&#9;&#9;&#9;c0.1,1.1,0.2,2.1,0.4,3.2l-1.5,2c-0.3,0.4-0.6,0.8-0.9,1.2c-0.6-2.6-1.2-5.1-2.1-7.6c-0.1-0.2-0.4-0.1-0.4,0.1&#13;&#10;&#9;&#9;&#9;&#9;c0.7,2.7,1.3,5.5,1.9,8.3c-0.9,1.3-1.9,2.6-2.8,3.9c-0.5-2.3-1.1-4.6-1.7-6.9c-0.1-0.2-0.5-0.2-0.5,0.1c0.5,2.5,1.1,5,1.6,7.5&#13;&#10;&#9;&#9;&#9;&#9;c-0.4,0.5-0.7,1-1.1,1.5c-0.5,0.7-1,1.4-1.6,2.1c-0.4-1.8-0.6-3.5-0.7-5.3c0-0.3-0.4-0.2-0.4,0c0,2,0.2,4,0.6,6&#13;&#10;&#9;&#9;&#9;&#9;c-0.3,0.5-0.7,0.9-1,1.4c-0.9,1.3-2,2.6-2.7,4c-0.1,0.2,0.2,0.3,0.3,0.2c1.2-1.3,2.2-2.7,3.2-4.1c0.2-0.2,0.3-0.5,0.5-0.7&#13;&#10;&#9;&#9;&#9;&#9;c0.1,0,0.1,0.1,0.2,0c2.1-0.3,4.2-0.5,6.3-0.7c0.5,0,0.4-0.8-0.1-0.8c-2,0-3.9,0.3-5.9,0.6c0.6-0.8,1.2-1.6,1.8-2.5&#13;&#10;&#9;&#9;&#9;&#9;c0.3-0.5,0.7-1,1-1.4c1.9-0.1,3.7-0.1,5.6-0.2c0.9,0,1.9-0.1,2.8-0.1c0.4,0,1,0.1,1.3-0.3C156.6,145.2,156.6,145,156.5,144.9z" stroke-width="1"/>
        </g>
        <g>
          <path fill="#3DAA35" d="M177.2,159.1c0.8-3.3,1.1-6.7,1-10.2c0-0.4-0.3-0.5-0.6-0.5c0.1-0.2-0.1-0.5-0.4-0.4&#13;&#10;&#9;&#9;&#9;&#9;c-5.9,1.6-11.8,4.1-16.4,8.4c-2.1,1.9-3.8,4.3-5,6.9c-1.1,2.5-1.5,5.1-1.5,7.8c0,3,0.3,6.4-1.5,9c-0.3,0.5,0.2,1.3,0.8,0.9&#13;&#10;&#9;&#9;&#9;&#9;c2.2-1.9,5.1-2.1,7.8-2.6c2.8-0.6,5.3-1.8,7.4-3.7C173.2,170.6,175.8,164.7,177.2,159.1z" stroke-width="1"/>
          <path fill="#65B65E" d="M169.8,170.4c-0.1-0.1-0.2-0.2-0.4-0.2c-0.1,0-0.3,0-0.3,0.2l0,0.1c-0.3,0-0.6,0-0.7,0&#13;&#10;&#9;&#9;&#9;&#9;c-0.4,0-0.8,0-1.2,0c-0.8,0-1.6,0.1-2.4,0.1c-1.4,0.1-2.8,0.1-4.2,0.2c0.9-1.2,1.7-2.4,2.6-3.6c0.1,0.1,0.2,0.2,0.3,0.2&#13;&#10;&#9;&#9;&#9;&#9;c3.8-0.6,7.5-1.3,11.2-2.4c0.5-0.1,0.2-0.8-0.3-0.7c-3.6,0.8-7.1,1.6-10.7,2.3c0,0,0-0.1,0-0.1c0.4-0.5,0.8-1.1,1.2-1.6l1.2-1.6&#13;&#10;&#9;&#9;&#9;&#9;c0.1,0.1,0.3,0.2,0.4,0.1c3-0.9,6.2-1.8,9.1-2.9c0.5-0.2,0.2-0.8-0.2-0.7c-2.9,0.8-5.8,1.7-8.7,2.7c0,0,0-0.1,0-0.1&#13;&#10;&#9;&#9;&#9;&#9;c1.4-1.9,2.7-3.8,4.1-5.7c0.1-0.1,0.1-0.1,0.2-0.2c0.1,0,0.1,0,0.2,0c1-0.4,2.1-0.8,3.1-1.1c1-0.3,2.2-0.4,3.2-0.9&#13;&#10;&#9;&#9;&#9;&#9;c0.2-0.1,0.3-0.5,0-0.5c-1-0.1-2.1,0.3-3.1,0.6c-0.9,0.2-1.7,0.5-2.6,0.9c1.6-2.2,3.3-4.4,5.2-6.3c0.2-0.2-0.1-0.6-0.4-0.4&#13;&#10;&#9;&#9;&#9;&#9;c-2.1,1.7-3.8,4-5.3,6.3c-0.1-1.1-0.1-2.2-0.4-3.3c0-0.1-0.2-0.1-0.2,0c-0.2,1.4-0.1,2.8,0,4.2c-0.1,0.1-0.1,0.2-0.2,0.2&#13;&#10;&#9;&#9;&#9;&#9;l-3.9,5.3c-0.1-0.8-0.2-1.6-0.3-2.4c-0.2-1.2-0.2-2.4-0.6-3.5c-0.1-0.2-0.4-0.2-0.4,0c-0.1,1.2,0.2,2.4,0.3,3.6&#13;&#10;&#9;&#9;&#9;&#9;c0.1,1.1,0.2,2.1,0.4,3.2l-1.5,2c-0.3,0.4-0.6,0.8-0.9,1.2c-0.6-2.6-1.2-5.1-2.1-7.6c-0.1-0.2-0.4-0.1-0.4,0.1&#13;&#10;&#9;&#9;&#9;&#9;c0.7,2.7,1.3,5.5,1.9,8.3c-0.9,1.3-1.9,2.6-2.8,3.9c-0.5-2.3-1.1-4.6-1.7-6.9c-0.1-0.2-0.5-0.2-0.5,0.1c0.5,2.5,1.1,5,1.6,7.5&#13;&#10;&#9;&#9;&#9;&#9;c-0.4,0.5-0.7,1-1.1,1.5c-0.5,0.7-1,1.4-1.6,2.1c-0.4-1.8-0.6-3.5-0.7-5.3c0-0.3-0.4-0.2-0.4,0c0,2,0.2,4,0.6,6&#13;&#10;&#9;&#9;&#9;&#9;c-0.3,0.5-0.7,0.9-1,1.4c-0.9,1.3-2,2.6-2.7,4c-0.1,0.2,0.2,0.3,0.3,0.2c1.2-1.3,2.2-2.7,3.2-4.1c0.2-0.2,0.3-0.5,0.5-0.7&#13;&#10;&#9;&#9;&#9;&#9;c0.1,0,0.1,0.1,0.2,0c2.1-0.3,4.2-0.5,6.3-0.7c0.5,0,0.4-0.8-0.1-0.8c-2,0-3.9,0.3-5.9,0.6c0.6-0.8,1.2-1.6,1.8-2.5&#13;&#10;&#9;&#9;&#9;&#9;c0.3-0.5,0.7-1,1-1.4c1.9-0.1,3.7-0.1,5.6-0.2c0.9,0,1.9-0.1,2.8-0.1c0.4,0,1,0.1,1.3-0.3C169.8,170.7,169.9,170.5,169.8,170.4z" stroke-width="1"/>
        </g>
      </g>
      <g>
        <g>
          <path fill="#E83A43" d="M223.1,169.3c-2.2-8.1-10.2-12.9-18.2-12.7c1-13.3-10.6-24-23.9-21.5c-2.5-7.7-10.4-13.4-18.7-12.3&#13;&#10;&#9;&#9;&#9;&#9;c-7.8,1-13.7,7.7-14.8,15.2c-9.6-3.5-19,5.4-16.6,15.4c-5.1-1-10.7,1.6-13.1,6.4c-2.8,5.6-0.4,12.6,4.5,16.1&#13;&#10;&#9;&#9;&#9;&#9;c-5.7,6.3-9.7,15.6-5.5,23.7c3,5.8,9.3,9.3,15.6,8.3c-1.3,14.8,15.9,24.4,27.9,15.2c9,11.3,26.6,7.2,30.3-6.4&#13;&#10;&#9;&#9;&#9;&#9;c7.5,3,16.6,1.3,21.9-5.2c5.2-6.3,5.3-15.1,1.3-21.9C221,185.8,225.3,177.5,223.1,169.3z" stroke-width="1"/>
          <path fill="#F9B03D" d="M191.6,180.3c7.9-1.7,15.3-5.6,12.1-14c-1.7-4.5-6.1-6.9-10.8-6.9c-1.5,0-2.9,0.2-4.2,0.6&#13;&#10;&#9;&#9;&#9;&#9;c0.4-1,0.6-2.1,0.8-3.3c0.6-4.7-1.3-9.6-5.6-11.9c-9.3-4.9-15.6,5.9-18.2,14.4c-3.4-9-9.8-19.1-17.4-12.3&#13;&#10;&#9;&#9;&#9;&#9;c-6.9,6.2-5.1,14.4-0.6,21c-3.5-1.4-7.1-2.4-11-1.9c-4.7,0.7-9.7,3.8-10.3,8.9c-1.2,10.2,10.2,12.9,20.1,13.2&#13;&#10;&#9;&#9;&#9;&#9;c-6.9,5.2-13,13-7.3,19.6c6.2,7.1,15,0.4,21-6.5c-0.3,8.5,1.4,18.2,10.8,16.9c8-1.1,9.4-11.3,8.7-20c2.3,2.3,5,4.2,8.3,5.1&#13;&#10;&#9;&#9;&#9;&#9;c5.2,1.4,10.9-0.2,13.6-5C206.2,190.2,199.4,184,191.6,180.3z" stroke-width="1"/>
          <path fill="#AB1917" d="M177.7,168.3c-2.1-3.6-5.9-5.7-10.1-5.3c-2.2,0.2-4.8,1.2-6.4,2.9c-3.4,1.7-5.9,5.7-6.7,9.3&#13;&#10;&#9;&#9;&#9;&#9;c-2,8.6,4.9,15.9,13.6,13.8C176.8,186.8,182.2,176.4,177.7,168.3z" stroke-width="1"/>
        </g>
        <g>
          <path fill="#ED6C72" d="M117,156.3c-5.4-5.9-14.6-9.3-21.9-4.6c-3.6,2.3-5.4,6.1-5.4,10c-1.4-1.1-3-1.9-4.4-2.5&#13;&#10;&#9;&#9;&#9;&#9;c-4.7-1.9-10.2-1.6-14.3,1.5c-3.6,2.8-5.9,7.5-5.7,12.1c0.1,1.3,0.4,3.1,1,4.7c-13.2-4.6-25.5,9.8-20.3,23&#13;&#10;&#9;&#9;&#9;&#9;c5.6,14.2,21.7,23.4,36.5,24c16.1,0.7,32.1-8.8,39.3-23.3C128.7,187.4,127.7,168.2,117,156.3z" stroke-width="1"/>
          <path fill="#F9B03D" d="M122.4,180.2c-2.9-5.2-9.7-7.2-14.8-3.7c-1.9,1.3-3.2,3.4-3.8,5.6c-1.9-0.9-4.3-1-6.3,0.2&#13;&#10;&#9;&#9;&#9;&#9;c-2.3,1.3-3.7,3.5-4.3,6c-0.8-0.7-1.8-1.3-2.8-1.7c-3.4-1.2-7.3-0.5-9.6,2.4c-1.9,2.4-2.1,5.3-1.2,8c-2.2-0.2-4.4,0.5-6,2.6&#13;&#10;&#9;&#9;&#9;&#9;c-0.8,1-1.2,2.2-1.2,3.4c-0.8,0.2-1.6,0.6-2.3,1.1c-4.4,3.3-3.4,9.9-0.1,13.6c4.7,5.2,13.4,6.1,20,5.8c7.4-0.4,14.9-2.9,20.8-7.5&#13;&#10;&#9;&#9;&#9;&#9;C120.3,208.5,129.1,192,122.4,180.2z" stroke-width="1"/>
        </g>
        <g>
          <path fill="#ED6C72" d="M188.8,223c-1.7-12.6-16.9-21.9-29.4-19.8c1.7-3.8,2.5-7.9,1.8-12.1c-1.2-7.6-7.2-13.4-14.7-14.6&#13;&#10;&#9;&#9;&#9;&#9;c-8-1.3-14.1,3.4-17,10.6c-1.7,4.2-2.9,9-2.9,13.7c-2.3-2.3-4.9-4.2-8.1-5.3c-6.4-2.2-13.9-0.8-17.7,5.2&#13;&#10;&#9;&#9;&#9;&#9;c-3.5,5.4-3.2,12.8,0.3,18.1c2.4,3.6,5.7,6.1,9.5,7.7c-5.1,2-9.8,4.9-12.8,9.6c-3.7,5.7-4.7,13.9-0.4,19.6&#13;&#10;&#9;&#9;&#9;&#9;c4.2,5.5,11.8,6.6,18.1,4.4c5.5-1.9,9.5-6.1,12.6-10.9c0.8,5.7,2.3,11.3,5.8,16c4.1,5.4,11.4,9,18.2,7.7&#13;&#10;&#9;&#9;&#9;&#9;c7.1-1.3,10.9-7.8,11.6-14.6c0.5-5.6-0.6-11-2.8-16c5.5,1.9,11.4,2.2,17-0.2C185.4,238.7,190,231.2,188.8,223z" stroke-width="1"/>
          <path fill="#F9B03D" d="M158.6,218.4c-4.2-0.6-8.3-0.4-12.3,0.4c1.6-2.7,2.7-5.6,3.4-8.7c0.9-4.3,1.9-13.1-2.9-15.6&#13;&#10;&#9;&#9;&#9;&#9;c-5.1-2.7-9.9,5.4-11.5,9c-1.8,4.1-2.5,8.5-2.1,12.9c-6.4-7-19.6-17.5-23.8-7.6c-3.7,8.5,6,13.4,15,15.9c-2.1,1-4.1,2.3-5.9,3.8&#13;&#10;&#9;&#9;&#9;&#9;c-4,3.4-9.4,9.6-8.1,15.3c1.2,5.8,7.2,4.8,10.7,1.7c3.9-3.4,7.3-7.5,10.4-11.8c0.6,9.6,3.9,21.5,13.6,20.4&#13;&#10;&#9;&#9;&#9;&#9;c5.5-0.6,7.2-5.8,5.4-10.6c-1.7-4.6-4.6-9-7.5-13.3c10.2,3.9,24.9,7.6,26.5-3C170.2,221.1,163.4,219.1,158.6,218.4z" stroke-width="1"/>
          <path fill="#AB1917" d="M144,219.6c-1.7-2.4-4.5-4.3-7.6-4.4c-0.9,0-1.8,0.2-2.6,0.6c-5.8,0.6-9.4,7.1-8,12.6&#13;&#10;&#9;&#9;&#9;&#9;c1.6,6.1,8.8,8.6,14.4,6.4C146.3,232.3,147.8,224.9,144,219.6z" stroke-width="1"/>
        </g>
      </g>
    </g>
  </g>
</svg>