<svg xmlns="http://www.w3.org/2000/svg" xmlns:xlink="http://www.w3.org/1999/xlink" version="1.1" width="96.83168133433618" height="138.47822674449242" viewBox="-0.308421116749237 0.04525001676898199 96.83168133433618 138.47822674449242">
  <!-- Exported by Scratch - http://scratch.mit.edu/ -->
  <g id="ID0.9334461996331811">
    <path id="Tail" fill="#594A42" stroke="#000000" stroke-width="0.9753499445118408" d="M 36.4494 112.2266 C 32.2686 113.3166 27.1987 113.6794 21.1418 112.6377 C 7.3908 110.274 1.7655 98.2928 0.7116 92.2875 C 0.4317 90.6948 1.4963 89.1767 3.088 88.8997 C 4.6808 88.6217 6.196 89.6848 6.4749 91.2766 C 6.573 91.8106 9.064 104.6243 22.1317 106.872 C 40.1972 109.9765 47.3343 98.3133 47.6289 97.8168 C 48.4491 96.4318 50.2384 95.9612 51.6268 96.7737 C 53.0172 97.5861 53.4941 99.3603 52.6904 100.7531 C 52.4217 101.2208 47.6035 109.3176 36.4494 112.2266 L 36.4494 112.2266 L 36.4494 112.2266 L 36.4494 112.2266 L 36.4494 112.2266 L 36.4494 112.2266 L 36.4494 112.2266 L 36.4494 112.2266 L 36.4494 112.2266 L 36.4494 112.2266 L 36.4494 112.2266 L 36.4494 112.2266 Z "/>
    <g id="Back_Leg">
      <path id="Leg_1_" fill="#594A42" stroke="#000000" stroke-width="0.9753499445118408" d="M 70.8119 121.5051 C 70.3087 121.432 69.8283 121.1842 69.4694 120.7692 C 68.6764 119.8529 68.7764 118.4669 69.6927 117.6735 C 69.7639 117.611 77.1034 111.0187 74.7592 105.9532 C 73.1435 102.4624 65.3202 101.6095 62.7053 101.586 C 61.4905 101.5758 60.5201 100.5853 60.5288 99.3749 C 60.5386 98.164 61.5266 97.1897 62.737 97.197 C 64.0503 97.2072 75.6716 97.4774 78.7415 104.1103 C 82.5093 112.252 72.9723 120.6405 72.5646 120.9921 C 72.0633 121.4271 71.4211 121.5939 70.8119 121.5051 L 70.8119 121.5051 L 70.8119 121.5051 L 70.8119 121.5051 L 70.8119 121.5051 L 70.8119 121.5051 L 70.8119 121.5051 L 70.8119 121.5051 L 70.8119 121.5051 L 70.8119 121.5051 L 70.8119 121.5051 L 70.8119 121.5051 Z "/>
      <path id="Foot_1_" fill="#C2B59B" stroke="#000000" stroke-width="0.9753499445118408" d="M 68.3029 119.1282 L 75.8506 134.5061 C 75.8506 134.5061 78.5162 138.9024 81.909 137.1249 C 83.353 136.369 88.9052 133.3547 83.5895 124.0293 C 78.2753 114.7084 69.4006 118.5279 69.4006 118.5279 L 68.3029 119.1282 L 68.3029 119.1282 L 68.3029 119.1282 L 68.3029 119.1282 L 68.3029 119.1282 L 68.3029 119.1282 L 68.3029 119.1282 L 68.3029 119.1282 L 68.3029 119.1282 L 68.3029 119.1282 L 68.3029 119.1282 Z "/>
    </g>
    <g id="Back_Arm">
      <path id="Arm_1_" fill="#594A42" stroke="#000000" stroke-width="0.9753499445118408" d="M 91.0831 68.8733 C 90.9451 69.3468 87.5865 80.4566 78.4138 80.698 C 68.9841 80.9462 63.6651 73.1117 63.4432 72.7776 C 62.7726 71.7691 63.0462 70.407 64.0552 69.736 C 65.0618 69.0664 66.4224 69.339 67.0934 70.3422 C 67.1612 70.4407 71.3562 76.4937 78.2982 76.3103 C 84.2688 76.1533 86.8472 67.7204 86.8725 67.6356 C 87.2178 66.4759 91.3621 67.9223 91.0831 68.8733 L 91.0831 68.8733 L 91.0831 68.8733 L 91.0831 68.8733 L 91.0831 68.8733 L 91.0831 68.8733 L 91.0831 68.8733 L 91.0831 68.8733 L 91.0831 68.8733 L 91.0831 68.8733 L 91.0831 68.8733 Z "/>
      <path id="Hand_1_" fill="#9B8579" stroke="#000000" stroke-width="0.9753499445118408" d="M 85.3451 68.6626 C 85.3451 68.6626 82.6785 63.7678 84.4932 62.9007 C 86.3088 62.0356 87.0637 65.1143 87.0637 65.1143 C 87.0637 65.1143 89.2909 58.1084 93.6551 60.3346 C 98.0208 62.5613 93.4674 69.1961 93.4674 69.1961 C 93.4674 69.1961 91.8678 70.7757 89.585 70.7967 C 87.3032 70.8186 85.3451 68.6626 85.3451 68.6626 L 85.3451 68.6626 L 85.3451 68.6626 L 85.3451 68.6626 L 85.3451 68.6626 L 85.3451 68.6626 L 85.3451 68.6626 L 85.3451 68.6626 L 85.3451 68.6626 L 85.3451 68.6626 L 85.3451 68.6626 Z "/>
    </g>
    <g id="Body_1_">
      <path id="Body" fill="#594A42" stroke="#000000" stroke-width="0.9753499445118408" d="M 42.2508 74.3055 C 42.2508 74.3055 39.036 81.8581 39.3476 88.7846 C 39.6593 95.711 45.801 102.8759 56.7981 103.0866 C 67.7962 103.2992 72.5759 93.3219 70.9309 84.4106 C 70.1136 79.9738 68.0493 75.9685 68.0493 75.9685 C 68.0493 75.9685 66.0825 69.1547 60.5283 67.5195 C 54.9742 65.8843 48.868 66.0287 45.9371 68.2076 C 44.5077 69.2712 42.2508 74.3055 42.2508 74.3055 L 42.2508 74.3055 L 42.2508 74.3055 L 42.2508 74.3055 L 42.2508 74.3055 L 42.2508 74.3055 L 42.2508 74.3055 L 42.2508 74.3055 L 42.2508 74.3055 L 42.2508 74.3055 L 42.2508 74.3055 Z "/>
      <path id="Belly" fill="#C2B59B" stroke="#000000" stroke-width="0.9753499445118408" d="M 70.3033 93.5911 C 71.6244 85.4801 67.1783 82.0064 63.6251 82.4663 C 59.9202 82.9456 57.2916 86.3365 56.9829 93.3439 C 56.6733 100.3508 53.2083 102.6833 53.2083 102.6833 L 53.1835 102.7472 C 54.3227 102.9457 55.5287 103.0627 56.7991 103.0871 C 63.9187 103.2241 68.4321 99.0921 70.2833 93.7423 L 70.3033 93.5911 L 70.3033 93.5911 L 70.3033 93.5911 L 70.3033 93.5911 L 70.3033 93.5911 L 70.3033 93.5911 L 70.3033 93.5911 L 70.3033 93.5911 L 70.3033 93.5911 L 70.3033 93.5911 L 70.3033 93.5911 Z "/>
    </g>
    <g id="Front_Leg">
      <path id="Leg" fill="#594A42" stroke="#000000" stroke-width="0.9753499445118408" d="M 44.8237 119.0907 C 37.4833 121.6943 31.5722 117.7925 29.2674 115.0283 C 28.491 114.0973 28.6168 112.7138 29.5478 111.9374 C 30.4802 111.1596 31.8628 111.2869 32.6387 112.2174 C 33.1703 112.8387 38.1099 118.2484 45.5991 113.9052 C 53.0898 109.561 48.5335 100.5649 48.3355 100.183 C 47.7771 99.1077 48.197 97.7827 49.2728 97.2253 C 50.3423 96.6664 51.6727 97.0863 52.231 98.1626 C 54.5729 102.674 56.6601 112.5651 47.8 117.7027 C 46.7866 118.2904 45.7928 118.7473 44.8237 119.0907 L 44.8237 119.0907 L 44.8237 119.0907 L 44.8237 119.0907 L 44.8237 119.0907 L 44.8237 119.0907 L 44.8237 119.0907 L 44.8237 119.0907 L 44.8237 119.0907 L 44.8237 119.0907 L 44.8237 119.0907 L 44.8237 119.0907 Z "/>
      <path id="Foot" fill="#C2B59B" stroke="#000000" stroke-width="0.9753499445118408" d="M 30.6929 110.153 L 18.183 121.8543 C 18.183 121.8543 14.7557 125.686 17.4437 128.4135 C 18.5888 129.5737 23.0925 134.0057 30.4607 126.2024 C 37.8266 118.3996 31.5863 111.0284 31.5863 111.0284 L 30.6929 110.153 L 30.6929 110.153 L 30.6929 110.153 L 30.6929 110.153 L 30.6929 110.153 L 30.6929 110.153 L 30.6929 110.153 L 30.6929 110.153 L 30.6929 110.153 L 30.6929 110.153 L 30.6929 110.153 Z "/>
    </g>
    <g id="Front_Arm">
      <path id="Arm" fill="#594A42" stroke="#000000" stroke-width="0.9753499445118408" d="M 22.6979 89.0821 C 22.5555 88.6105 19.2944 77.4715 26.8427 72.2553 C 34.6035 66.8928 43.3402 70.545 43.7084 70.7031 C 44.8218 71.1805 45.3373 72.4714 44.8589 73.5847 C 44.3819 74.6961 43.094 75.2116 41.9835 74.7381 C 41.8728 74.6922 35.0512 71.9174 29.3381 75.8656 C 24.4253 79.2608 26.8754 87.7312 26.9007 87.8165 C 27.2455 88.9767 22.9847 90.0301 22.6979 89.0821 L 22.6979 89.0821 L 22.6979 89.0821 L 22.6979 89.0821 L 22.6979 89.0821 L 22.6979 89.0821 L 22.6979 89.0821 L 22.6979 89.0821 L 22.6979 89.0821 L 22.6979 89.0821 L 22.6979 89.0821 Z "/>
      <path id="Hand" fill="#9B8579" stroke="#000000" stroke-width="0.9753499445118408" d="M 30.2403 89.8882 C 30.2403 89.8882 33.0683 94.6918 31.283 95.6184 C 29.4976 96.5435 28.6403 93.4916 28.6403 93.4916 C 28.6403 93.4916 26.6476 100.5678 22.2112 98.4874 C 17.7749 96.4065 22.1049 89.6244 22.1049 89.6244 C 22.1049 89.6244 23.6518 87.9921 25.9322 87.8955 C 28.2116 87.7985 30.2403 89.8882 30.2403 89.8882 L 30.2403 89.8882 L 30.2403 89.8882 L 30.2403 89.8882 L 30.2403 89.8882 L 30.2403 89.8882 L 30.2403 89.8882 L 30.2403 89.8882 L 30.2403 89.8882 L 30.2403 89.8882 L 30.2403 89.8882 Z "/>
    </g>
    <g id="R_Ear">
      <path id="Ear_1_" fill="#9B8579" stroke="#000000" stroke-width="0.9753499445118408" d="M 70.435 26.0008 C 70.5042 25.243 70.7671 23.7102 71.7727 23.0421 C 73.4776 21.9107 75.4868 22.0155 78.2075 26.506 C 80.9268 30.9975 80.7956 35.6826 78.4699 37.7972 C 77.9837 38.239 77.4278 38.5453 76.8913 38.7564 L 76.844 38.7813 C 74.946 37.2134 73.3386 36.4702 73.3386 36.4707 C 73.3386 36.4707 72.3993 31.3696 70.4194 26.0881 L 70.435 26.0008 L 70.435 26.0008 L 70.435 26.0008 L 70.435 26.0008 L 70.435 26.0008 L 70.435 26.0008 L 70.435 26.0008 L 70.435 26.0008 L 70.435 26.0008 L 70.435 26.0008 L 70.435 26.0008 Z "/>
      <path id="Inner_Ear_1_" fill="none" stroke="#000000" stroke-width="1.9506998890236815" stroke-linecap="round" d="M 75.5102 29.7266 C 75.5102 29.7266 75.0674 31.8997 72.573 33.0248 "/>
    </g>
    <path id="Head" fill="#726658" stroke="#000000" stroke-width="0.9753499445118408" d="M 23.8069 43.4683 C 23.6748 41.6327 20.934 10.2348 45.1139 8.3001 C 45.6655 8.2553 46.2058 8.2231 46.7354 8.2021 L 46.7306 8.1504 C 46.5804 7.8832 46.0727 6.8859 45.8879 5.3058 C 45.6704 3.4429 45.8757 1.0206 45.8757 1.0206 L 48.8427 4.5104 L 48.891 1.4454 C 48.891 1.4454 49.7585 2.9986 52.1233 6.0407 C 53.3942 7.6759 54.8494 8.5796 55.4048 8.9673 L 55.5463 9.0248 C 65.9059 11.6378 69.8303 19.6108 71.2201 23.9038 C 71.2201 23.9038 71.2977 24.0594 71.4191 24.3646 C 71.5405 24.6704 72.9582 28.4382 73.6351 31.4964 C 74.1901 34.0045 74.1462 36.1142 74.1125 36.7921 L 74.1311 36.8911 C 73.638 36.6077 73.3386 36.4697 73.3386 36.4697 C 73.3386 36.4697 69.1456 13.6958 59.792 14.5653 C 56.2685 14.8935 57.6872 22.4169 57.6872 22.4169 C 57.6872 22.4169 54.5636 12.7112 44.794 15.2924 C 31.58 18.7827 35.6077 40.8066 35.6077 40.8066 L 35.5355 40.87 L 31.7131 41.1543 C 31.7131 41.1543 29.2323 40.9349 26.7057 42.2979 C 25.7713 42.8022 25.1744 44.0209 24.201 44.8333 L 23.8069 43.4683 L 23.8069 43.4683 L 23.8069 43.4683 L 23.8069 43.4683 L 23.8069 43.4683 L 23.8069 43.4683 L 23.8069 43.4683 L 23.8069 43.4683 L 23.8069 43.4683 L 23.8069 43.4683 L 23.8069 43.4683 Z "/>
    <g id="L_Ear">
      <path id="Ear" fill="#9B8579" stroke="#000000" stroke-width="0.9753499445118408" stroke-linejoin="round" d="M 29.401 41.722 C 29.401 41.722 29.3098 43.0402 27.0339 43.8326 C 25.6118 44.3276 24.4229 43.9921 24.4229 43.9921 C 23.685 43.8673 22.9252 43.522 22.1488 43.1918 C 18.7073 41.7293 17.2092 37.2246 19.2472 32.1889 C 21.2842 27.1542 24.9803 27.1849 26.5359 27.4853 C 28.0916 27.7872 29.3674 30.9922 29.3674 30.9922 L 29.4113 31.1975 C 28.8617 33.7973 29.2474 37.2495 29.4113 41.2948 L 29.401 41.722 L 29.401 41.722 L 29.401 41.722 L 29.401 41.722 L 29.401 41.722 L 29.401 41.722 L 29.401 41.722 L 29.401 41.722 L 29.401 41.722 L 29.401 41.722 L 29.401 41.722 Z "/>
      <path id="Inner_Ear" fill="none" stroke="#000000" stroke-width="1.9506998890236815" stroke-linecap="round" d="M 23.8684 35.6841 C 23.8279 35.6143 25.5348 37.746 28.3955 38.1381 "/>
    </g>
    <path id="Face" fill="#C2B59B" stroke="#000000" stroke-width="0.9753499445118408" d="M 31.5536 40.297 C 30.2125 40.3194 22.1396 40.0512 22.7955 52.2255 C 23.5567 66.3476 39.9134 70.9922 55.6048 69.9023 C 74.9489 68.5592 83.7836 58.1279 82.8195 49.2673 C 81.8539 40.4067 73.3386 36.4702 73.3386 36.4702 C 73.3386 36.4702 69.1456 13.6963 59.792 14.5658 C 56.2685 14.894 57.6872 22.4174 57.6872 22.4174 C 57.6872 22.4174 54.5636 12.7117 44.794 15.2929 C 31.58 18.7832 35.6077 40.8071 35.6077 40.8071 C 35.6077 40.8071 34.1968 40.2531 31.5536 40.297 L 31.5536 40.297 L 31.5536 40.297 L 31.5536 40.297 L 31.5536 40.297 L 31.5536 40.297 L 31.5536 40.297 L 31.5536 40.297 L 31.5536 40.297 L 31.5536 40.297 L 31.5536 40.297 Z "/>
    <path id="Nose" fill="#726658" stroke="#000000" stroke-width="0.6615049244788678" d="M 58.1297 47.5167 C 58.0925 46.8278 58.6118 46.1734 59.4805 45.6732 C 60.3495 45.1729 61.5677 44.8267 62.9291 44.7534 C 64.2904 44.68 65.5388 44.8933 66.4565 45.2973 C 67.3739 45.7014 67.9604 46.2961 67.9976 46.9851 C 68.0347 47.674 67.5155 48.3284 66.6468 48.8286 C 65.7777 49.3289 64.5596 49.6751 63.1982 49.7484 C 61.8368 49.8218 60.5885 49.6085 59.6707 49.2045 C 58.7533 48.8004 58.1668 48.2057 58.1297 47.5167 L 58.1297 47.5167 L 58.1297 47.5167 L 58.1297 47.5167 L 58.1297 47.5167 L 58.1297 47.5167 L 58.1297 47.5167 L 58.1297 47.5167 L 58.1297 47.5167 L 58.1297 47.5167 Z "/>
    <path id="White_1_" fill="#F1F2F2" d="M 54.5942 43.0348 C 54.5686 40.0112 54.0424 29.2015 47.8264 30.1586 C 40.9306 31.2213 44.4531 42.8388 44.7833 43.8809 L 44.7926 43.9586 C 45.7946 43.7055 47.2956 43.3925 49.1655 43.2007 C 51.9529 42.9144 53.8741 43.0175 54.5747 43.0758 L 54.5942 43.0348 L 54.5942 43.0348 L 54.5942 43.0348 L 54.5942 43.0348 L 54.5942 43.0348 L 54.5942 43.0348 L 54.5942 43.0348 L 54.5942 43.0348 L 54.5942 43.0348 L 54.5942 43.0348 L 54.5942 43.0348 Z " stroke-width="0.4876749943313242"/>
    <path id="Pupil_1_" fill="#594A42" stroke="#000000" d="M 45.5477 43.1592 C 45.5477 43.1592 43.0121 33.8862 46.6831 33.7033 C 50.3537 33.5205 51.0876 42.8833 51.0876 42.8833 " stroke-width="0.4876749943313242"/>
    <path id="Outline_1_" d="M 51.7556 30.4145 C 50.6252 29.4137 49.2628 29.028 47.7063 29.2671 C 46.0511 29.5224 44.7937 30.3355 43.9683 31.6847 C 41.8571 35.1361 43.2836 41.17 43.8806 43.275 C 43.4247 43.4061 43.1647 43.4982 43.1345 43.5094 L 43.6303 44.8861 C 43.6519 44.8782 45.8201 44.11 49.2319 43.7594 C 51.3251 43.5443 52.9209 43.5552 53.8507 43.5968 C 53.8506 43.6051 53.8502 43.6163 53.8503 43.6178 L 54.53 43.6386 C 54.683 43.6515 54.7655 43.6611 54.7695 43.6618 L 54.7716 43.6461 L 55.3125 43.6626 C 55.3247 43.2616 55.5733 33.7927 51.7556 30.4145 L 51.7556 30.4145 L 51.7556 30.4145 L 51.7556 30.4145 L 51.7556 30.4145 L 51.7556 30.4145 L 51.7556 30.4145 L 51.7556 30.4145 L 51.7556 30.4145 L 51.7556 30.4145 L 51.7556 30.4145 Z M 49.0822 42.304 C 47.5583 42.461 46.2804 42.694 45.3016 42.9142 C 44.7664 41.0219 43.4103 35.4005 45.2168 32.4482 C 45.8155 31.4697 46.7028 30.902 47.9297 30.7135 C 49.0528 30.5384 49.9849 30.8016 50.7863 31.5097 C 53.2753 33.7114 53.7545 39.4106 53.8387 42.1306 C 52.842 42.0889 51.2144 42.0855 49.0822 42.304 L 49.0822 42.304 L 49.0822 42.304 L 49.0822 42.304 L 49.0822 42.304 L 49.0822 42.304 L 49.0822 42.304 L 49.0822 42.304 L 49.0822 42.304 L 49.0822 42.304 L 49.0822 42.304 Z " stroke-width="0.4876749943313242" fill="undefined"/>
    <g id="R_Eye">
      <path id="White" fill="#F1F2F2" d="M 67.2781 41.7589 C 66.7628 39.8332 64.4165 30.363 67.9015 29.7324 C 71.7954 29.0273 72.2397 39.4124 72.2914 41.5523 L 72.2832 41.5839 C 71.5164 41.5308 70.0201 41.4809 68.3119 41.7049 C 67.9602 41.7513 67.6267 41.8057 67.3143 41.8646 L 67.2781 41.7589 L 67.2781 41.7589 L 67.2781 41.7589 L 67.2781 41.7589 L 67.2781 41.7589 L 67.2781 41.7589 L 67.2781 41.7589 L 67.2781 41.7589 L 67.2781 41.7589 L 67.2781 41.7589 L 67.2781 41.7589 Z " stroke-width="0.4184543684640547"/>
      <path id="Pupil" fill="#594A42" stroke="#000000" d="M 66.9505 41.5389 C 66.9505 41.5389 65.6372 32.9486 67.9676 32.9486 C 70.2976 32.9486 70.4678 41.5389 70.4678 41.5389 " stroke-width="0.4184543684640547"/>
      <path id="Outline" d="M 72.8654 41.2323 L 72.8903 40.9668 C 72.8856 40.9663 72.8724 40.9645 72.8561 40.9627 C 72.7655 38.4851 72.3139 32.0039 70.0737 29.8163 C 69.4114 29.1696 68.6497 28.9197 67.8106 29.071 C 67.0756 29.204 66.4775 29.6699 66.0799 30.4179 C 64.6695 33.0723 65.9505 38.9635 66.5599 41.3523 C 66.2525 41.4228 65.9439 41.4916 65.6465 41.5772 L 65.9303 42.8759 C 66.7103 42.6514 67.5339 42.4809 68.378 42.3698 C 70.7581 42.0574 72.7453 42.2957 72.7648 42.298 L 72.7993 41.9316 L 72.879 41.9311 C 72.879 41.874 72.8771 41.6223 72.8654 41.2323 L 72.8654 41.2323 L 72.8654 41.2323 L 72.8654 41.2323 L 72.8654 41.2323 L 72.8654 41.2323 L 72.8654 41.2323 L 72.8654 41.2323 L 72.8654 41.2323 L 72.8654 41.2323 L 72.8654 41.2323 Z M 68.2459 41.0399 C 68.0683 41.0631 67.8961 41.1002 67.72 41.1287 C 67.0356 38.4703 65.9952 33.1459 67.0752 31.1154 C 67.2979 30.6963 67.5894 30.4669 67.9917 30.3938 C 68.4868 30.3045 68.921 30.4491 69.3178 30.8365 C 71.017 32.4952 71.5716 37.9317 71.6882 40.8829 C 70.8386 40.8516 69.6139 40.8601 68.2459 41.0399 L 68.2459 41.0399 L 68.2459 41.0399 L 68.2459 41.0399 L 68.2459 41.0399 L 68.2459 41.0399 L 68.2459 41.0399 L 68.2459 41.0399 L 68.2459 41.0399 L 68.2459 41.0399 L 68.2459 41.0399 Z " stroke-width="0.4184543684640547" fill="undefined"/>
    </g>
    <path id="ID0.9196255002170801" fill="none" stroke="#000000" stroke-width="0.9499999805971899" stroke-linecap="round" d="M 63.6719 55.9918 C 63.6719 55.9918 64.0373 54.7193 64.1638 54.086 C 64.2711 53.4364 64.3729 52.7833 64.3724 52.1497 C 64.3751 51.485 64.1558 50.1677 64.1558 50.1677 "/>
    <path id="ID0.7217612732201815" fill="#000000" stroke="none" stroke-linecap="round" d="M 56.1675 55.13 C 57.5269 54.7785 58.9548 54.7196 60.3475 54.56 C 61.6062 54.4156 62.8773 54.3329 64.1475 54.275 C 65.3293 54.1914 66.5225 54.1135 67.71 54.1325 C 68.0064 54.1372 68.2277 54.0555 68.2325 54.3225 C 68.1907 55.4748 68.184 56.7146 67.615 57.695 C 67.0668 58.6393 66.1187 59.5152 65.05 59.7375 C 63.2241 60.1165 61.2215 60.1469 59.54 59.405 C 57.9563 58.7077 56.9807 57.1079 55.93 55.795 C 55.6573 55.4311 55.8274 55.2183 56.1675 55.13 Z " stroke-width="0.949999988079071"/>
  </g>
</svg>