<svg xmlns="http://www.w3.org/2000/svg" xmlns:xlink="http://www.w3.org/1999/xlink" version="1.1" width="83.23461842536926" height="128.14662098884583" viewBox="-0.5025203824043274 -0.6347114741802216 83.23461842536926 128.14662098884583">
  <!-- Exported by Scratch - http://scratch.mit.edu/ -->
  <g id="ID0.8665216066874564">
    <g id="R_Arm">
      <path id="Arm_1_" fill="#594A42" stroke="#000000" stroke-width="0.9729114770889282" d="M 58.5569 73.4146 C 60.0488 73.6607 65.7034 74.6404 67.981 77.8238 C 70.8569 81.8458 71.8318 84.9878 71.8327 85.0229 C 71.9174 87.6915 76.6584 89.0702 76.6584 84.4167 L 76.6584 84.4167 C 76.6346 84.2144 76.0065 79.4194 71.5803 74.5509 C 66.5421 69.0116 59.0472 68.3457 56.8679 68.5072 C 56.8679 68.5072 55.3735 68.7164 55.5394 70.4199 C 55.7024 72.122 58.5569 73.4146 58.5569 73.4146 L 58.5569 73.4146 L 58.5569 73.4146 L 58.5569 73.4146 L 58.5569 73.4146 L 58.5569 73.4146 L 58.5569 73.4146 L 58.5569 73.4146 L 58.5569 73.4146 L 58.5569 73.4146 L 58.5569 73.4146 L 58.5569 73.4146 L 58.5569 73.4146 Z "/>
      <path id="Hand_1_" fill="#9B8579" stroke="#000000" stroke-width="0.9729114770889282" d="M 70.6409 86.9789 C 70.6409 86.9789 69.0497 92.3061 70.9999 92.7765 C 72.9496 93.2478 73.0513 90.0859 73.0513 90.0859 C 73.0513 90.0859 76.671 96.4628 80.4707 93.3884 C 84.2704 90.315 78.4563 84.7806 78.4563 84.7806 C 78.4563 84.7806 76.5684 83.5703 74.3356 84.0208 C 72.1061 84.4698 70.6409 86.9789 70.6409 86.9789 L 70.6409 86.9789 L 70.6409 86.9789 L 70.6409 86.9789 L 70.6409 86.9789 L 70.6409 86.9789 L 70.6409 86.9789 L 70.6409 86.9789 L 70.6409 86.9789 L 70.6409 86.9789 L 70.6409 86.9789 L 70.6409 86.9789 L 70.6409 86.9789 Z "/>
    </g>
    <g id="L_Arm">
      <path id="Arm" fill="#594A42" stroke="#000000" stroke-width="0.9729114770889282" d="M 44.8038 70.7371 C 44.7659 69.0258 43.2569 68.9966 43.2569 68.9966 C 41.0742 69.0953 33.7116 70.6471 29.3681 76.7458 C 25.5518 82.1065 25.4983 86.9414 25.4988 87.1457 L 25.4988 87.1457 C 26.0524 91.7661 30.5954 89.8344 30.3624 87.1744 C 30.3595 87.1394 30.953 83.903 33.3312 79.5677 C 35.2133 76.1368 40.7113 74.4911 42.1638 74.0693 C 42.1633 74.0688 44.8437 72.446 44.8038 70.7371 L 44.8038 70.7371 L 44.8038 70.7371 L 44.8038 70.7371 L 44.8038 70.7371 L 44.8038 70.7371 L 44.8038 70.7371 L 44.8038 70.7371 L 44.8038 70.7371 L 44.8038 70.7371 L 44.8038 70.7371 L 44.8038 70.7371 L 44.8038 70.7371 Z "/>
      <path id="Hand" fill="#9B8579" stroke="#000000" stroke-width="0.9729114770889282" d="M 27.7569 86.4754 C 25.4866 86.294 23.7563 87.7202 23.7563 87.7202 C 23.7563 87.7202 18.6417 93.9075 22.78 96.5066 C 26.9183 99.1082 29.7538 92.345 29.7538 92.345 C 29.7538 92.345 30.2301 95.4729 32.1107 94.7734 C 33.9914 94.0738 31.778 88.9738 31.778 88.9738 C 31.778 88.9738 30.0248 86.6569 27.7569 86.4754 L 27.7569 86.4754 L 27.7569 86.4754 L 27.7569 86.4754 L 27.7569 86.4754 L 27.7569 86.4754 L 27.7569 86.4754 L 27.7569 86.4754 L 27.7569 86.4754 L 27.7569 86.4754 L 27.7569 86.4754 L 27.7569 86.4754 L 27.7569 86.4754 Z "/>
    </g>
    <path id="Tail" fill="#594A42" stroke="#000000" stroke-width="0.9729114770889282" d="M 37.6286 111.1898 C 33.5535 112.5942 28.5387 113.3409 22.4361 112.7679 C 8.5794 111.468 2.0687 99.9814 0.5621 94.0889 C 0.1627 92.5269 1.105 90.9357 2.6665 90.5373 C 4.2285 90.1394 5.8183 91.0807 6.2172 92.6427 C 6.3553 93.1661 9.8116 105.7211 22.9814 106.9571 C 41.1855 108.6656 47.3922 96.5212 47.6481 96.0031 C 48.3583 94.5637 50.1013 93.9586 51.5451 94.6605 C 52.9894 95.3615 53.5999 97.0899 52.9062 98.5381 C 52.6727 99.0235 48.4999 107.4446 37.6286 111.1898 L 37.6286 111.1898 L 37.6286 111.1898 L 37.6286 111.1898 L 37.6286 111.1898 L 37.6286 111.1898 L 37.6286 111.1898 L 37.6286 111.1898 L 37.6286 111.1898 L 37.6286 111.1898 L 37.6286 111.1898 L 37.6286 111.1898 L 37.6286 111.1898 L 37.6286 111.1898 Z "/>
    <g id="L_Leg">
      <path id="Leg_1_" fill="#594A42" stroke="#000000" stroke-width="0.9729114770889282" d="M 40.9209 122.3116 C 39.411 121.3883 38.3427 119.0529 37.83 117.1221 C 37.0497 114.1825 36.538 112.1063 37.3435 106.8316 C 37.8091 103.7864 39.9811 99.5796 39.9811 99.5796 C 39.9811 99.5796 41.5591 96.043 44.1568 97.4207 C 45.5345 98.1591 44.1568 102.2166 44.1568 102.2166 C 44.1568 102.2166 43.0657 105.5941 42.7651 111.0069 C 42.5462 114.9632 44.9142 120.2495 44.3159 122.3919 C 44.0911 123.1975 42.4323 123.2364 40.9209 122.3116 L 40.9209 122.3116 L 40.9209 122.3116 L 40.9209 122.3116 L 40.9209 122.3116 L 40.9209 122.3116 L 40.9209 122.3116 L 40.9209 122.3116 L 40.9209 122.3116 L 40.9209 122.3116 L 40.9209 122.3116 L 40.9209 122.3116 L 40.9209 122.3116 Z "/>
      <path id="Foot_1_" fill="#C2B59B" stroke="#000000" stroke-width="0.9729114770889282" stroke-linecap="round" stroke-linejoin="round" d="M 45.0363 123.5356 C 45.0363 123.5356 43.5721 114.0117 32.8764 114.4505 C 22.1802 114.8903 22.5684 121.1811 22.6924 122.802 C 22.9863 126.6109 28.1145 126.5389 28.1145 126.5389 L 45.1103 124.7814 L 45.0363 123.5356 L 45.0363 123.5356 L 45.0363 123.5356 L 45.0363 123.5356 L 45.0363 123.5356 L 45.0363 123.5356 L 45.0363 123.5356 L 45.0363 123.5356 L 45.0363 123.5356 L 45.0363 123.5356 L 45.0363 123.5356 L 45.0363 123.5356 L 45.0363 123.5356 Z "/>
    </g>
    <g id="R_Leg">
      <path id="Leg" fill="#594A42" stroke="#000000" stroke-width="0.9729114770889282" d="M 59.3503 122.3924 C 58.7524 120.25 61.1205 114.9637 60.9011 111.0074 C 60.6005 105.5946 59.5094 102.2171 59.5094 102.2171 C 59.5094 102.2171 58.1317 98.1591 59.5094 97.4211 C 62.107 96.0435 63.6851 99.58 63.6851 99.58 C 63.6851 99.58 65.8571 103.7869 66.3222 106.8321 C 67.1277 112.1072 66.6165 114.183 65.8357 117.1226 C 65.323 119.0533 64.2547 121.3888 62.7448 122.3121 C 61.2343 123.2364 59.575 123.1975 59.3503 122.3924 L 59.3503 122.3924 L 59.3503 122.3924 L 59.3503 122.3924 L 59.3503 122.3924 L 59.3503 122.3924 L 59.3503 122.3924 L 59.3503 122.3924 L 59.3503 122.3924 L 59.3503 122.3924 L 59.3503 122.3924 L 59.3503 122.3924 L 59.3503 122.3924 Z "/>
      <path id="Foot" fill="#C2B59B" stroke="#000000" stroke-width="0.9729114770889282" stroke-linecap="round" stroke-linejoin="round" d="M 58.5569 124.7809 L 75.5522 126.5384 C 75.5522 126.5384 80.6799 126.6104 80.9742 122.8015 C 81.0988 121.1806 81.4865 114.8898 70.7898 114.45 C 60.0941 114.0112 58.6299 123.5351 58.6299 123.5351 L 58.5569 124.7809 L 58.5569 124.7809 L 58.5569 124.7809 L 58.5569 124.7809 L 58.5569 124.7809 L 58.5569 124.7809 L 58.5569 124.7809 L 58.5569 124.7809 L 58.5569 124.7809 L 58.5569 124.7809 L 58.5569 124.7809 L 58.5569 124.7809 L 58.5569 124.7809 Z "/>
    </g>
    <g id="Body_1_">
      <path id="Body" fill="#594A42" stroke="#000000" stroke-width="0.9729114770889282" d="M 64.3146 98.5478 C 66.9833 94.8663 67.7859 89.688 66.4632 84.6969 C 65.3434 80.4706 65.7997 82.0993 63.2025 76.2306 C 57.3145 62.9246 45.1093 61.3427 40.3561 71.0951 C 38.5242 74.854 38.1204 76.6553 38.1219 76.6762 L 38.1282 76.7711 L 38.0975 76.866 C 38.0717 76.9428 35.5227 84.6016 36.338 91.2743 C 37.0974 97.4888 43.0224 103.7806 52.8785 103.7806 C 53.3367 103.7806 53.8066 103.7674 54.2746 103.7407 C 58.5588 103.495 62.0297 101.699 64.3146 98.5478 L 64.3146 98.5478 L 64.3146 98.5478 L 64.3146 98.5478 L 64.3146 98.5478 L 64.3146 98.5478 L 64.3146 98.5478 L 64.3146 98.5478 L 64.3146 98.5478 L 64.3146 98.5478 L 64.3146 98.5478 L 64.3146 98.5478 L 64.3146 98.5478 Z "/>
      <path id="Belly" fill="#C2B59B" stroke="#000000" stroke-width="0.9729114770889282" d="M 42.6736 100.8813 C 42.2455 99.8894 40.6057 95.6976 41.2001 90.9878 C 41.8817 85.5891 45.2888 81.6575 50.7911 81.1341 C 56.2934 80.6107 60.958 84.6458 62.4777 90.0431 C 63.5134 93.7212 63.6608 98.3697 63.6807 99.3816 L 63.6744 99.4764 C 61.4936 101.81 58.3793 103.3822 54.3014 103.6171 C 49.6192 103.8861 45.7217 102.8237 42.7291 100.9825 L 42.6736 100.8813 L 42.6736 100.8813 L 42.6736 100.8813 L 42.6736 100.8813 L 42.6736 100.8813 L 42.6736 100.8813 L 42.6736 100.8813 L 42.6736 100.8813 L 42.6736 100.8813 L 42.6736 100.8813 L 42.6736 100.8813 L 42.6736 100.8813 L 42.6736 100.8813 Z "/>
    </g>
    <g id="R_Ear">
      <path id="Ear_1_" fill="#9B8579" stroke="#000000" stroke-width="0.9729114770889282" d="M 72.6656 39.8778 C 72.6656 39.8778 75.4724 39.6944 77.5549 38.3046 C 80.6571 36.2338 81.2909 31.5404 78.3605 26.9824 C 75.4306 22.4248 72.9428 22.2783 70.71 23.3777 C 69.1251 24.158 68.753 26.2133 68.6883 26.6676 L 68.6752 26.7202 C 71.2957 33.2552 71.6489 39.0718 71.6489 39.0718 C 71.6489 39.0718 72.3893 39.4171 72.6656 39.8778 L 72.6656 39.8778 L 72.6656 39.8778 L 72.6656 39.8778 L 72.6656 39.8778 L 72.6656 39.8778 L 72.6656 39.8778 L 72.6656 39.8778 L 72.6656 39.8778 L 72.6656 39.8778 L 72.6656 39.8778 L 72.6656 39.8778 L 72.6656 39.8778 Z "/>
      <path id="Inner_Ear_1_" fill="none" stroke="#000000" stroke-width="1.9458229541778564" stroke-linecap="round" d="M 74.6853 30.1545 C 74.6853 30.1545 73.9167 32.3236 70.7022 33.3997 "/>
    </g>
    <g id="L_Ear">
      <path id="Ear" fill="#9B8579" stroke="#000000" stroke-width="0.9729114770889282" d="M 19.9858 32.4793 C 19.9858 32.4793 19.6025 30.0266 18.0692 29.6433 C 16.5359 29.2599 12.8563 29.0303 10.5564 33.9362 C 8.2564 38.8421 9.5071 43.4105 12.8563 45.0522 C 14.6903 45.9507 16.8997 45.8418 17.6508 45.7717 C 17.6508 45.7717 18.9599 44.3673 19.298 44.0677 C 19.298 44.0672 18.993 39.0552 20.0116 32.8057 L 19.9858 32.4793 L 19.9858 32.4793 L 19.9858 32.4793 L 19.9858 32.4793 L 19.9858 32.4793 L 19.9858 32.4793 L 19.9858 32.4793 L 19.9858 32.4793 L 19.9858 32.4793 L 19.9858 32.4793 L 19.9858 32.4793 L 19.9858 32.4793 L 19.9858 32.4793 Z "/>
      <path id="Inner_Ear" fill="none" stroke="#000000" stroke-width="1.9458229541778564" stroke-linecap="round" stroke-linejoin="round" d="M 15.0872 36.7805 C 15.0872 36.7805 16.1365 38.8285 19.4648 39.4682 "/>
    </g>
    <path id="Head_1_" fill="#726658" stroke="#000000" stroke-width="0.9729114770889282" d="M 72.6364 39.3315 C 70.9469 38.3567 69.2759 37.7812 68.1347 37.464 L 68.125 37.4149 C 68.125 37.4149 63.0887 17.1204 52.2043 17.1204 C 46.9053 17.1204 43.9345 26.1199 43.9345 26.1199 C 43.9345 26.1199 40.2049 17.5257 32.2192 18.8634 C 23.2358 20.3685 22.3247 40.0641 22.2644 41.6967 L 22.2673 41.8003 C 21.2866 42.3826 20.0831 43.2018 18.9039 44.2705 L 18.9015 44.1576 C 18.8066 42.188 17.8196 14.6702 36.6931 9.6762 L 36.7072 9.6188 C 36.6562 8.9961 36.6343 7.6754 37.0332 5.6591 C 37.6072 2.7593 39.3623 0.3382 39.3623 0.3382 C 39.3623 0.3382 39.8244 2.843 41.0771 4.6555 C 42.3662 6.5206 43.4972 7.0756 43.4972 7.0756 C 43.4972 7.0756 43.1046 5.6274 43.1679 4.4741 C 43.2968 2.1323 44.421 0.9701 44.421 0.9701 C 44.421 0.9701 45.784 4.3028 47.4866 6.2243 C 49.3074 8.2796 51.5125 9.6237 51.5125 9.6237 L 51.5446 9.6324 C 71.1254 14.5018 72.6223 39.0718 72.6223 39.0718 L 72.6364 39.3315 L 72.6364 39.3315 L 72.6364 39.3315 L 72.6364 39.3315 L 72.6364 39.3315 L 72.6364 39.3315 L 72.6364 39.3315 L 72.6364 39.3315 L 72.6364 39.3315 L 72.6364 39.3315 L 72.6364 39.3315 L 72.6364 39.3315 L 72.6364 39.3315 Z "/>
    <path id="Face" fill="#C2B59B" stroke="#000000" stroke-width="0.9729114770889282" d="M 68.125 37.4149 C 68.125 37.4149 63.0887 17.1204 52.2043 17.1204 C 46.9053 17.1204 43.9345 26.1199 43.9345 26.1199 C 43.9345 26.1199 40.2049 17.5257 32.2192 18.8634 C 23.2057 20.3734 22.3189 40.195 22.2639 41.7122 L 22.2332 41.8207 C 19.0518 43.7179 15.2044 47.4685 15.7682 54.76 C 16.5587 64.9755 29.6969 72.5496 49.8503 70.4482 C 71.4183 68.1983 79.5353 57.846 77.0923 47.0073 C 75.6748 40.7174 71.0466 38.2803 68.1639 37.4733 L 68.125 37.4149 L 68.125 37.4149 L 68.125 37.4149 L 68.125 37.4149 L 68.125 37.4149 L 68.125 37.4149 L 68.125 37.4149 L 68.125 37.4149 L 68.125 37.4149 L 68.125 37.4149 L 68.125 37.4149 L 68.125 37.4149 L 68.125 37.4149 Z "/>
    <path id="Mouth" d="M 54.4678 56.6857 C 54.1716 56.2441 53.5694 56.1271 53.1235 56.416 C 53.1069 56.4271 51.3756 57.511 46.3871 57.8996 C 45.6195 55.0718 46.1155 53.2824 46.1244 53.2532 C 46.2005 52.9967 46.0557 52.7261 45.7987 52.6486 C 45.5393 52.5705 45.2701 52.7167 45.1921 52.9732 C 45.1655 53.0612 44.6209 54.954 45.3979 57.9648 C 40.7204 58.2118 38.8217 57.4629 38.7698 57.4417 C 38.2818 57.2294 37.7117 57.4482 37.493 57.9356 C 37.2734 58.4259 37.4926 59.0014 37.9829 59.2211 C 38.1796 59.3095 39.7304 59.9479 43.3905 59.9643 C 44.2291 59.9681 45.1788 59.9393 46.2479 59.8633 C 52.0046 59.4562 54.0102 58.1688 54.2201 58.0238 C 54.6568 57.7203 54.7636 57.1268 54.4678 56.6857 L 54.4678 56.6857 L 54.4678 56.6857 L 54.4678 56.6857 L 54.4678 56.6857 L 54.4678 56.6857 L 54.4678 56.6857 L 54.4678 56.6857 L 54.4678 56.6857 L 54.4678 56.6857 L 54.4678 56.6857 L 54.4678 56.6857 L 54.4678 56.6857 Z " stroke-width="0.48645575561794946" fill="undefined"/>
    <path id="Nose" fill="#726658" stroke="#000000" stroke-width="0.8002981431290744" d="M 45.2892 47.5411 C 46.9372 47.4822 48.4429 47.7676 49.5438 48.2765 C 50.6446 48.7853 51.341 49.5176 51.3708 50.3518 C 51.4006 51.1859 50.7582 51.966 49.6965 52.5521 C 48.6347 53.1382 47.1532 53.5302 45.5052 53.5891 C 43.8573 53.648 42.3516 53.3626 41.2507 52.8538 C 40.1498 52.3449 39.4534 51.6126 39.4236 50.7784 C 39.3938 49.9443 40.0362 49.1642 41.098 48.5781 C 42.1597 47.992 43.6413 47.6 45.2892 47.5411 L 45.2892 47.5411 L 45.2892 47.5411 L 45.2892 47.5411 L 45.2892 47.5411 L 45.2892 47.5411 L 45.2892 47.5411 L 45.2892 47.5411 L 45.2892 47.5411 L 45.2892 47.5411 L 45.2892 47.5411 L 45.2892 47.5411 Z "/>
    <g id="L_Eye_1_">
      <path id="White" fill="#F1F2F2" d="M 62.891 45.2166 C 63.0151 42.2025 63.0272 31.4071 56.787 32.0526 C 49.8647 32.7687 52.7975 44.518 53.0748 45.5722 L 53.0797 45.65 C 54.091 45.4476 55.6015 45.2107 57.4743 45.112 C 60.2651 44.9656 62.174 45.1631 62.8696 45.2565 L 62.891 45.2166 L 62.891 45.2166 L 62.891 45.2166 L 62.891 45.2166 L 62.891 45.2166 L 62.891 45.2166 L 62.891 45.2166 L 62.891 45.2166 L 62.891 45.2166 L 62.891 45.2166 L 62.891 45.2166 L 62.891 45.2166 L 62.891 45.2166 Z " stroke-width="0.4864557385444641"/>
      <path id="Pupil" fill="#594A42" stroke="#000000" stroke-width="0.9729114770889282" d="M 55.9167 44.8916 C 55.9167 44.8916 54.1246 35.5274 57.3041 35.5274 C 60.4821 35.5274 60.7136 44.8916 60.7136 44.8916 "/>
      <path id="Outline" d="M 60.6883 32.5026 C 59.6118 31.4494 58.2736 30.9984 56.7116 31.1585 C 55.0498 31.3307 53.7568 32.0784 52.8676 33.3816 C 50.5924 36.7153 51.7147 42.7974 52.205 44.9247 C 51.7444 45.0332 51.4807 45.112 51.4496 45.1212 L 51.8762 46.5169 C 51.8981 46.5101 54.0798 45.8529 57.5128 45.6729 C 59.6089 45.562 61.1981 45.6524 62.1224 45.7395 C 62.1219 45.7483 62.121 45.7595 62.121 45.7609 L 62.8073 45.8164 C 62.9528 45.8363 63.0301 45.849 63.034 45.8499 L 63.037 45.8349 L 63.5755 45.8782 C 63.6076 45.4788 64.3241 36.0576 60.6883 32.5026 L 60.6883 32.5026 L 60.6883 32.5026 L 60.6883 32.5026 L 60.6883 32.5026 L 60.6883 32.5026 L 60.6883 32.5026 L 60.6883 32.5026 L 60.6883 32.5026 L 60.6883 32.5026 L 60.6883 32.5026 L 60.6883 32.5026 L 60.6883 32.5026 Z M 62.1822 44.2777 C 61.1918 44.1868 59.57 44.1021 57.4354 44.215 C 55.9094 44.2952 54.6247 44.4645 53.6377 44.6353 C 53.1989 42.723 52.1262 37.0558 54.0725 34.2042 C 54.7176 33.259 55.6297 32.7375 56.8614 32.6106 C 57.9885 32.4919 58.904 32.7998 59.6673 33.545 C 62.0383 35.862 62.2333 41.5633 62.1822 44.2777 L 62.1822 44.2777 L 62.1822 44.2777 L 62.1822 44.2777 L 62.1822 44.2777 L 62.1822 44.2777 L 62.1822 44.2777 L 62.1822 44.2777 L 62.1822 44.2777 L 62.1822 44.2777 L 62.1822 44.2777 L 62.1822 44.2777 L 62.1822 44.2777 Z " stroke-width="0.4864557385444641" fill="undefined"/>
    </g>
    <g id="R_Eye_1_">
      <path id="White_1_" fill="#F1F2F2" d="M 37.6447 46.9166 C 37.7688 43.9025 37.7809 33.1071 31.5407 33.7526 C 24.6184 34.4687 27.5513 46.218 27.8285 47.2722 L 27.8334 47.35 C 28.8447 47.1476 30.3552 46.9107 32.228 46.812 C 35.0188 46.6656 36.9277 46.8631 37.6233 46.9565 L 37.6447 46.9166 L 37.6447 46.9166 L 37.6447 46.9166 L 37.6447 46.9166 L 37.6447 46.9166 L 37.6447 46.9166 L 37.6447 46.9166 L 37.6447 46.9166 L 37.6447 46.9166 L 37.6447 46.9166 L 37.6447 46.9166 L 37.6447 46.9166 L 37.6447 46.9166 Z " stroke-width="0.4864557385444641"/>
      <path id="Pupil_1_" fill="#594A42" stroke="#000000" stroke-width="0.9729114770889282" d="M 30.6704 46.5916 C 30.6704 46.5916 28.8783 37.2274 32.0578 37.2274 C 35.2358 37.2274 35.4673 46.5916 35.4673 46.5916 "/>
      <path id="Outline_1_" d="M 35.4425 34.2026 C 34.366 33.1494 33.0278 32.6984 31.4658 32.8585 C 29.804 33.0307 28.511 33.7784 27.6218 35.0816 C 25.3466 38.4153 26.4689 44.4974 26.9592 46.6247 C 26.4986 46.7332 26.2349 46.812 26.2038 46.8212 L 26.6304 48.2169 C 26.6523 48.2101 28.834 47.5529 32.267 47.3729 C 34.3631 47.262 35.9523 47.3524 36.8766 47.4395 C 36.8761 47.4483 36.8752 47.4595 36.8752 47.4609 L 37.5615 47.5164 C 37.707 47.5363 37.7843 47.549 37.7882 47.5499 L 37.7911 47.5349 L 38.3297 47.5782 C 38.3618 47.1788 39.0778 37.7576 35.4425 34.2026 L 35.4425 34.2026 L 35.4425 34.2026 L 35.4425 34.2026 L 35.4425 34.2026 L 35.4425 34.2026 L 35.4425 34.2026 L 35.4425 34.2026 L 35.4425 34.2026 L 35.4425 34.2026 L 35.4425 34.2026 L 35.4425 34.2026 L 35.4425 34.2026 Z M 36.9364 45.9777 C 35.946 45.8868 34.3242 45.8021 32.1896 45.915 C 30.6636 45.9952 29.3789 46.1645 28.3918 46.3353 C 27.9531 44.423 26.8804 38.7558 28.8267 35.9042 C 29.4718 34.959 30.3839 34.4375 31.6156 34.3106 C 32.7427 34.1919 33.6582 34.4998 34.4215 35.245 C 36.792 37.562 36.9875 43.2633 36.9364 45.9777 L 36.9364 45.9777 L 36.9364 45.9777 L 36.9364 45.9777 L 36.9364 45.9777 L 36.9364 45.9777 L 36.9364 45.9777 L 36.9364 45.9777 L 36.9364 45.9777 L 36.9364 45.9777 L 36.9364 45.9777 L 36.9364 45.9777 L 36.9364 45.9777 Z " stroke-width="0.4864557385444641" fill="undefined"/>
    </g>
  </g>
</svg>