<svg xmlns="http://www.w3.org/2000/svg" xmlns:xlink="http://www.w3.org/1999/xlink" version="1.1" id="Ebene_1" x="0px" y="0px" viewBox="14.519472122192383 31.313796997070312 293.4410400390625 293.98468017578125" enable-background="new 0 0 317 342" xml:space="preserve" width="293.4410400390625" height="293.98468017578125">
  <g>
    <path fill="#9C532B" d="M233.8,166.8c6.8-19.4,28.5-63.7,56.2-46.4c8,5,21,24.1,12.9,33.3c-7.5,8.6-16.8-7.2-22.3-11.7&#13;&#10;&#9;c-21.8-17.5-29.4,44.4-35.5,57.7c-11.8,25.9-35.3,45.8-63.6,31.2c-3.5-1.8-6.8-3.9-10.1-5.9c9.4-15.9,28.3-2.7,42-15.9&#13;&#10;&#9;C224.5,198.5,228.9,180.8,233.8,166.8z" stroke-width="1"/>
    <path fill="#9C532B" d="M165.6,322.2c-21.8,6.5-22.4-41.8-10.4-55.2c5-5.5,15.9-18.3,23.3-14.4c6.6,3.5,7,17.1,6.9,25.1&#13;&#10;&#9;C185.2,295.2,179.5,318.1,165.6,322.2z" stroke-width="1"/>
    <path fill="#9C532B" d="M94,322.2c21.8,6.5,22.4-41.8,10.4-55.2c-5-5.5-15.9-18.3-23.3-14.4c-6.6,3.5-7,17.1-6.9,25.1&#13;&#10;&#9;C74.4,295.2,80.1,318.1,94,322.2z" stroke-width="1"/>
    <ellipse fill="#FAC18A" cx="136.7" cy="235.9" rx="62.5" ry="53" stroke-width="1"/>
    <path fill="#9C532B" d="M83.2,192.5c15.4,7.1,2.9,24.4-0.1,35.8c-3,11.2,5.7,22.6-0.1,33.3c-6.2,11.4-20.4,11.2-29.3,4.4&#13;&#10;&#9;c-11-8.4-13.6-22.7,3.8-19.8c-14-3.1-8.5-27.7-6.4-33.3C55.4,201.3,72,187.4,83.2,192.5z" stroke-width="1"/>
    <path fill="#9C532B" d="M183.9,197.4c-15.4,7.1-2.9,24.4,0.1,35.8c3,11.2-5.7,22.6,0.1,33.3c6.2,11.4,20.4,11.2,29.3,4.4&#13;&#10;&#9;c11-8.4,13.6-22.7-3.8-19.8c14-3.1,8.5-27.7,6.4-33.3C211.6,206.2,195.1,192.2,183.9,197.4z" stroke-width="1"/>
    <g>
      <path fill="#9C532B" d="M236.8,72.4c-4.6,0.7-8.7,2.6-12.1,5.3c-18.6-29.7-54.8-47.7-94-43.2C92.2,39.1,61.5,64,49.6,96.3&#13;&#10;&#9;&#9;c-3-1-6.3-1.4-9.6-1.1c-13.7,1.1-24,12.9-22.9,26.4c1.1,13.5,13,23.5,26.8,22.5c0.8-0.1,1.7-0.2,2.5-0.3&#13;&#10;&#9;&#9;c9.7,45.2,55,76.3,105.2,70.5c50.3-5.8,87.4-46.7,86.3-93.2c2.1,0.2,4.3,0.2,6.4-0.1c13.6-2.1,23-14.6,20.9-28&#13;&#10;&#9;&#9;C263.1,79.5,250.4,70.4,236.8,72.4z" stroke-width="1"/>
      <path fill="#FAC18A" stroke="#9D532A" stroke-width="5" stroke-miterlimit="10" d="M232.8,143.9c-3.1-10.5-9.8-19.5-20.6-22.3&#13;&#10;&#9;&#9;c2-9,2.7-18.2-0.4-27c-14.3-40.4-65.8-32-71.8,8.3c-6.5-10.8-4.3-13.4-16.5-21c-36.1-22.5-73.8,16.8-50.6,52.6&#13;&#10;&#9;&#9;c-5.4,8.1-10.2,16.9-10.2,27.1c0,6.2,1.1,11.8,3,16.7c20,22.2,51.3,34.8,84.8,31C190.4,204.6,222,177.9,232.8,143.9z"/>
      <path fill="#FAC18A" d="M256.7,94.8c1.5,9.6-5.9,18.8-16.6,20.5c-10.7,1.7-2.5-5.3-4-14.9c-1.5-9.6-12.2-18.3-1.5-20&#13;&#10;&#9;&#9;C245.3,78.8,255.2,85.2,256.7,94.8z" stroke-width="1"/>
      <path fill="#FAC18A" d="M23.4,120.5c0.8,9.7,10.1,16.9,21,16.1c10.8-0.9,1.2-8.8,0.4-18.5c-0.8-9.7,7.6-17.5-3.2-16.7&#13;&#10;&#9;&#9;C30.8,102.3,22.7,110.8,23.4,120.5z" stroke-width="1"/>
      <path fill="#9C532B" d="M152.3,134c0.5,3.8-4.3,7.7-10.7,8.6c-6.5,0.9-12.1-1.4-12.7-5.3c-0.5-3.8,4.3-7.7,10.7-8.6&#13;&#10;&#9;&#9;C146.1,127.8,151.8,130.1,152.3,134z" stroke-width="1"/>
    </g>
    <path fill="#FFFFFF" d="M100.6,101.7c8.1,0,14.8,6.2,14.8,13.8s-6.6,13.8-14.8,13.8s-14.8-6.2-14.8-13.8S92.5,101.7,100.6,101.7" stroke-width="1"/>
    <ellipse fill="#251E22" cx="102.8" cy="112.1" rx="6.5" ry="6.4" stroke-width="1"/>
    <path fill="#FFFFFF" d="M181.1,91.8c8.1,0,14.8,6.2,14.8,13.8s-6.6,13.8-14.8,13.8s-14.8-6.2-14.8-13.8S173,91.8,181.1,91.8" stroke-width="1"/>
    <ellipse fill="#251E22" cx="183.4" cy="102.2" rx="6.5" ry="6.4" stroke-width="1"/>
    <path fill="#251E22" d="M111.3,166.8c2.4,24.8,22.6,26.4,32.4,26.4c9.8,0,30-1.6,32.4-26.4H111.3z" stroke-width="1"/>
  </g>
</svg>