<svg xmlns="http://www.w3.org/2000/svg" xmlns:xlink="http://www.w3.org/1999/xlink" version="1.1" id="Ebene_1" x="0px" y="0px" viewBox="0.20466989278793335 53.504234313964844 500.3982238769531 466.7957458496094" enable-background="new 0 0 506 537" xml:space="preserve" width="500.3982238769531" height="466.7957458496094">
  <g>
    <path fill="#2E3C72" d="M266.7,404.7l37.4-17l-20.3-43.8c-2.6-5.6-9.3-8.1-14.9-5.5l-16.8,7.6c-5.7,2.6-8.2,9.4-5.6,15.1&#13;&#10;&#9;L266.7,404.7z" stroke-width="1"/>
    <g>
      <path fill="#E8AD7C" d="M305.1,387.7L305.1,387.7c10.1,25.3,13.4,52.8,9.7,79.7l-4.7,34.5h-20.7v-25.9c0-25.4-7.6-50.2-21.8-71.4v0&#13;&#10;&#9;&#9;L305.1,387.7z" stroke-width="1"/>
      <path fill="#F0BB96" d="M305.1,387.7L305.1,387.7c10.1,25.3,13.4,52.8,9.7,79.7l-4.7,34.5h-20.7v-25.9c0-25.4-7.6-50.2-21.8-71.4v0&#13;&#10;&#9;&#9;L305.1,387.7z" stroke-width="1"/>
    </g>
    <g>
      <g>
        <path fill="#2F3535" d="M71,90.3c0,0,129.6-68.1,367.6-1.7l5.3,7.7l-8.2,0.4c0,0-174.4-62.9-336.5-7.3l-40.4,13.7L57,92.5L71,90.3&#13;&#10;&#9;&#9;&#9;z" stroke-width="1"/>
        <ellipse transform="matrix(0.9959,0.09032157,-0.09032157,0.9959,11.2568,-40.3705)" fill="#2F3535" cx="451.7" cy="104.2" rx="44.7" ry="43.1" stroke-width="1"/>
        <ellipse transform="matrix(0.9858,-0.1677,0.1677,0.9858,-16.7046,10.1856)" fill="#2F3535" cx="52" cy="104" rx="44.7" ry="43.1" stroke-width="1"/>
      </g>
    </g>
    <path fill="#F0BB96" d="M232.8,215.2c0,0-11.4,2-24.7,7.8c-24.2,10.6-34.3,34-24.1,54.3l33.4,66.8h64.9l33.4-68.4&#13;&#10;&#9;c9.9-20.4-0.3-43.7-24.6-54.1C276.9,215.5,257.7,211.8,232.8,215.2z" stroke-width="1"/>
    <path fill="#2E3C72" d="M236.1,405.7l-37.4-17l20.3-43.8c2.6-5.6,9.3-8.1,14.9-5.5l16.8,7.6c5.7,2.6,8.2,9.4,5.6,15.1L236.1,405.7z" stroke-width="1"/>
    <g>
      <defs>
        <rect id="SVGID_1_" x="154" y="210.2" width="191" height="150.8" stroke-width="1"/>
      </defs>
      <clipPath id="SVGID_2_">
        <use xlink:href="#SVGID_1_" overflow="visible"/>
      </clipPath>
      <path clip-path="url(#SVGID_2_)" fill="#79BD6D" d="M293.4,363.2c0,0,16.6-54.5,15.3-74.2c0,0-19.4,9.6-18.3-18.7&#13;&#10;&#9;&#9;c0,0,3.3-39,11.1-47.1l-8.3-4.4c0,0,0.1,32.2-23.4,45.1c0,0-6.5,2.8-14.7,3.5c-9.3,0.7-20.8-1.3-27.4-13.6c0,0-13.7-22.9-14.2-34.3&#13;&#10;&#9;&#9;l-5.5,1.9c0,0,11,31.2,6.6,50.8c-0.7,2.9-0.9,5.6-2.3,7.8c0,0-7.7,24.8-13.6,25.7c-1.1,0.2-1.5-1-1.5-1s7.5,46.5,13.8,54.7&#13;&#10;&#9;&#9;c0,0-24.1,16.5-3.1,69.8l29.4,0.3c0,0-3.7-28.5,14.1-34.5c14.8,8.9,8.5,34.9,8.5,34.9l29.2,2.9&#13;&#10;&#9;&#9;C315.6,382.3,293.4,363.2,293.4,363.2z" stroke-width="1"/>
    </g>
    <path fill="#F0BB96" d="M263.1,226.8h-18.8c-3.5,0-6.4-2.9-6.4-6.4v-20.2h31.6v20.2C269.5,223.9,266.6,226.8,263.1,226.8z" stroke-width="1"/>
    <polygon fill="#C1292E" points="201.7,331.5 302.7,331.5 297.2,347 206.8,347 " stroke-width="1"/>
    <path fill="#F0BB96" d="M198.4,388.7L198.4,388.7c-10.1,25.3-13.4,52.8-9.7,79.7l4.7,34.5h20.7v-25.9c0-25.4,7.6-50.2,21.8-71.4v0&#13;&#10;&#9;L198.4,388.7z" stroke-width="1"/>
    <path fill="#F0BB96" d="M214.4,503v12c0,2.7-2.2,4.8-4.9,4.8H153c-2.3,0-4.2-1.9-4.2-4.2l0,0c0-2.3,1.9-4.2,4.2-4.2h13.7&#13;&#10;&#9;c9.7,0,19.1-2.9,27-8.4l0,0H214.4z" stroke-width="1"/>
    <g>
      <path fill="#F0BB96" d="M383.9,182c11.8,12.9,2.9,39.9-19.8,60.3c-22.8,20.4-50.8,26.4-62.6,13.5c-11.8-12.9-2.9-39.9,19.8-60.3&#13;&#10;&#9;&#9;C344,175.1,372,169.1,383.9,182z" stroke-width="1"/>
      <path fill="#F0BB96" d="M395.7,157.4c1.4,27-5.5,49.3-15.3,49.7c-9.8,0.4-18.9-21.1-20.2-48.1c-1.4-27,5.5-49.3,15.3-49.7&#13;&#10;&#9;&#9;C385.2,108.8,394.3,130.4,395.7,157.4z" stroke-width="1"/>
      <polygon fill="#C1292E" points="362.3,129.1 389.5,125.1 378.5,87.2 359.9,89.4 &#9;" stroke-width="1"/>
      <ellipse transform="matrix(0.9715,0.2369,-0.2369,0.9715,29.5105,-84.853)" fill="#F0BB96" cx="367.8" cy="80.3" rx="16.2" ry="16" stroke-width="1"/>
    </g>
    <path fill="#DD4B48" d="M145.5,225.8" stroke-width="1"/>
    <path fill="#F0BB96" d="M289.2,501v12c0,2.7,2.2,4.8,4.9,4.8h56.5c2.3,0,4.2-1.9,4.2-4.2l0,0c0-2.3-1.9-4.2-4.2-4.2h-13.7&#13;&#10;&#9;c-9.7,0-19.1-2.9-27-8.4l0,0H289.2z" stroke-width="1"/>
    <g>
      <path fill="#F0BB96" d="M121.5,176c-11.8,12.9-2.9,39.9,19.9,60.3c22.8,20.4,50.9,26.5,62.7,13.5c11.8-12.9,2.9-39.9-19.9-60.3&#13;&#10;&#9;&#9;C161.5,169.1,133.4,163.1,121.5,176z" stroke-width="1"/>
      <path fill="#F0BB96" d="M111.7,157.4c-1.4,27,5.4,49.3,15.2,49.7c9.8,0.4,18.9-21.1,20.3-48.1c1.4-27-5.4-49.3-15.2-49.7&#13;&#10;&#9;&#9;C122.2,108.8,113.1,130.4,111.7,157.4z" stroke-width="1"/>
      <polygon fill="#C1292E" points="145.1,129.1 117.9,125.1 128.9,87.2 147.6,89.4 &#9;" stroke-width="1"/>
      <ellipse transform="matrix(-0.9718,0.2358,-0.2358,-0.9718,294.3954,125.4945)" fill="#F0BB96" cx="139.7" cy="80.4" rx="16.2" ry="16" stroke-width="1"/>
    </g>
    <ellipse fill="#F0BB96" cx="254.4" cy="138.8" rx="78.5" ry="66.8" stroke-width="1"/>
    <path fill="#010202" d="M229.9,124.8c4.2-0.8,14.9-5.9,14.9-10.4c0-4.6-10.7-9.7-14.9-10.4c-3.5-0.6-6.6,0.8,9.5,10.4&#13;&#10;&#9;C223.2,124,226.4,125.4,229.9,124.8" stroke-width="1"/>
    <path fill="#010202" d="M279.8,124.8c-4.2-0.8-14.9-5.9-14.9-10.4c0-4.6,10.7-9.7,14.9-10.4c3.5-0.6,6.6,0.8-9.5,10.4&#13;&#10;&#9;C286.5,124,283.3,125.4,279.8,124.8" stroke-width="1"/>
    <g>
      <path fill="#251E22" d="M222.1,154.9c2.4,24.8,22.6,26.4,32.4,26.4c9.8,0,30-1.6,32.4-26.4H222.1z" stroke-width="1"/>
      <path fill="#C1292E" d="M268.6,173.4c-11.1-2.7-22.7,0-33.2,4c6.6,3.5,14.1,3.9,19,3.9c5.4,0,14-0.5,20.9-5&#13;&#10;&#9;&#9;C273.3,174.9,271.1,174,268.6,173.4z" stroke-width="1"/>
    </g>
    <path d="M225.1,146.8c2.6,1.7,6.8,3.6,12.7,3.2c0,0,0,0,0.1,0c6.5-0.4,10.5-2.5,14.3-4.6c0.5-0.3,1-0.5,1.5-0.8&#13;&#10;&#9;c0.3,0.2,0.6,0.3,0.9,0.5c4.1,2.3,8,4.5,14.8,4.8c0,0,0,0,0.1,0c4.4,0.2,8.7-0.7,12.8-3.2c1.5-1,3.1-2.3,4.4-3.7&#13;&#10;&#9;c0-0.1,0.1-0.1,0.1-0.2c1-1.1,2.8-3.2,2.7-4.8c0-0.5-0.2-0.9-0.6-1.2c-0.3-0.2-0.7-0.4-1.1-0.3c-0.7,0-1.4,0.5-2.1,1&#13;&#10;&#9;c-0.4,0.2-0.8,0.5-1.1,0.6c-1.2,0.5-3,1-4.2,1.2c-0.5,0.1-1,0.1-1.5,0.1c-3.3,0.1-5-1-6.9-2.1c-0.7-0.4-1.5-0.9-2.4-1.3&#13;&#10;&#9;c-2.8-1.3-6.7-1.9-10.1-1.9c-2.3,0-4.3,1.5-5.9,2.2c-1.6-0.7-3.5-2.1-5.8-2.2c-3.8-0.1-7.4,0.7-9.4,1.5c-0.9,0.3-1.6,0.8-2.5,1.3&#13;&#10;&#9;c-1,0.6-2.1,1.3-3.3,1.7c-1.1,0.4-2.5,0.6-4,0.6c-2,0-4.2-0.5-5.9-1.3c-0.2-0.1-0.4-0.2-0.7-0.4c-0.8-0.4-1.7-1-2.6-1.1&#13;&#10;&#9;c-0.5,0-1,0.1-1.3,0.5c-1.4,1.6,0.8,4.1,2.2,5.4c0.2,0.2,0.3,0.3,0.4,0.5C222.1,144.6,223.5,145.8,225.1,146.8z" stroke-width="1" fill="undefined"/>
    <polygon fill="#2E3C72" points="205.7,346.5 297.7,346.5 292.7,362 210.4,362 " stroke-width="1"/>
  </g>
</svg>