<svg xmlns="http://www.w3.org/2000/svg" xmlns:xlink="http://www.w3.org/1999/xlink" version="1.1" id="Ebene_1" x="0px" y="0px" viewBox="13.211587905883789 13.699999809265137 226.8972625732422 236.6594696044922" enable-background="new 0 0 262 267" xml:space="preserve" width="226.8972625732422" height="236.6594696044922">
  <g>
    <g>
      <g>
        <path fill="#683D14" d="M155.5,109.4c-12.7,21-26.7,36-31.2,33.4c-4.5-2.5,2.2-21.6,14.9-42.6s26.7-36,31.2-33.4&#13;&#10;&#9;&#9;&#9;C174.9,69.3,168.2,88.4,155.5,109.4z" stroke-width="1"/>
        <path fill="#683D14" d="M155.5,109.4c-12.7,21-26.7,36-31.2,33.4c-4.5-2.5,2.2-21.6,14.9-42.6s26.7-36,31.2-33.4&#13;&#10;&#9;&#9;&#9;C174.9,69.3,168.2,88.4,155.5,109.4z" stroke-width="1"/>
      </g>
      <g>
        <path fill="#683D14" d="M64,189.2c-23.7,8.3-44.3,11.2-46.1,6.4c-1.8-4.7,16-15.3,39.7-23.5c23.7-8.3,44.3-11.2,46.1-6.4&#13;&#10;&#9;&#9;&#9;S87.7,181,64,189.2z" stroke-width="1"/>
        <path fill="#683D14" d="M64,189.2c-23.7,8.3-44.3,11.2-46.1,6.4c-1.8-4.7,16-15.3,39.7-23.5c23.7-8.3,44.3-11.2,46.1-6.4&#13;&#10;&#9;&#9;&#9;S87.7,181,64,189.2z" stroke-width="1"/>
      </g>
      <g>
        <path fill="#683D14" d="M126.5,145.8c-22.5,26-44,44.4-47.9,41.2c-4-3.2,11-26.9,33.5-52.9S156,89.7,160,93&#13;&#10;&#9;&#9;&#9;S148.9,119.8,126.5,145.8z" stroke-width="1"/>
        <path fill="#683D14" d="M126.5,145.8c-22.5,26-44,44.4-47.9,41.2c-4-3.2,11-26.9,33.5-52.9S156,89.7,160,93&#13;&#10;&#9;&#9;&#9;S148.9,119.8,126.5,145.8z" stroke-width="1"/>
      </g>
      <g>
        <path fill="#ECCC00" d="M66.2,155.6c12.4-8.5,22.8-19.5,33.1-30.6c10.7-11.6,19.3-24.3,27.3-38c4.3-7.3,8.4-14.8,12.8-22&#13;&#10;&#9;&#9;&#9;c2.3-3.8,4.7-7.4,7.7-10.7c2-2.2,4.4-4.4,5.9-7c3.2-5.4,2.1-10.6,3.6-16.5c0.3-1.1,0.4-2.2,0.5-3.3c2.4,0.8,5,0.8,7.4,0.1&#13;&#10;&#9;&#9;&#9;c-5,13.1,2.7,23,7.1,34.8c6.3,16.8,2.5,35.4-4,51.4c-12.9,31.8-36.8,59.7-66.8,75.1c-22.8,11.7-52.6,21.8-77.6,12.2&#13;&#10;&#9;&#9;&#9;c-1.5-0.6-3.8-1.5-5.8-2.7c1.5-1.4,2.6-3,3.3-4.7c27.8,2.2,55.9-8.1,78.7-24.1c22.7-15.9,42.9-37.6,51.9-64.7&#13;&#10;&#9;&#9;&#9;c13.5-40.8,10.5-42-2.2-0.5c-8.4,27.4-30,49.5-53.2,64.9c-22.1,14.6-48,24.1-74.4,22.2c0.5-2.7,0-5.5-1.4-8.4&#13;&#10;&#9;&#9;&#9;c2.4-1.9,5.1-3.5,7.3-4.9C40,170.1,53.8,164.1,66.2,155.6z" stroke-width="1"/>
        <path fill="#683D14" d="M20.4,181.2c-2.9,2.6-5.3,5.7-6.4,9.2c-0.9,3,0.4,5.5,2.6,7.5c1.9-1.6,3.5-3.6,4.4-5.5&#13;&#10;&#9;&#9;&#9;c0.4-0.8,0.6-1.6,0.6-2.3C22.3,187.1,21.8,184.3,20.4,181.2z" stroke-width="1"/>
      </g>
    </g>
    <g>
      <g>
        <path fill="#683D14" d="M185,111c-4.9,24.1-12.9,42.9-18,42c-5.1-0.9-5.3-21.1-0.4-45.2s12.9-42.9,18-42&#13;&#10;&#9;&#9;&#9;C189.7,66.7,189.8,86.9,185,111z" stroke-width="1"/>
        <path fill="#683D14" d="M185,111c-4.9,24.1-12.9,42.9-18,42c-5.1-0.9-5.3-21.1-0.4-45.2s12.9-42.9,18-42&#13;&#10;&#9;&#9;&#9;C189.7,66.7,189.8,86.9,185,111z" stroke-width="1"/>
      </g>
      <g>
        <path fill="#683D14" d="M126,217.1c-19.5,15.8-37.9,25.5-41.2,21.7c-3.3-3.8,9.9-19.8,29.4-35.6s37.9-25.5,41.2-21.7&#13;&#10;&#9;&#9;&#9;C158.6,185.3,145.5,201.3,126,217.1z" stroke-width="1"/>
        <path fill="#683D14" d="M126,217.1c-19.5,15.8-37.9,25.5-41.2,21.7c-3.3-3.8,9.9-19.8,29.4-35.6s37.9-25.5,41.2-21.7&#13;&#10;&#9;&#9;&#9;C158.6,185.3,145.5,201.3,126,217.1z" stroke-width="1"/>
      </g>
      <g>
        <path fill="#683D14" d="M170,155.1c-12.4,32.1-26.3,56.7-31.1,55c-4.8-1.7,1.2-29,13.6-61.1c12.4-32.1,26.3-56.7,31.1-55&#13;&#10;&#9;&#9;&#9;C188.5,95.7,182.4,123,170,155.1z" stroke-width="1"/>
        <path fill="#683D14" d="M170,155.1c-12.4,32.1-26.3,56.7-31.1,55c-4.8-1.7,1.2-29,13.6-61.1c12.4-32.1,26.3-56.7,31.1-55&#13;&#10;&#9;&#9;&#9;C188.5,95.7,182.4,123,170,155.1z" stroke-width="1"/>
      </g>
      <g>
        <path fill="#ECCC00" d="M116.6,184.7c8.8-12.2,14.9-26.1,20.8-40c6.1-14.5,10-29.4,12.8-45c1.5-8.3,2.9-16.7,4.6-25&#13;&#10;&#9;&#9;&#9;c0.9-4.4,2-8.5,3.6-12.7c1.1-2.7,2.6-5.6,3.2-8.5c1.1-6.2-1.7-10.7-2.2-16.7c-0.1-1.2-0.3-2.2-0.6-3.3c2.5-0.1,5-0.9,7-2.4&#13;&#10;&#9;&#9;&#9;c-0.2,14.1,10.3,20.7,18.5,30.4c11.6,13.7,14.3,32.4,13.6,49.8c-1.3,34.2-14.4,68.6-37.4,93.3c-17.5,18.7-42.1,38.3-68.9,37.7&#13;&#10;&#9;&#9;&#9;c-1.6,0-4.1-0.1-6.3-0.6c1-1.8,1.5-3.7,1.5-5.5c26.9-7.4,49.8-26.6,65.9-49.4c16-22.7,27.6-50,26.9-78.5c-1.2-43-4.3-43.1-2.3,0.3&#13;&#10;&#9;&#9;&#9;c1.4,28.6-11.4,56.7-28.1,79c-15.8,21.2-37,38.9-62.5,46.1c-0.4-2.7-1.8-5.2-4.2-7.5c1.6-2.6,3.6-5,5.2-7.1&#13;&#10;&#9;&#9;&#9;C96.9,207.3,107.8,197,116.6,184.7z" stroke-width="1"/>
        <path fill="#683D14" d="M82.2,224.3c-1.8,3.5-3,7.1-2.9,10.8c0.2,3.2,2.2,5,4.9,6.1c1.3-2.2,2.1-4.5,2.3-6.7&#13;&#10;&#9;&#9;&#9;c0.1-0.9,0.1-1.7-0.2-2.4C86,229.2,84.6,226.7,82.2,224.3z" stroke-width="1"/>
      </g>
    </g>
    <g>
      <g>
        <path fill="#683D14" d="M213.8,88.1c6.6,23.7,8,44.1,3.1,45.6c-4.9,1.5-14.3-16.4-20.9-40c-6.6-23.7-8-44.1-3.1-45.6&#13;&#10;&#9;&#9;&#9;C197.8,46.5,207.1,64.4,213.8,88.1z" stroke-width="1"/>
        <path fill="#683D14" d="M213.8,88.1c6.6,23.7,8,44.1,3.1,45.6c-4.9,1.5-14.3-16.4-20.9-40c-6.6-23.7-8-44.1-3.1-45.6&#13;&#10;&#9;&#9;&#9;C197.8,46.5,207.1,64.4,213.8,88.1z" stroke-width="1"/>
      </g>
      <g>
        <path fill="#683D14" d="M209.5,209.4c-10.2,22.9-22.2,40-26.8,38c-4.7-1.9-0.2-22.1,10-45.1s22.2-40,26.8-38&#13;&#10;&#9;&#9;&#9;C224.1,166.3,219.6,186.4,209.5,209.4z" stroke-width="1"/>
        <path fill="#683D14" d="M209.5,209.4c-10.2,22.9-22.2,40-26.8,38c-4.7-1.9-0.2-22.1,10-45.1s22.2-40,26.8-38&#13;&#10;&#9;&#9;&#9;C224.1,166.3,219.6,186.4,209.5,209.4z" stroke-width="1"/>
      </g>
      <g>
        <path fill="#683D14" d="M220.5,134.1c3.6,34.2,2.3,62.4-2.7,63.1c-5.1,0.7-12.1-26.4-15.7-60.6s-2.3-62.4,2.7-63.1&#13;&#10;&#9;&#9;&#9;S216.9,100,220.5,134.1z" stroke-width="1"/>
        <path fill="#683D14" d="M220.5,134.1c3.6,34.2,2.3,62.4-2.7,63.1c-5.1,0.7-12.1-26.4-15.7-60.6s-2.3-62.4,2.7-63.1&#13;&#10;&#9;&#9;&#9;S216.9,100,220.5,134.1z" stroke-width="1"/>
      </g>
      <g>
        <path fill="#ECCC00" d="M186.4,184.8c2.3-14.9,1.4-30,0.3-45.1c-1.1-15.7-4.5-30.7-9-45.9c-2.4-8.1-5-16.2-7.3-24.4&#13;&#10;&#9;&#9;&#9;c-1.2-4.3-2.1-8.5-2.5-12.9c-0.3-2.9-0.2-6.2-1.1-9c-1.8-6-6.3-8.8-9.6-13.9c-0.6-1-1.3-1.8-2-2.6c2.2-1.2,4-3.1,5.2-5.3&#13;&#10;&#9;&#9;&#9;c6.2,12.6,18.6,13.7,30.3,18.6c16.6,6.9,27.5,22.4,34.8,38.1c14.4,31.1,18.4,67.6,9.1,100.1c-7,24.6-20.1,53.2-44.2,64.9&#13;&#10;&#9;&#9;&#9;c-1.5,0.7-3.7,1.7-5.9,2.3c0-2.1-0.4-3.9-1.1-5.6c20.6-18.8,32.3-46.3,36.2-73.9c3.9-27.5,1.9-57.1-11.8-82.1&#13;&#10;&#9;&#9;&#9;c-20.6-37.7-23.4-36.4-1.9,1.3c14.2,24.8,15.6,55.7,10.9,83.2c-4.4,26.1-15.3,51.5-34.7,69.5c-1.6-2.2-4-3.8-7.1-4.8&#13;&#10;&#9;&#9;&#9;c0.3-3.1,0.9-6.1,1.4-8.7C179.1,213.9,184.2,199.7,186.4,184.8z" stroke-width="1"/>
        <path fill="#683D14" d="M173.7,235.7c0,3.9,0.5,7.7,2.4,10.9c1.6,2.7,4.3,3.5,7.2,3.2c0.1-2.5-0.2-5-1-7c-0.4-0.8-0.7-1.5-1.3-2&#13;&#10;&#9;&#9;&#9;C179.4,238.4,177,236.8,173.7,235.7z" stroke-width="1"/>
      </g>
      <polygon fill="#683D14" points="166.5,35.8 156.3,37.6 154.7,15.7 162.6,14.2 &#9;" stroke-width="1"/>
    </g>
  </g>
</svg>