<svg xmlns="http://www.w3.org/2000/svg" xmlns:xlink="http://www.w3.org/1999/xlink" version="1.1" width="424.4056701660156" height="404.3844299316406" viewBox="-0.5 0.41556739807128906 424.4056701660156 404.3844299316406">
  <!-- Exported by Scratch - http://scratch.mit.edu/ -->
  <g id="ID0.13221150496974587">
    <g id="ID0.9905066438950598">
      <path id="ID0.8818663381971419" fill="#462B0C" d="M 121.9 242.7 C 124.3 233.2 119.2 223.2 112.3 216.1 C 107.1 210.7 100.6 206.2 93.3 204.5 C 86 202.8 77.7 204.2 72.1 209.1 C 64 216.2 63.2 228.3 61.9 239 C 60.6 249.7 57 262 46.9 265.7 C 39.2 268.5 30.8 265.3 23 263 C 15.2 260.7 5.4 259.9 0 266.1 C 3.7 273.2 9.9 279 17.3 282.2 C 11 281.5 6.6 290.1 9.7 295.6 C 12.8 301.1 20.5 302.8 26.5 300.7 C 32.5 298.6 37.1 293.7 40.9 288.7 C 39.2 295 48.5 299.6 54.3 296.4 C 60 293.2 62.4 286.3 64.3 280 C 67.2 270.1 70.2 260.1 73.1 250.2 C 74.9 244.1 76.9 237.8 81.6 233.5 C 86.3 229.3 94.6 228.4 98.5 233.5 C 100.3 235.9 100.9 239.3 103.2 241.2 " stroke-width="1"/>
    </g>
    <path id="ID0.5103350440040231" fill="#E94E1B" d="M 344.2 113.7 C 345.6 100.7 337.2 79.5 323.8 74.8 C 314.2 71.4 311.7 81.1 302.6 72.2 C 296.7 66.5 302.2 47.5 315.4 47.5 C 286.9 35.3 306.9 22.6 318.4 23.6 C 294.4 22.6 308.3 -5.8 322.8 2.4 C 335.4 9.6 343.2 31.6 347.2 43.9 C 351.7 58.2 365.3 108.2 344.9 116.6 C 343.9 114.6 344.1 113 344.2 113.7 Z " stroke-width="1"/>
    <path id="ID0.6849457290954888" fill="#875123" d="M 147.6 324.3 C 148.1 336.4 145.4 350.9 132.7 361.5 C 122.6 370 114.7 376.9 109.4 382.6 C 114.8 383.2 119.6 390.8 118.9 395.6 C 139.1 386.1 171.3 363.3 180.2 333.7 C 178.4 333.3 176.7 333 174.9 332.6 C 164.7 330.3 155.7 327.5 147.6 324.3 Z " stroke-width="1"/>
    <path id="ID0.16506157023832202" fill="#875123" d="M 328.4 308 C 336.3 308.9 344.5 312 351.6 318.6 C 363.1 329.3 372 337 378.7 341.5 C 377.9 336.5 383 330.2 387.6 329 C 379.2 315.5 362.9 296.2 343 284.5 C 342.3 287.6 341.4 290.3 340.4 292.6 C 338.4 297.6 334.3 302.9 328.4 308 Z " stroke-width="1"/>
    <path id="ID0.8337202435359359" fill="#462B0C" d="M 337.2 119.6 C 337.2 118.7 337.2 117.8 337.2 116.9 C 327.4 110.4 310.1 101 299.3 108.3 C 283.7 118.9 290.6 125.4 279.6 128.9 C 268.7 132.4 260.1 132.3 258.7 143.6 C 257.4 154.9 264.3 160.5 252.1 166.7 C 239.9 172.9 236.5 169.6 236.5 177.3 C 236.5 185 238.8 190 229.5 195.6 C 225.3 198.1 222.8 202.8 221.6 207.2 C 232.8 206.8 242.4 205.6 248.9 201.6 C 270.1 189 292.4 130.2 337.2 119.6 Z " stroke-width="1"/>
    <path id="ID0.9949868735857308" fill="#875123" d="M 391.9 103.4 C 385.5 99.2 371.1 112 363.6 119.4 C 371.8 121.6 379.5 124.8 386.4 128.6 C 391.4 120.1 397.6 107.2 391.9 103.4 Z " stroke-width="1"/>
    <path id="ID0.5015124189667404" fill="#A06430" d="M 386.4 128.6 C 381.9 122.1 371.8 121.6 363.6 119.4 C 359.1 118.2 354.4 117.3 349.5 116.7 C 343.8 106.3 333.1 88.2 329.3 91.2 C 326 93.8 325.3 106.1 325.2 114.9 C 325.2 115.9 325.2 116.8 325.2 117.6 C 280.4 128.2 273 181.4 252 194 C 245.5 197.9 221 204.8 209.8 205.2 C 182.4 206.1 145.4 202 120.2 219.4 C 118.3 220.7 116.4 222.2 114.6 223.8 C 111 227 107.9 230.5 105.2 234.2 C 95.6 247.5 92 263.6 96.9 279.1 C 96.9 292.2 93.6 314.3 73.3 324.8 C 61.2 331.1 51.9 336.3 45.4 340.7 C 50.6 342.2 53.8 350.4 52.3 355.1 C 73 350.4 107 336.3 123.2 311.7 C 130 316.3 138.1 320.6 147.6 324.3 C 155.7 327.5 164.7 330.2 174.9 332.6 C 176.7 333 178.4 333.4 180.2 333.7 C 216.4 341.2 248.3 339.7 274 333.7 C 285.7 337.9 298.8 346.2 303.6 362.7 C 307.6 376.3 311.1 386.7 314.3 393.9 C 315.6 388.2 324.9 383.9 329.3 386.2 C 328.3 368 322.7 341 308.8 321.1 C 316.7 317 323.3 312.6 328.5 308 C 334.4 302.8 338.5 297.5 340.6 292.6 C 341.6 290.3 342.4 287.6 343.2 284.5 C 350.8 253.6 347.7 188.3 347.7 188.3 C 347.7 188.3 383.4 239.1 415.6 211.9 C 439 192 404 154 386.4 128.6 Z " stroke-width="1"/>
    <g id="ID0.5437683146446943">
      <path id="ID0.9651467530056834" fill="#FFFFFF" d="M 379.9 132.2 C 385.7 132.2 390.4 136.6 390.4 142 C 390.4 147.4 385.7 151.8 379.9 151.8 C 374.1 151.8 369.4 147.4 369.4 142 C 369.4 136.6 374.1 132.2 379.9 132.2 " stroke-width="1"/>
      <path id="ID0.9255575924180448" fill="#251E22" d="M 381.7 135.6 C 382.969 135.6 384.119 136.115 384.952 136.948 C 385.785 137.781 386.3 138.931 386.3 140.2 C 386.3 141.469 385.785 142.619 384.952 143.452 C 384.119 144.285 382.969 144.8 381.7 144.8 C 380.431 144.8 379.281 144.285 378.448 143.452 C 377.615 142.619 377.1 141.469 377.1 140.2 C 377.1 138.931 377.615 137.781 378.448 136.948 C 379.281 136.115 380.431 135.6 381.7 135.6 Z " stroke-width="1"/>
    </g>
    <path id="ID0.38188152201473713" fill="#F9B233" d="M 216.6698 304.3957 L 203.74 305.7438 L 197.4662 245.5705 L 210.396 244.2224 L 216.6698 304.3957 Z " stroke-width="0.999991422667208"/>
    <path id="ID0.9316420233808458" fill="#F9B233" d="M 250.5 196.6 C 254.2 232 235.5 263 208.8 265.8 C 182.1 268.6 157.4 242.1 153.7 206.7 " stroke-width="1"/>
    <path id="ID0.884598296135664" fill="#5678BB" d="M 240.9 196.9 C 243.9 225.7 228.7 250.9 206.9 253.2 C 185.1 255.5 165 234 162 205.2 " stroke-width="1"/>
    <g id="ID0.5954038514755666">
      <path id="ID0.2339185937307775" fill="#462B0C" d="M 365.3 97.3 C 367.7 96.4 370.3 95.7 372.7 96.5 C 375.1 97.3 377.1 99.9 376.2 102.3 C 375.4 104.5 372.6 105.6 372.1 107.9 C 375 108.7 377.8 109.4 380.7 110.2 C 381.4 110.4 382.2 110.6 382.7 111.1 C 383.7 112.1 383.6 113.8 382.8 115 C 382 116.2 380.7 116.9 379.5 117.6 C 380.8 119.4 383.7 118.9 385.4 120.3 C 387.3 121.8 386.9 125 385.1 126.6 C 383.3 128.2 380.7 128.4 378.3 128.2 C 373.4 127.7 368.9 125.3 364.3 123.5 C 359.9 121.8 354.5 120.7 350.1 122.4 C 349 118.9 348 115.4 346.6 111.5 C 351.4 105.1 357.9 100.1 365.3 97.3 Z " stroke-width="1"/>
    </g>
    <path id="ID0.11062594316899776" fill="#010202" d="M 310.8 386.6 L 316.8 404.3 L 336.1 401.2 L 330.2 383.5 L 310.8 386.6 " stroke-width="1"/>
    <path id="ID0.9920877031981945" fill="#010202" d="M 373.9 336.8 L 385.8 349.3 L 399.1 340 L 387.2 327.5 L 373.9 336.8 " stroke-width="1"/>
    <path id="ID0.8829709966666996" fill="#010202" d="M 55 335.8 L 37.6 342.6 L 41.5 360 L 58.9 353.3 L 55 335.8 " stroke-width="1"/>
    <path id="ID0.0160685908049345" fill="#010202" d="M 113.6 377.8 L 97.8 387.7 L 104.9 404.1 L 120.7 394.2 L 113.6 377.8 " stroke-width="1"/>
    <g id="ID0.7612366648390889">
      <path id="ID0.2030055532231927" fill="#FFFFFF" d="M 352.2 139.9 C 358 139.9 362.7 144.3 362.7 149.7 C 362.7 155.1 358 159.5 352.2 159.5 C 346.4 159.5 341.7 155.1 341.7 149.7 C 341.7 144.3 346.4 139.9 352.2 139.9 " stroke-width="1"/>
      <path id="ID0.76276984391734" fill="#251E22" d="M 354 143.4 C 355.269 143.4 356.419 143.915 357.252 144.748 C 358.085 145.581 358.6 146.731 358.6 148 C 358.6 149.269 358.085 150.419 357.252 151.252 C 356.419 152.085 355.269 152.6 354 152.6 C 352.731 152.6 351.581 152.085 350.748 151.252 C 349.915 150.419 349.4 149.269 349.4 148 C 349.4 146.731 349.915 145.581 350.748 144.748 C 351.581 143.915 352.731 143.4 354 143.4 Z " stroke-width="1"/>
    </g>
  </g>
</svg>